<svg xmlns="http://www.w3.org/2000/svg" viewBox="0 0 849 849"><defs><style>.cls-1{fill:#fff;}.cls-2{fill:#b27c2f;}</style></defs><g id="Layer_2" data-name="Layer 2"><g id="Layer_1-2" data-name="Layer 1"><rect class="cls-1" width="849" height="849" rx="424.5"/><path class="cls-2" d="M239.8,538.22h14.38a23,23,0,0,0,3.95-.28,9.19,9.19,0,0,0,2.71-.85,7,7,0,0,0,2-1.59,12.12,12.12,0,0,0,1.72-2.66,26.49,26.49,0,0,0,1.57-4.14c.49-1.67,1.1-4.16,1.84-7.49h5.54l-1.1,22.06H223.11v-2.69a11.38,11.38,0,0,0,4.56-2,5.29,5.29,0,0,0,1.51-3,36.86,36.86,0,0,0,.35-6V482.08a39.81,39.81,0,0,0-.27-5.52,6.72,6.72,0,0,0-.91-2.69,4.67,4.67,0,0,0-1.67-1.54,18.87,18.87,0,0,0-3.57-1.29v-2.68h23.11V471a20.38,20.38,0,0,0-3.43,1.18,4.89,4.89,0,0,0-1.68,1.4,6.69,6.69,0,0,0-1,2.69,35.77,35.77,0,0,0-.33,5.77Z"/><path class="cls-2" d="M311.86,544.15a32.12,32.12,0,0,1-12-2.17,23.5,23.5,0,0,1-9.27-6.75,32,32,0,0,1-6-11.72,60.5,60.5,0,0,1-2.12-17.07q0-12.24,3.74-21a29,29,0,0,1,10.67-13.36A28.62,28.62,0,0,1,313,467.48q9.76,0,16.44,4.31a26.23,26.23,0,0,1,10,12.67q3.38,8.37,3.37,20.39,0,12.84-3.84,21.68a28.41,28.41,0,0,1-10.84,13.23A30.09,30.09,0,0,1,311.86,544.15ZM293.8,504.91q0,16.84,4.91,25.63t14.35,8.78a14.49,14.49,0,0,0,10.16-3.82q4.17-3.81,6.25-11.17a63.19,63.19,0,0,0,2.09-17.17q0-12-2.44-19.84t-6.67-11.45a14.81,14.81,0,0,0-9.83-3.56,15.14,15.14,0,0,0-8.47,2.3,18,18,0,0,0-5.88,6.56,33.63,33.63,0,0,0-3.4,10.29A77.78,77.78,0,0,0,293.8,504.91Z"/><path class="cls-2" d="M411.14,517.36a42.55,42.55,0,0,1-1.1,10.32,24,24,0,0,1-3.13,7.3,18.67,18.67,0,0,1-4.77,4.86,22.77,22.77,0,0,1-6.92,3.15,35.11,35.11,0,0,1-9.55,1.16,38.42,38.42,0,0,1-11.39-1.49,17.38,17.38,0,0,1-7.84-4.85,20.2,20.2,0,0,1-4.48-8,41.62,41.62,0,0,1-1.37-11.66V482.08a39.68,39.68,0,0,0-.27-5.79,7.32,7.32,0,0,0-.8-2.39,4.54,4.54,0,0,0-1.51-1.51,14.63,14.63,0,0,0-3.68-1.35v-2.68h23.05V471a12.14,12.14,0,0,0-4.28,1.73,4.94,4.94,0,0,0-1.64,2.88,32.08,32.08,0,0,0-.44,6.43v38.85a30.6,30.6,0,0,0,1.12,9,13.29,13.29,0,0,0,3.16,5.62,11.92,11.92,0,0,0,4.83,2.91,23,23,0,0,0,7,.91,15.88,15.88,0,0,0,6.75-1.35,12.1,12.1,0,0,0,4.86-4.09,16.69,16.69,0,0,0,2.66-6.75,64.71,64.71,0,0,0,.71-10.75v-34.3a30.08,30.08,0,0,0-.47-6.54,5.21,5.21,0,0,0-1.53-2.68,12,12,0,0,0-4.42-1.82v-2.68h21.9V471a11.88,11.88,0,0,0-4.37,1.82,5.1,5.1,0,0,0-1.61,2.85,31.06,31.06,0,0,0-.44,6.37Z"/><path class="cls-2" d="M472.93,513.58q2,3.28,3.32,5.76c.9,1.65,1.82,3.49,2.77,5.54h.72q-.28-3.35-.5-13.31t-.22-18V482.08a48.83,48.83,0,0,0-.22-5.55,6.83,6.83,0,0,0-.79-2.69,4.52,4.52,0,0,0-1.59-1.51,18.38,18.38,0,0,0-3.54-1.29v-2.68h19.75V471a18.24,18.24,0,0,0-3.48,1.21,4.78,4.78,0,0,0-1.65,1.43,6.66,6.66,0,0,0-1,2.63,35.18,35.18,0,0,0-.33,5.77V543.6h-6.86l-30.57-51.26c-1.9-3.18-3.25-5.51-4.06-7s-1.55-2.91-2.25-4.34h-.93q.39,4.23.55,15.29t.16,22v11.2a42.43,42.43,0,0,0,.25,5.38,7.78,7.78,0,0,0,.82,2.69,4.74,4.74,0,0,0,1.71,1.64,15.2,15.2,0,0,0,3.64,1.32v2.69h-20v-2.69a11.38,11.38,0,0,0,4.56-2,5.29,5.29,0,0,0,1.51-3,36.86,36.86,0,0,0,.35-6V482.08a39.81,39.81,0,0,0-.27-5.52,6.87,6.87,0,0,0-.91-2.69,4.67,4.67,0,0,0-1.67-1.54,18.87,18.87,0,0,0-3.57-1.29v-2.68h17.18Z"/><path class="cls-2" d="M557.89,543l-4.28,1.16-4-4.28a28,28,0,0,1-7.46,3.23,34.52,34.52,0,0,1-8.95,1q-13.89,0-20.91-9.53t-7-28.29a51.1,51.1,0,0,1,3.84-20.52A28.93,28.93,0,0,1,537,467.48a82,82,0,0,1,9.83.57,90.58,90.58,0,0,1,10.48,2v15.09h-5.43a25.53,25.53,0,0,0-3.52-7.71,11.41,11.41,0,0,0-4.85-3.95,18.72,18.72,0,0,0-7.17-1.18,15.66,15.66,0,0,0-10.48,3.84q-4.5,3.84-7,11.33a57.39,57.39,0,0,0-2.5,18.08A69.57,69.57,0,0,0,518.51,524q2.12,7.63,6.29,11.5a14.52,14.52,0,0,0,10.26,3.87c4.31,0,7.52-1,9.6-2.83s3.13-4.78,3.13-8.7V524.5a34.34,34.34,0,0,0-.52-7.14,6.55,6.55,0,0,0-1.84-3.4,10.23,10.23,0,0,0-4.34-2V509.3h22.18V512a8.88,8.88,0,0,0-3,1.5,5.6,5.6,0,0,0-1.51,2.12,11.54,11.54,0,0,0-.71,3.1c-.13,1.22-.19,3-.19,5.24Z"/><path class="cls-2" d="M625.34,468.36v16.57H620a47.17,47.17,0,0,0-1.7-4.72,21.13,21.13,0,0,0-1.81-3.4,8.94,8.94,0,0,0-2.06-2.2,6.57,6.57,0,0,0-2.66-1.12,19.45,19.45,0,0,0-3.68-.31H590.71v28.76h11.74a8.74,8.74,0,0,0,3.79-.68,5.49,5.49,0,0,0,2.28-2.34,21.6,21.6,0,0,0,1.73-5.15h5.15v21.07h-5.15a19.91,19.91,0,0,0-1.71-5,5.86,5.86,0,0,0-2.22-2.38,8.16,8.16,0,0,0-3.87-.72H590.71v31.67h17.07a16.74,16.74,0,0,0,4.36-.47,6.9,6.9,0,0,0,2.88-1.59,10.64,10.64,0,0,0,2.14-2.94,24.81,24.81,0,0,0,1.56-3.76c.42-1.29,1-3.19,1.73-5.68h5.44l-1,19.27H574v-2.69a11.38,11.38,0,0,0,4.56-2,5.29,5.29,0,0,0,1.51-3,36.86,36.86,0,0,0,.35-6V482.08a39.81,39.81,0,0,0-.27-5.52,6.72,6.72,0,0,0-.91-2.69,4.67,4.67,0,0,0-1.67-1.54A18.87,18.87,0,0,0,574,471v-2.68Z"/><path class="cls-2" d="M274.65,436.39V433.7a17.33,17.33,0,0,0,3.62-1.26,4.72,4.72,0,0,0,1.7-1.54,7,7,0,0,0,.88-2.69,40.45,40.45,0,0,0,.27-5.54V375.19a40.46,40.46,0,0,0-.27-5.57,6.66,6.66,0,0,0-.91-2.66,4.87,4.87,0,0,0-1.67-1.51,19.14,19.14,0,0,0-3.62-1.29v-2.69h24q10.37,0,17,2.28a29.43,29.43,0,0,1,11.17,6.73,27.53,27.53,0,0,1,6.8,11,49.19,49.19,0,0,1,2.25,15.78,57,57,0,0,1-2.11,16.33,32.5,32.5,0,0,1-6.17,11.83,28.61,28.61,0,0,1-8.62,6.86,33,33,0,0,1-9.77,3.12,91.29,91.29,0,0,1-14.71.94Zm16.74-5.11q2.19.23,6.47.22a39.24,39.24,0,0,0,8.23-.77,23.39,23.39,0,0,0,6.59-2.41,18,18,0,0,0,5.32-4.58,25,25,0,0,0,3.84-6.75,39.23,39.23,0,0,0,2.17-8.48,70,70,0,0,0,.69-10.21q0-11.15-3.21-18.3a21.67,21.67,0,0,0-9.06-10.46,28,28,0,0,0-14-3.29q-3.74,0-7.08.22Z"/><path class="cls-2" d="M400.38,361.47v16.58H395a47.17,47.17,0,0,0-1.7-4.72,21.13,21.13,0,0,0-1.81-3.4,8.75,8.75,0,0,0-2.06-2.2,6.57,6.57,0,0,0-2.66-1.12,19.45,19.45,0,0,0-3.68-.31H365.75v28.76h11.74a8.71,8.71,0,0,0,3.79-.68,5.38,5.38,0,0,0,2.28-2.34,21.55,21.55,0,0,0,1.73-5.16h5.16V408h-5.16a20.38,20.38,0,0,0-1.7-5,6,6,0,0,0-2.23-2.39,8.3,8.3,0,0,0-3.87-.71H365.75v31.67h17.07a16.74,16.74,0,0,0,4.36-.47,6.78,6.78,0,0,0,2.88-1.59,10.44,10.44,0,0,0,2.14-2.94,24.85,24.85,0,0,0,1.57-3.76c.42-1.29,1-3.19,1.73-5.68h5.43l-1,19.27H349.07V433.7a11.39,11.39,0,0,0,4.55-1.95,5.29,5.29,0,0,0,1.51-3.05,36.61,36.61,0,0,0,.36-6V375.19a37.85,37.85,0,0,0-.28-5.51,6.88,6.88,0,0,0-.9-2.69,4.7,4.7,0,0,0-1.68-1.54,19,19,0,0,0-3.56-1.29v-2.69Z"/><path class="cls-2" d="M430.4,431.34h14.38a23,23,0,0,0,4-.28,9.26,9.26,0,0,0,2.72-.85,6.93,6.93,0,0,0,2-1.59,12.12,12.12,0,0,0,1.73-2.66,26.56,26.56,0,0,0,1.56-4.14c.49-1.67,1.11-4.17,1.84-7.49h5.54l-1.1,22.06H413.72V433.7a11.39,11.39,0,0,0,4.55-1.95,5.29,5.29,0,0,0,1.51-3.05,36.61,36.61,0,0,0,.36-6V375.19a37.85,37.85,0,0,0-.28-5.51A6.88,6.88,0,0,0,419,367a4.7,4.7,0,0,0-1.68-1.54,19,19,0,0,0-3.56-1.29v-2.69h23.1v2.69a20.38,20.38,0,0,0-3.43,1.18,4.85,4.85,0,0,0-1.67,1.4,6.54,6.54,0,0,0-1,2.69,35.71,35.71,0,0,0-.33,5.76Z"/><path class="cls-2" d="M531.49,422.67c0,2.12.06,3.71.17,4.77a10,10,0,0,0,.54,2.55,5.15,5.15,0,0,0,.94,1.57,5,5,0,0,0,1.56,1.1,19.24,19.24,0,0,0,3.16,1v2.69h-23V433.7a12.32,12.32,0,0,0,4.23-1.7,5,5,0,0,0,1.67-2.86,31,31,0,0,0,.47-6.47v-23H490.71v23a42.43,42.43,0,0,0,.25,5.38,7.65,7.65,0,0,0,.82,2.68,4.68,4.68,0,0,0,1.71,1.65,15.31,15.31,0,0,0,3.65,1.32v2.69H474V433.7a11.38,11.38,0,0,0,4.56-1.95,5.29,5.29,0,0,0,1.5-3.05,36.61,36.61,0,0,0,.36-6V375.19a39.74,39.74,0,0,0-.27-5.51,7,7,0,0,0-.91-2.69,4.76,4.76,0,0,0-1.67-1.54,19.43,19.43,0,0,0-3.57-1.29v-2.69h23.11v2.69a15.33,15.33,0,0,0-3.49,1.21,5.1,5.1,0,0,0-1.7,1.51,6.75,6.75,0,0,0-.93,2.72,35.87,35.87,0,0,0-.31,5.59v19.43h30.52V375.19a30,30,0,0,0-.47-6.53A5.18,5.18,0,0,0,519.2,366a12.31,12.31,0,0,0-4.34-1.81v-2.69h23v2.69a12,12,0,0,0-4.28,1.73,4.9,4.9,0,0,0-1.65,2.88,32.75,32.75,0,0,0-.44,6.42Z"/><path class="cls-2" d="M567.93,422.67a40.6,40.6,0,0,0,.25,5.38,7.45,7.45,0,0,0,.82,2.68,4.65,4.65,0,0,0,1.7,1.65,15.49,15.49,0,0,0,3.65,1.32v2.69H551.19V433.7a11.38,11.38,0,0,0,4.56-1.95,5.29,5.29,0,0,0,1.51-3.05,36.86,36.86,0,0,0,.35-6V375.19a39.74,39.74,0,0,0-.27-5.51,6.87,6.87,0,0,0-.91-2.69,4.67,4.67,0,0,0-1.67-1.54,18.87,18.87,0,0,0-3.57-1.29v-2.69h23.16v2.69a15.39,15.39,0,0,0-3.48,1.21,5,5,0,0,0-1.7,1.51,6.74,6.74,0,0,0-.94,2.72,37.49,37.49,0,0,0-.3,5.59Z"/><path class="cls-2" d="M360.77,289h38.1V301.2h-3.45a33.22,33.22,0,0,0-1.54-4.79,9.54,9.54,0,0,0-1.6-2.68,5.05,5.05,0,0,0-1.81-1.3,8.25,8.25,0,0,0-2.91-.39h-4.47V328.1a19.13,19.13,0,0,0,.23,3.31,5.39,5.39,0,0,0,.7,1.95,3.22,3.22,0,0,0,1.29,1.13,11.39,11.39,0,0,0,2.53.79V337H371.75v-1.73a19.31,19.31,0,0,0,1.87-.52,4.53,4.53,0,0,0,1.32-.69,3.21,3.21,0,0,0,.84-1,5.82,5.82,0,0,0,.53-1.73,19.36,19.36,0,0,0,.2-3.2V292h-4.44a9.92,9.92,0,0,0-2.73.32,4.35,4.35,0,0,0-2,1.32,9.6,9.6,0,0,0-1.67,2.85,32.26,32.26,0,0,0-1.43,4.67h-3.48Z"/><path class="cls-2" d="M442.32,328.21c0,1.36,0,2.38.1,3.06a6.44,6.44,0,0,0,.35,1.64,3.53,3.53,0,0,0,.6,1,3.25,3.25,0,0,0,1,.7,10.41,10.41,0,0,0,2,.67V337H431.65v-1.73a7.7,7.7,0,0,0,2.71-1.09,3.14,3.14,0,0,0,1.07-1.83,19.84,19.84,0,0,0,.3-4.15V313.45H416.15v14.76a27.73,27.73,0,0,0,.16,3.45,5.07,5.07,0,0,0,.53,1.72,3,3,0,0,0,1.09,1.06,9.91,9.91,0,0,0,2.34.84V337H405.45v-1.73a7,7,0,0,0,2.92-1.25,3.32,3.32,0,0,0,1-1.95,24.15,24.15,0,0,0,.23-3.87V297.75a24.62,24.62,0,0,0-.18-3.54,4.38,4.38,0,0,0-.58-1.73,2.89,2.89,0,0,0-1.07-1,12.08,12.08,0,0,0-2.29-.83V289h14.82v1.72a9.63,9.63,0,0,0-2.23.78,3.19,3.19,0,0,0-1.09,1,4.38,4.38,0,0,0-.6,1.75,23.62,23.62,0,0,0-.2,3.59v12.46h19.58V297.75a19.19,19.19,0,0,0-.3-4.19,3.32,3.32,0,0,0-1-1.73,7.92,7.92,0,0,0-2.78-1.16V289H446.4v1.72a7.6,7.6,0,0,0-2.74,1.11,3.17,3.17,0,0,0-1.06,1.85,20.67,20.67,0,0,0-.28,4.12Z"/><path class="cls-2" d="M487.88,289v10.63h-3.45a30.34,30.34,0,0,0-1.09-3,13.16,13.16,0,0,0-1.16-2.18,5.62,5.62,0,0,0-1.32-1.41,4.32,4.32,0,0,0-1.71-.72,12.37,12.37,0,0,0-2.36-.2H465.66v18.45h7.54a5.44,5.44,0,0,0,2.43-.44,3.5,3.5,0,0,0,1.46-1.49,13.76,13.76,0,0,0,1.11-3.31h3.31v13.52H478.2a13.32,13.32,0,0,0-1.09-3.19,3.87,3.87,0,0,0-1.43-1.53,5.33,5.33,0,0,0-2.48-.46h-7.54v20.32h10.95a10.67,10.67,0,0,0,2.8-.3,4.42,4.42,0,0,0,1.85-1,6.77,6.77,0,0,0,1.37-1.88,16,16,0,0,0,1-2.42c.27-.83.64-2,1.11-3.64h3.48L487.56,337H455v-1.73a7.1,7.1,0,0,0,2.92-1.25,3.38,3.38,0,0,0,1-1.95,24.15,24.15,0,0,0,.23-3.87V297.75a24.62,24.62,0,0,0-.18-3.54,4.55,4.55,0,0,0-.58-1.73,3,3,0,0,0-1.07-1,12.08,12.08,0,0,0-2.29-.83V289Z"/><path class="cls-2" d="M385.05,242.68a.53.53,0,0,1-.34-1,62.52,62.52,0,0,1,79.58-.06.54.54,0,1,1-.68.83,61.56,61.56,0,0,0-78.22.06A.54.54,0,0,1,385.05,242.68Z"/><path class="cls-2" d="M636.08,256.77h0c-1,0-105.27-.65-209-1-39.59-.13-74.09-.19-103.09-.19q-23.43,0-42,.06c-54.66.15-67.61.63-68.78,1a.54.54,0,0,1-.62-.88c.43-.35,1.21-1,67.77-1.21,35.23-.1,84.12-.06,145.32.12,104.2.32,209.38,1,210.43,1a.54.54,0,0,1,0,1.08Zm-422.91-.07Zm.09-.06Z"/><path class="cls-2" d="M232.2,242.8a18.7,18.7,0,0,1-18.43-18.91,15.06,15.06,0,0,1,14.85-15.23,12.16,12.16,0,0,1,12,12.29,9.84,9.84,0,0,1-9.7,10,8,8,0,0,1-7.87-8.07.54.54,0,0,1,.54-.54.54.54,0,0,1,.54.54,6.91,6.91,0,0,0,6.79,7,8.76,8.76,0,0,0,8.62-8.87,11.07,11.07,0,0,0-10.91-11.21,14,14,0,0,0-13.77,14.15,17.61,17.61,0,0,0,17.35,17.83.54.54,0,0,1,0,1.08Z"/><path class="cls-2" d="M616.8,242.8a.54.54,0,0,1,0-1.08,17.61,17.61,0,0,0,17.35-17.83,14,14,0,0,0-13.77-14.15A11.07,11.07,0,0,0,609.47,221a8.76,8.76,0,0,0,8.62,8.87,6.91,6.91,0,0,0,6.79-7,.54.54,0,0,1,.54-.54.54.54,0,0,1,.54.54,8,8,0,0,1-7.87,8.07,9.84,9.84,0,0,1-9.7-10,12.16,12.16,0,0,1,12-12.29,15.06,15.06,0,0,1,14.85,15.23A18.7,18.7,0,0,1,616.8,242.8Z"/><path class="cls-2" d="M616.77,242.8H231.35a.54.54,0,0,1,0-1.08H616.77a.54.54,0,0,1,0,1.08Z"/><path class="cls-2" d="M386,229.43a10.29,10.29,0,0,1-10.28-10.28,12.73,12.73,0,0,1,12.72-12.72,15.78,15.78,0,0,1,15.75,15.76.54.54,0,0,1-.54.54.54.54,0,0,1-.54-.54,14.69,14.69,0,0,0-14.67-14.68,11.65,11.65,0,0,0-11.64,11.64,9.21,9.21,0,0,0,9.2,9.2,7.26,7.26,0,0,0,7.25-7.25,5.7,5.7,0,0,0-5.69-5.7.54.54,0,0,1,0-1.08,6.78,6.78,0,0,1,6.77,6.78A8.34,8.34,0,0,1,386,229.43Z"/><path class="cls-2" d="M412.48,221.32a12.81,12.81,0,0,1-9.09-3.76,16,16,0,0,1,0-22.54,19.66,19.66,0,0,1,14-5.8.54.54,0,1,1,0,1.08,18.63,18.63,0,0,0-13.23,5.48,14.89,14.89,0,0,0,0,21,11.81,11.81,0,0,0,16.67,0,9.34,9.34,0,0,0,0-13.18,7.36,7.36,0,0,0-10.39,0,.55.55,0,0,1-.77,0,.54.54,0,0,1,0-.76,8.43,8.43,0,0,1,11.92,0,10.41,10.41,0,0,1,0,14.7A12.82,12.82,0,0,1,412.48,221.32Z"/><path class="cls-2" d="M463,228.51a8.34,8.34,0,0,1-8.33-8.33,6.78,6.78,0,0,1,6.77-6.78.54.54,0,0,1,.54.54.54.54,0,0,1-.54.54,5.7,5.7,0,0,0-5.69,5.7,7.26,7.26,0,0,0,7.25,7.25,9.21,9.21,0,0,0,9.2-9.2,11.65,11.65,0,0,0-11.64-11.64,14.69,14.69,0,0,0-14.67,14.68.54.54,0,0,1-.54.54.54.54,0,0,1-.54-.54,15.78,15.78,0,0,1,15.75-15.76,12.73,12.73,0,0,1,12.72,12.72A10.29,10.29,0,0,1,463,228.51Z"/><path class="cls-2" d="M435.67,221.33a12.78,12.78,0,0,1-9.09-3.77,10.38,10.38,0,0,1,0-14.7,8.41,8.41,0,0,1,11.91,0,.54.54,0,0,1-.76.76,7.35,7.35,0,0,0-10.39,0,9.32,9.32,0,0,0,0,13.18,11.78,11.78,0,0,0,16.66,0,14.87,14.87,0,0,0,0-21,18.66,18.66,0,0,0-12.38-5.46.54.54,0,0,1-.52-.56.55.55,0,0,1,.57-.52A19.72,19.72,0,0,1,444.76,195a16,16,0,0,1,0,22.54A12.74,12.74,0,0,1,435.67,221.33Z"/><path class="cls-2" d="M424.07,208.64l-.51-1.49c-.23-.69-5.73-16.84-5.73-20a6.24,6.24,0,0,1,12.48,0c0,3.2-5.49,19.35-5.73,20Zm0-26.69a5.17,5.17,0,0,0-5.16,5.16c0,2.22,3.13,12.12,5.16,18.18,2-6.06,5.16-16,5.16-18.18A5.16,5.16,0,0,0,424.07,182Z"/><path class="cls-2" d="M370.59,230.62H250.77a.54.54,0,0,1,0-1.07H370.59a.54.54,0,1,1,0,1.07Z"/><path class="cls-2" d="M598.23,230.62H475.37a.54.54,0,1,1,0-1.07H598.23a.54.54,0,0,1,0,1.07Z"/><path class="cls-2" d="M324,581.38q-24.4,0-43.53-.06c-66.36-.2-67.15-.86-67.57-1.21a.54.54,0,0,1,.62-.87c1.16.37,14.07.85,68.57,1,35.27.1,84,.06,144.69-.13,103.42-.32,207.35-1,208.38-1a.54.54,0,0,1,.54.54.53.53,0,0,1-.53.54c-1,0-105.91.64-209.81,1C386.47,581.32,352.57,581.38,324,581.38Zm-110.42-2.09h0Zm-.08-.06Z"/><path class="cls-2" d="M249.31,627.34a16,16,0,0,1-15.95-16,19.83,19.83,0,0,1,19.81-19.81.54.54,0,0,1,0,1.08,18.76,18.76,0,0,0-18.74,18.73,14.9,14.9,0,0,0,14.88,14.88,11.82,11.82,0,0,0,11.8-11.8,9.34,9.34,0,0,0-9.33-9.32,7.36,7.36,0,0,0-7.36,7.35.54.54,0,1,1-1.07,0,8.44,8.44,0,0,1,8.43-8.43,10.42,10.42,0,0,1,10.4,10.4A12.89,12.89,0,0,1,249.31,627.34Z"/><path class="cls-2" d="M599.1,627.34a12.89,12.89,0,0,1-12.87-12.88,10.41,10.41,0,0,1,10.4-10.4,8.44,8.44,0,0,1,8.43,8.43.54.54,0,1,1-1.07,0,7.36,7.36,0,0,0-7.36-7.35,9.34,9.34,0,0,0-9.33,9.32,11.81,11.81,0,0,0,11.8,11.8A14.9,14.9,0,0,0,614,611.38a18.76,18.76,0,0,0-18.74-18.73.54.54,0,0,1,0-1.08,19.83,19.83,0,0,1,19.81,19.81A16,16,0,0,1,599.1,627.34Z"/><path class="cls-2" d="M595.67,592.65H252.74a.54.54,0,1,1,0-1.08H595.67a.54.54,0,0,1,0,1.08Z"/><path class="cls-2" d="M330.56,649.89a21.26,21.26,0,0,1,2.83-.19,6.38,6.38,0,0,1,4.18,1.15,4,4,0,0,1,1.46,3.3,4.59,4.59,0,0,1-1.49,3.59,6.84,6.84,0,0,1-4.56,1.32,23.65,23.65,0,0,1-2.42-.11Zm1.33,8.15a10.41,10.41,0,0,0,1.35.06c2.85,0,4.39-1.42,4.39-3.9,0-2.18-1.36-3.56-4.17-3.56a8.35,8.35,0,0,0-1.57.13Z"/><path class="cls-2" d="M343.82,649.89a15.71,15.71,0,0,1,2.55-.19,4.59,4.59,0,0,1,3,.75,2.18,2.18,0,0,1,.81,1.75,2.47,2.47,0,0,1-1.95,2.35v0a2.35,2.35,0,0,1,1.52,1.86,13.21,13.21,0,0,0,.8,2.53h-1.38a10.74,10.74,0,0,1-.69-2.2c-.31-1.27-.86-1.75-2.07-1.79h-1.25v4h-1.33Zm1.33,4.2h1.36c1.42,0,2.33-.7,2.33-1.75s-1-1.71-2.38-1.73a6.34,6.34,0,0,0-1.31.11Z"/><path class="cls-2" d="M356.86,656.08l-1.08,2.9h-1.37l3.5-9.21h1.61L363,659h-1.42l-1.11-2.9Zm3.38-.93-1-2.65c-.23-.6-.38-1.15-.54-1.68h0c-.15.55-.32,1.11-.52,1.67l-1,2.66Z"/><path class="cls-2" d="M367.62,649.77h5.55v1H369v3.06h3.9v1H369V659h-1.33Z"/><path class="cls-2" d="M380.09,650.78H377v-1h7.64v1h-3.15V659h-1.35Z"/><path class="cls-2" d="M396.43,649.77v3.85h5v-3.85h1.35V659h-1.35v-4.32h-5V659H395.1v-9.21Z"/><path class="cls-2" d="M417,654.28a4.54,4.54,0,0,1-4.79,4.85,4.44,4.44,0,0,1-4.64-4.67,4.6,4.6,0,0,1,4.79-4.84A4.4,4.4,0,0,1,417,654.28Zm-8,.15c0,2,1.2,3.73,3.29,3.73s3.31-1.74,3.31-3.83c0-1.83-1.07-3.74-3.29-3.74S409,652.41,409,654.43Z"/><path class="cls-2" d="M423.08,649.77v5.45c0,2.06,1,2.94,2.4,2.94s2.51-.9,2.51-2.94v-5.45h1.35v5.37c0,2.83-1.67,4-3.9,4s-3.71-1.08-3.71-3.94v-5.42Z"/><path class="cls-2" d="M434.53,657.53a5.09,5.09,0,0,0,2.38.6c1.37,0,2.16-.64,2.16-1.57s-.55-1.35-1.94-1.83c-1.68-.53-2.73-1.31-2.73-2.61s1.34-2.5,3.34-2.5a5.17,5.17,0,0,1,2.28.45l-.37,1a4.36,4.36,0,0,0-2-.44c-1.4,0-1.94.75-1.94,1.38,0,.86.63,1.29,2.05,1.78,1.75.6,2.63,1.35,2.63,2.7s-1.17,2.66-3.61,2.66a5.81,5.81,0,0,1-2.63-.59Z"/><path class="cls-2" d="M450.66,654.66h-4V658h4.47v1h-5.8v-9.21h5.57v1h-4.24v2.91h4Z"/><path class="cls-2" d="M468.67,659c-.29-.26-.56-.52-1-.9a4.53,4.53,0,0,1-3,1c-2,0-3.17-1.2-3.17-2.58a3.07,3.07,0,0,1,2-2.7v0a3,3,0,0,1-.85-1.92,2.38,2.38,0,0,1,2.61-2.27,2,2,0,0,1,2.28,2c0,1-.62,1.74-2.26,2.46v0c.87.9,1.85,1.92,2.51,2.57a6.21,6.21,0,0,0,1-2.69h1.23a6.57,6.57,0,0,1-1.49,3.4c.56.52,1.09,1,1.7,1.63Zm-1.62-1.59c-.61-.6-1.76-1.72-2.91-2.89a2.26,2.26,0,0,0-1.33,1.87,1.94,1.94,0,0,0,2.11,1.86A3,3,0,0,0,467.05,657.39Zm-3.14-5.61a2.47,2.47,0,0,0,.78,1.65c1-.53,1.72-1,1.72-1.8a1.14,1.14,0,0,0-1.2-1.19A1.26,1.26,0,0,0,463.91,651.78Z"/><path class="cls-2" d="M480.84,649.89a14.33,14.33,0,0,1,2.43-.19,4.6,4.6,0,0,1,2.83.67A1.85,1.85,0,0,1,487,652a2.25,2.25,0,0,1-1.74,2v0a2.45,2.45,0,0,1,2.12,2.31,2.36,2.36,0,0,1-.87,1.84,5.62,5.62,0,0,1-3.57.86,16.23,16.23,0,0,1-2.06-.11Zm1.33,3.77h1.21c1.41,0,2.23-.65,2.23-1.54,0-1.08-.91-1.51-2.26-1.51a6.24,6.24,0,0,0-1.18.09Zm0,4.42a8.25,8.25,0,0,0,1.12,0c1.37,0,2.65-.45,2.65-1.79s-1.21-1.78-2.67-1.78h-1.1Z"/><path class="cls-2" d="M493.86,656.08l-1.07,2.9h-1.38l3.51-9.21h1.61l3.52,9.21h-1.43l-1.1-2.9Zm3.39-.93-1-2.65c-.23-.6-.39-1.15-.54-1.68h0c-.15.55-.32,1.11-.52,1.67l-1,2.66Z"/><path class="cls-2" d="M504.62,649.89a15.94,15.94,0,0,1,2.56-.19,4.56,4.56,0,0,1,3,.75,2.18,2.18,0,0,1,.81,1.75,2.46,2.46,0,0,1-1.94,2.35v0a2.35,2.35,0,0,1,1.52,1.86,13.45,13.45,0,0,0,.79,2.53H510a12.26,12.26,0,0,1-.69-2.2c-.3-1.27-.85-1.75-2.06-1.79H506v4h-1.33Zm1.33,4.2h1.37c1.42,0,2.32-.7,2.32-1.75s-1-1.71-2.37-1.73a6.54,6.54,0,0,0-1.32.11Z"/><path class="cls-2" d="M316.84,618a30.36,30.36,0,0,1,5-.37c2.78,0,4.57.45,5.82,1.47a4.22,4.22,0,0,1,1.58,3.41,4.82,4.82,0,0,1-3.79,4.58v.08c1.55.48,2.48,1.76,3,3.63a25.47,25.47,0,0,0,1.55,4.93h-2.69a21.36,21.36,0,0,1-1.34-4.29c-.6-2.48-1.67-3.41-4-3.49h-2.45v7.78h-2.6Zm2.6,8.19h2.66c2.77,0,4.54-1.36,4.54-3.42,0-2.31-1.89-3.33-4.63-3.35a11.76,11.76,0,0,0-2.57.21Z"/><path class="cls-2" d="M349.3,627.33h-7.82v6.48h8.71v1.94H338.88v-18h10.87v2h-8.27v5.68h7.82Z"/><path class="cls-2" d="M359.18,632.93a10.07,10.07,0,0,0,4.66,1.17c2.66,0,4.21-1.25,4.21-3.07s-1.07-2.64-3.79-3.57c-3.29-1-5.32-2.56-5.32-5.09,0-2.8,2.6-4.88,6.51-4.88a10.08,10.08,0,0,1,4.45.88l-.71,1.89a8.84,8.84,0,0,0-3.83-.85c-2.74,0-3.79,1.47-3.79,2.69,0,1.68,1.23,2.51,4,3.47,3.41,1.17,5.14,2.64,5.14,5.28s-2.3,5.17-7,5.17a11.35,11.35,0,0,1-5.13-1.15Z"/><path class="cls-2" d="M384.06,619.75h-6.13v-2h14.9v2h-6.15v16h-2.62Z"/><path class="cls-2" d="M402.06,630.1,400,635.75h-2.69l6.84-18h3.14l6.86,18h-2.77l-2.15-5.65Zm6.6-1.81-2-5.18c-.45-1.17-.75-2.23-1.05-3.27h-.06c-.29,1.06-.62,2.15-1,3.25l-2,5.2Z"/><path class="cls-2" d="M424.81,617.78v10.64c0,4,2,5.73,4.69,5.73,3,0,4.9-1.76,4.9-5.73V617.78H437v10.48c0,5.52-3.26,7.79-7.62,7.79-4.12,0-7.22-2.11-7.22-7.68V617.78Z"/><path class="cls-2" d="M447.51,618a30.14,30.14,0,0,1,5-.37c2.78,0,4.57.45,5.83,1.47a4.25,4.25,0,0,1,1.58,3.41,4.82,4.82,0,0,1-3.79,4.58v.08c1.55.48,2.47,1.76,2.95,3.63a26,26,0,0,0,1.56,4.93h-2.69a21.13,21.13,0,0,1-1.35-4.29c-.59-2.48-1.67-3.41-4-3.49H450.1v7.78h-2.59Zm2.59,8.19h2.66c2.78,0,4.54-1.36,4.54-3.42,0-2.31-1.88-3.33-4.63-3.35a11.83,11.83,0,0,0-2.57.21Z"/><path class="cls-2" d="M473,630.1l-2.09,5.65h-2.69l6.84-18h3.13l6.87,18h-2.78l-2.15-5.65Zm6.6-1.81-2-5.18c-.45-1.17-.75-2.23-1.05-3.27h-.06c-.3,1.06-.63,2.15-1,3.25l-2,5.2Z"/><path class="cls-2" d="M493.94,635.75v-18h2.83l6.45,9.09a49.59,49.59,0,0,1,3.62,5.84l.06,0a71.16,71.16,0,0,1-.3-7.39v-7.52h2.45v18h-2.63L500,626.63a55,55,0,0,1-3.76-6l-.09,0c.15,2.27.21,4.43.21,7.41v7.68Z"/><path class="cls-2" d="M523.38,619.75h-6.12v-2h14.9v2H526v16h-2.63Z"/></g></g></svg>