<svg xmlns="http://www.w3.org/2000/svg" viewBox="0 0 529.8 263.9"><defs><style>.cls-1{fill:#21201e;}</style></defs><g id="Layer_2" data-name="Layer 2"><g id="Layer_1-2" data-name="Layer 1"><path class="cls-1" d="M0,118.08H32.21v10.36H29.29a27.2,27.2,0,0,0-1.29-4,8.34,8.34,0,0,0-1.35-2.26,4.24,4.24,0,0,0-1.54-1.1,6.88,6.88,0,0,0-2.45-.33H18.87v30.49a15.68,15.68,0,0,0,.2,2.79,4.71,4.71,0,0,0,.59,1.66,2.8,2.8,0,0,0,1.09,1,10.11,10.11,0,0,0,2.14.67v1.46H9.29v-1.46a16.36,16.36,0,0,0,1.58-.45,3.85,3.85,0,0,0,1.11-.58,2.73,2.73,0,0,0,.72-.88,5,5,0,0,0,.44-1.46,16.29,16.29,0,0,0,.17-2.7V120.7H9.56a8.22,8.22,0,0,0-2.31.27,3.69,3.69,0,0,0-1.68,1.11,8.17,8.17,0,0,0-1.42,2.42A27,27,0,0,0,3,128.44H0Z"/><path class="cls-1" d="M69,151.27c0,1.16,0,2,.09,2.59a5.28,5.28,0,0,0,.3,1.39,2.36,2.36,0,0,0,1.35,1.44,9.83,9.83,0,0,0,1.71.57v1.46H59.93v-1.46a6.87,6.87,0,0,0,2.29-.92,2.69,2.69,0,0,0,.91-1.55,16.88,16.88,0,0,0,.25-3.52V138.8H46.83v12.47a22.59,22.59,0,0,0,.13,2.92,4.06,4.06,0,0,0,.45,1.46,2.46,2.46,0,0,0,.92.89,8.45,8.45,0,0,0,2,.72v1.46H37.78v-1.46a6.1,6.1,0,0,0,2.47-1.06,2.88,2.88,0,0,0,.82-1.65,20.22,20.22,0,0,0,.19-3.28V125.52a21.1,21.1,0,0,0-.15-3,3.78,3.78,0,0,0-.49-1.46,2.51,2.51,0,0,0-.91-.83,9.9,9.9,0,0,0-1.93-.7v-1.46H50.31v1.46a8.84,8.84,0,0,0-1.89.65,2.82,2.82,0,0,0-.92.82,3.68,3.68,0,0,0-.51,1.48,20.15,20.15,0,0,0-.16,3v10.54H63.38V125.52a16.27,16.27,0,0,0-.25-3.54,2.78,2.78,0,0,0-.85-1.46,6.63,6.63,0,0,0-2.35-1v-1.46H72.4v1.46a6.45,6.45,0,0,0-2.32.94,2.62,2.62,0,0,0-.89,1.56,17.48,17.48,0,0,0-.24,3.48Z"/><path class="cls-1" d="M107.47,118.08v9h-2.91a24.48,24.48,0,0,0-.93-2.56,10.86,10.86,0,0,0-1-1.85,4.94,4.94,0,0,0-1.12-1.19,3.61,3.61,0,0,0-1.44-.61,10.47,10.47,0,0,0-2-.16H88.69v15.6h6.37a4.61,4.61,0,0,0,2-.37,2.93,2.93,0,0,0,1.24-1.27,11.62,11.62,0,0,0,.94-2.8h2.79V143.3H99.29a10.9,10.9,0,0,0-.93-2.7,3.15,3.15,0,0,0-1.2-1.29,4.45,4.45,0,0,0-2.1-.39H88.69V156.1H98a8.9,8.9,0,0,0,2.36-.26,3.61,3.61,0,0,0,1.57-.86,6.05,6.05,0,0,0,1.16-1.59,15.14,15.14,0,0,0,.85-2c.22-.71.54-1.73.93-3.08h3l-.56,10.45H79.64v-1.46a6.1,6.1,0,0,0,2.47-1.06,2.88,2.88,0,0,0,.82-1.65,20.22,20.22,0,0,0,.19-3.28V125.52a21.1,21.1,0,0,0-.15-3,3.78,3.78,0,0,0-.49-1.46,2.51,2.51,0,0,0-.91-.83,9.9,9.9,0,0,0-1.93-.7v-1.46Z"/><path class="cls-1" d="M128.1,158.72v-1.46a9.22,9.22,0,0,0,2-.69,2.4,2.4,0,0,0,.92-.83,3.78,3.78,0,0,0,.48-1.46,21.43,21.43,0,0,0,.15-3V125.52a21.4,21.4,0,0,0-.15-3,3.56,3.56,0,0,0-.49-1.44,2.58,2.58,0,0,0-.91-.82,10,10,0,0,0-2-.7v-1.46h13a28.6,28.6,0,0,1,9.22,1.24,15.93,15.93,0,0,1,6.06,3.64,15.14,15.14,0,0,1,3.69,6,26.8,26.8,0,0,1,1.22,8.56,30.76,30.76,0,0,1-1.15,8.86,17.36,17.36,0,0,1-3.35,6.41,15.3,15.3,0,0,1-4.67,3.72,17.84,17.84,0,0,1-5.3,1.7,49.67,49.67,0,0,1-8,.51Zm9.08-2.77c.8.08,2,.12,3.52.12a21.47,21.47,0,0,0,4.46-.42,12.83,12.83,0,0,0,3.58-1.31,9.72,9.72,0,0,0,2.88-2.48,13.86,13.86,0,0,0,2.09-3.67,21,21,0,0,0,1.17-4.6,37.73,37.73,0,0,0,.38-5.53,24.24,24.24,0,0,0-1.75-9.93,11.71,11.71,0,0,0-4.91-5.67,15.19,15.19,0,0,0-7.57-1.79c-1.35,0-2.63,0-3.85.12Z"/><path class="cls-1" d="M196.31,118.08v9h-2.92a24.6,24.6,0,0,0-.92-2.56,12.5,12.5,0,0,0-1-1.85,4.94,4.94,0,0,0-1.12-1.19,3.74,3.74,0,0,0-1.44-.61,10.51,10.51,0,0,0-2-.16h-9.41v15.6h6.38a4.64,4.64,0,0,0,2-.37,2.93,2.93,0,0,0,1.24-1.27,11.69,11.69,0,0,0,.93-2.8h2.8V143.3h-2.8a11,11,0,0,0-.92-2.7,3.17,3.17,0,0,0-1.21-1.29,4.38,4.38,0,0,0-2.09-.39h-6.38V156.1h9.26a9,9,0,0,0,2.37-.26,3.52,3.52,0,0,0,1.56-.86,5.64,5.64,0,0,0,1.16-1.59,14,14,0,0,0,.85-2c.23-.71.54-1.73.94-3.08h3L196,158.72H168.47v-1.46a6,6,0,0,0,2.47-1.06,2.88,2.88,0,0,0,.82-1.65,20,20,0,0,0,.2-3.28V125.52a21.1,21.1,0,0,0-.15-3,3.78,3.78,0,0,0-.49-1.46,2.51,2.51,0,0,0-.91-.83,10.05,10.05,0,0,0-1.94-.7v-1.46Z"/><path class="cls-1" d="M212.59,156h7.8a12.89,12.89,0,0,0,2.15-.15,5.19,5.19,0,0,0,1.47-.46,3.65,3.65,0,0,0,1.1-.87,6.3,6.3,0,0,0,.94-1.44,13.58,13.58,0,0,0,.85-2.25c.27-.9.6-2.25,1-4.06h3l-.59,12H203.54v-1.46A6.16,6.16,0,0,0,206,156.2a2.93,2.93,0,0,0,.81-1.65,20,20,0,0,0,.2-3.28V125.52a21.1,21.1,0,0,0-.15-3,3.78,3.78,0,0,0-.49-1.46,2.51,2.51,0,0,0-.91-.83,10.05,10.05,0,0,0-1.94-.7v-1.46h12.54v1.46a10.21,10.21,0,0,0-1.86.64,2.59,2.59,0,0,0-.91.76,3.49,3.49,0,0,0-.54,1.46,19.12,19.12,0,0,0-.18,3.12Z"/><path class="cls-1" d="M267.43,151.27c0,1.16,0,2,.09,2.59a5.28,5.28,0,0,0,.3,1.39,2.78,2.78,0,0,0,.51.85,2.7,2.7,0,0,0,.84.59,9.71,9.71,0,0,0,1.72.57v1.46H258.41v-1.46a6.77,6.77,0,0,0,2.29-.92,2.69,2.69,0,0,0,.91-1.55,16.7,16.7,0,0,0,.26-3.52V138.8H245.31v12.47a22.16,22.16,0,0,0,.14,2.92,4.28,4.28,0,0,0,.44,1.46,2.42,2.42,0,0,0,.93.89,8.11,8.11,0,0,0,2,.72v1.46H236.26v-1.46a6,6,0,0,0,2.47-1.06,2.88,2.88,0,0,0,.82-1.65,20,20,0,0,0,.2-3.28V125.52a21.1,21.1,0,0,0-.15-3,4,4,0,0,0-.49-1.46,2.59,2.59,0,0,0-.91-.83,10.05,10.05,0,0,0-1.94-.7v-1.46H248.8v1.46a8.45,8.45,0,0,0-1.89.65,2.75,2.75,0,0,0-.93.82,3.69,3.69,0,0,0-.5,1.48,19.84,19.84,0,0,0-.17,3v10.54h16.56V125.52a16.09,16.09,0,0,0-.26-3.54,2.78,2.78,0,0,0-.85-1.46,6.55,6.55,0,0,0-2.35-1v-1.46h12.48v1.46a6.44,6.44,0,0,0-2.33.94,2.67,2.67,0,0,0-.89,1.56,17.48,17.48,0,0,0-.24,3.48Z"/><path class="cls-1" d="M287.2,151.27a24.6,24.6,0,0,0,.13,2.92,4.06,4.06,0,0,0,.45,1.46,2.46,2.46,0,0,0,.92.89,8.45,8.45,0,0,0,2,.72v1.46H278.12v-1.46a6.1,6.1,0,0,0,2.47-1.06,2.88,2.88,0,0,0,.82-1.65,20.22,20.22,0,0,0,.19-3.28V125.52a21.1,21.1,0,0,0-.15-3,3.62,3.62,0,0,0-.49-1.46,2.48,2.48,0,0,0-.9-.83,10.32,10.32,0,0,0-1.94-.7v-1.46h12.56v1.46a8.84,8.84,0,0,0-1.89.65,2.82,2.82,0,0,0-.92.82,3.68,3.68,0,0,0-.51,1.48,20.15,20.15,0,0,0-.16,3Z"/><path class="cls-1" d="M320.37,156h7.8a12.84,12.84,0,0,0,2.14-.15,5.09,5.09,0,0,0,1.47-.46,3.65,3.65,0,0,0,1.1-.87,6.3,6.3,0,0,0,.94-1.44,13.58,13.58,0,0,0,.85-2.25c.27-.9.6-2.25,1-4.06h3l-.59,12H311.32v-1.46a6.1,6.1,0,0,0,2.47-1.06,2.87,2.87,0,0,0,.81-1.65,20,20,0,0,0,.2-3.28V125.52a21.1,21.1,0,0,0-.15-3,3.78,3.78,0,0,0-.49-1.46,2.51,2.51,0,0,0-.91-.83,10.16,10.16,0,0,0-1.93-.7v-1.46h12.53v1.46a10.81,10.81,0,0,0-1.86.64,2.59,2.59,0,0,0-.91.76,3.49,3.49,0,0,0-.54,1.46,20.67,20.67,0,0,0-.17,3.12Z"/><path class="cls-1" d="M359.45,159.19A17.37,17.37,0,0,1,353,158a12.78,12.78,0,0,1-5-3.66,17.49,17.49,0,0,1-3.25-6.36,33,33,0,0,1-1.14-9.26,29,29,0,0,1,2-11.4,15.8,15.8,0,0,1,5.79-7.25,15.49,15.49,0,0,1,8.74-2.49,16.12,16.12,0,0,1,8.92,2.34,14.23,14.23,0,0,1,5.44,6.88,29.38,29.38,0,0,1,1.84,11.06,29.49,29.49,0,0,1-2.09,11.76,15.45,15.45,0,0,1-5.88,7.17A16.29,16.29,0,0,1,359.45,159.19Zm-9.79-21.28q0,9.14,2.66,13.9a8.46,8.46,0,0,0,7.79,4.76,7.88,7.88,0,0,0,5.51-2.07,12.56,12.56,0,0,0,3.39-6.05,34.13,34.13,0,0,0,1.13-9.32,37,37,0,0,0-1.32-10.76,13,13,0,0,0-3.62-6.21,8,8,0,0,0-5.33-1.94,8.29,8.29,0,0,0-4.6,1.25,9.7,9.7,0,0,0-3.18,3.56,18.11,18.11,0,0,0-1.85,5.58A41.79,41.79,0,0,0,349.66,137.91Z"/><path class="cls-1" d="M413.31,144.67a23.38,23.38,0,0,1-.59,5.59,13.14,13.14,0,0,1-1.7,4,10.31,10.31,0,0,1-2.59,2.64,12.48,12.48,0,0,1-3.75,1.71,19,19,0,0,1-5.18.62,20.79,20.79,0,0,1-6.18-.8,9.51,9.51,0,0,1-4.26-2.63,10.9,10.9,0,0,1-2.42-4.32,22.38,22.38,0,0,1-.75-6.33V125.52a21.09,21.09,0,0,0-.15-3.14,3.89,3.89,0,0,0-.43-1.29,2.47,2.47,0,0,0-.82-.82,7.92,7.92,0,0,0-2-.73v-1.46H395v1.46a6.45,6.45,0,0,0-2.32.94,2.57,2.57,0,0,0-.89,1.56,17.48,17.48,0,0,0-.24,3.48V146.6a16.42,16.42,0,0,0,.61,4.85,7.14,7.14,0,0,0,1.71,3.05,6.39,6.39,0,0,0,2.62,1.58,12.34,12.34,0,0,0,3.78.49,8.57,8.57,0,0,0,3.66-.73,6.6,6.6,0,0,0,2.64-2.21A9.11,9.11,0,0,0,408,150a34.4,34.4,0,0,0,.39-5.83V125.52a17,17,0,0,0-.25-3.54,2.83,2.83,0,0,0-.84-1.46,6.5,6.5,0,0,0-2.39-1v-1.46h11.87v1.46a6.32,6.32,0,0,0-2.36,1,2.76,2.76,0,0,0-.88,1.55,17,17,0,0,0-.24,3.45Z"/><path class="cls-1" d="M446.83,142.61c.72,1.19,1.32,2.23,1.8,3.13s1,1.89,1.51,3h.38c-.1-1.21-.18-3.61-.26-7.22s-.12-6.85-.12-9.75v-6.25a26.53,26.53,0,0,0-.12-3,3.78,3.78,0,0,0-.43-1.46,2.37,2.37,0,0,0-.87-.82,9.26,9.26,0,0,0-1.92-.7v-1.46h10.72v1.46a10.56,10.56,0,0,0-1.89.65,2.5,2.5,0,0,0-.89.78,3.46,3.46,0,0,0-.52,1.43,18.79,18.79,0,0,0-.18,3.12V158.9h-3.72l-16.59-27.81c-1-1.73-1.76-3-2.2-3.78s-.84-1.58-1.22-2.35h-.51q.21,2.3.3,8.29t.09,11.95v6.07a24.6,24.6,0,0,0,.13,2.92,4.06,4.06,0,0,0,.45,1.46,2.46,2.46,0,0,0,.92.89,8.45,8.45,0,0,0,2,.72v1.46H422.81v-1.46a6.1,6.1,0,0,0,2.47-1.06,2.88,2.88,0,0,0,.82-1.65,20.22,20.22,0,0,0,.19-3.28V125.52a21.1,21.1,0,0,0-.15-3,3.78,3.78,0,0,0-.49-1.46,2.51,2.51,0,0,0-.91-.83,9.9,9.9,0,0,0-1.93-.7v-1.46h9.32Z"/><path class="cls-1" d="M492.92,158.57l-2.32.62-2.18-2.32a15.09,15.09,0,0,1-4.05,1.76,19.13,19.13,0,0,1-4.85.56q-7.53,0-11.34-5.16t-3.81-15.35a27.66,27.66,0,0,1,2.08-11.13,16.39,16.39,0,0,1,6-7.37,16.22,16.22,0,0,1,9.17-2.58,43.45,43.45,0,0,1,5.32.32,47.37,47.37,0,0,1,5.69,1.08v8.19h-2.95a13.76,13.76,0,0,0-1.9-4.18,6.28,6.28,0,0,0-2.64-2.15,10.24,10.24,0,0,0-3.88-.64,8.49,8.49,0,0,0-5.69,2.09,13.41,13.41,0,0,0-3.79,6.15,30.9,30.9,0,0,0-1.36,9.8,37.56,37.56,0,0,0,1.15,10,12.93,12.93,0,0,0,3.41,6.23,7.85,7.85,0,0,0,5.56,2.1q3.51,0,5.21-1.53a6,6,0,0,0,1.7-4.72v-1.78a18.54,18.54,0,0,0-.28-3.87,3.52,3.52,0,0,0-1-1.85,5.54,5.54,0,0,0-2.35-1.07v-1.46h12v1.46a4.79,4.79,0,0,0-1.61.82,3,3,0,0,0-.82,1.14,6.11,6.11,0,0,0-.39,1.68c-.07.67-.1,1.62-.1,2.85Z"/><path class="cls-1" d="M529.51,118.08v9h-2.92a27.15,27.15,0,0,0-.92-2.56,11.6,11.6,0,0,0-1-1.85,4.91,4.91,0,0,0-1.11-1.19,3.72,3.72,0,0,0-1.45-.61,10.4,10.4,0,0,0-2-.16h-9.41v15.6h6.37a4.66,4.66,0,0,0,2.06-.37,3,3,0,0,0,1.23-1.27,11.62,11.62,0,0,0,.94-2.8h2.8V143.3h-2.8a11.39,11.39,0,0,0-.92-2.7,3.17,3.17,0,0,0-1.21-1.29,4.45,4.45,0,0,0-2.1-.39h-6.37V156.1H520a9,9,0,0,0,2.37-.26,3.63,3.63,0,0,0,1.56-.86,5.84,5.84,0,0,0,1.16-1.59,14,14,0,0,0,.85-2c.23-.71.54-1.73.94-3.08h2.94l-.56,10.45H501.67v-1.46a6.1,6.1,0,0,0,2.47-1.06,2.88,2.88,0,0,0,.82-1.65,20.22,20.22,0,0,0,.19-3.28V125.52a23.2,23.2,0,0,0-.14-3,3.77,3.77,0,0,0-.5-1.46,2.48,2.48,0,0,0-.9-.83,10.32,10.32,0,0,0-1.94-.7v-1.46Z"/><path class="cls-1" d="M139.7,184.63q-30.46,0-54.38-.07C2.41,184.31,1.43,183.49.9,183.05a.68.68,0,0,1-.09-.94.67.67,0,0,1,.86-.15c1.45.47,17.59,1.07,85.68,1.26,44.07.13,104.89.08,180.77-.16,129.21-.4,259-1.19,260.35-1.2a.68.68,0,0,1,0,1.35c-1.31,0-132.33.8-262.13,1.2C217.76,184.56,175.4,184.63,139.7,184.63ZM1.76,182ZM1.65,182Z"/><path class="cls-1" d="M215.76,77a.67.67,0,0,1-.43-1.19,77.92,77.92,0,0,1,99.14-.08.67.67,0,0,1,.09,1,.66.66,0,0,1-.94.09,76.66,76.66,0,0,0-97.43.08A.7.7,0,0,1,215.76,77Z"/><path class="cls-1" d="M528.47,94.55h0c-1.3,0-131.14-.8-260.35-1.2-49.32-.15-92.28-.23-128.41-.23q-29.19,0-52.36.07c-68.09.19-84.23.79-85.68,1.26a.67.67,0,0,1-.86-.15.68.68,0,0,1,.09-.94c.53-.44,1.51-1.26,84.42-1.51,43.88-.13,104.79-.08,181,.15,129.8.4,260.82,1.19,262.13,1.2a.68.68,0,1,1,0,1.35ZM1.65,94.46Zm.11-.07Z"/><path class="cls-1" d="M25.35,77.14c-12.66,0-23-10.56-23-23.55a18.76,18.76,0,0,1,18.5-19A15.14,15.14,0,0,1,35.82,49.93,12.25,12.25,0,0,1,23.74,62.32a9.94,9.94,0,0,1-9.8-10,.68.68,0,0,1,1.35,0A8.59,8.59,0,0,0,23.74,61a10.91,10.91,0,0,0,10.74-11A13.8,13.8,0,0,0,20.89,36,17.41,17.41,0,0,0,3.74,53.59c0,12.25,9.69,22.21,21.61,22.21a.67.67,0,0,1,0,1.34Z"/><path class="cls-1" d="M504.46,77.14a.67.67,0,0,1,0-1.34c11.91,0,21.61-10,21.61-22.21A17.42,17.42,0,0,0,508.91,36a13.8,13.8,0,0,0-13.59,14,10.91,10.91,0,0,0,10.74,11,8.59,8.59,0,0,0,8.46-8.7.67.67,0,0,1,1.34,0,9.94,9.94,0,0,1-9.8,10A12.25,12.25,0,0,1,494,49.93a15.14,15.14,0,0,1,14.93-15.31,18.76,18.76,0,0,1,18.5,19C527.41,66.58,517.11,77.14,504.46,77.14Z"/><path class="cls-1" d="M504.42,77.14H24.29a.67.67,0,1,1,0-1.34H504.42a.67.67,0,1,1,0,1.34Z"/><path class="cls-1" d="M216.94,60.49a12.82,12.82,0,0,1-12.8-12.81A15.86,15.86,0,0,1,220,31.84a19.66,19.66,0,0,1,19.63,19.63.68.68,0,0,1-.68.68.67.67,0,0,1-.67-.68A18.3,18.3,0,0,0,220,33.19a14.51,14.51,0,0,0-14.5,14.49,11.47,11.47,0,0,0,11.46,11.46,9,9,0,0,0,9-9,7.1,7.1,0,0,0-7.1-7.09.68.68,0,0,1-.67-.68.67.67,0,0,1,.67-.67,8.45,8.45,0,0,1,8.44,8.44A10.39,10.39,0,0,1,216.94,60.49Z"/><path class="cls-1" d="M249.93,50.39a16,16,0,0,1-11.32-4.68,19.88,19.88,0,0,1,0-28.09A24.49,24.49,0,0,1,256,10.4a.68.68,0,0,1,0,1.35,23.14,23.14,0,0,0-16.48,6.82,18.54,18.54,0,0,0,0,26.19,14.69,14.69,0,0,0,20.75,0,11.61,11.61,0,0,0,0-16.42,9.16,9.16,0,0,0-12.94,0,.67.67,0,1,1-1-.95,10.51,10.51,0,0,1,14.84,0,12.94,12.94,0,0,1,0,18.32A16,16,0,0,1,249.93,50.39Z"/><path class="cls-1" d="M312.86,59.34A10.39,10.39,0,0,1,302.48,49a8.45,8.45,0,0,1,8.44-8.43.67.67,0,0,1,0,1.34A7.1,7.1,0,0,0,303.83,49a9,9,0,0,0,9,9,11.47,11.47,0,0,0,11.46-11.46A14.51,14.51,0,0,0,309.83,32a18.32,18.32,0,0,0-18.29,18.29.67.67,0,1,1-1.34,0A19.65,19.65,0,0,1,309.83,30.7a15.86,15.86,0,0,1,15.84,15.84A12.82,12.82,0,0,1,312.86,59.34Z"/><path class="cls-1" d="M278.82,50.4a16,16,0,0,1-11.33-4.69,13,13,0,0,1,0-18.32,10.5,10.5,0,0,1,14.84,0,.67.67,0,1,1-.95.95,9.15,9.15,0,0,0-12.94,0,11.61,11.61,0,0,0,0,16.42,14.7,14.7,0,0,0,20.76,0,18.56,18.56,0,0,0,0-26.19,23.28,23.28,0,0,0-15.43-6.8.67.67,0,1,1,.06-1.34,24.63,24.63,0,0,1,16.32,7.19,19.89,19.89,0,0,1,0,28.09A16,16,0,0,1,278.82,50.4Z"/><path class="cls-1" d="M264.37,34.6l-.64-1.87c-.29-.85-7.13-21-7.13-25a7.77,7.77,0,1,1,15.54,0c0,4-6.84,24.11-7.13,25Zm0-33.26a6.44,6.44,0,0,0-6.43,6.43c0,2.77,3.9,15.11,6.43,22.65,2.53-7.54,6.43-19.88,6.43-22.65A6.44,6.44,0,0,0,264.37,1.34Z"/><path class="cls-1" d="M197.75,62H48.49a.67.67,0,1,1,0-1.34H197.75a.67.67,0,0,1,0,1.34Z"/><path class="cls-1" d="M481.32,62h-153a.67.67,0,1,1,0-1.34H481.32a.67.67,0,0,1,0,1.34Z"/><path class="cls-1" d="M46.39,242.05a20,20,0,0,1-19.93-19.93,24.77,24.77,0,0,1,24.75-24.75.67.67,0,0,1,0,1.34A23.43,23.43,0,0,0,27.8,222.12a18.61,18.61,0,0,0,18.59,18.59A14.75,14.75,0,0,0,61.13,226a11.66,11.66,0,0,0-11.65-11.65,9.2,9.2,0,0,0-9.19,9.19.68.68,0,0,1-1.35,0A10.55,10.55,0,0,1,49.48,213a13,13,0,0,1,13,13A16.09,16.09,0,0,1,46.39,242.05Z"/><path class="cls-1" d="M483.41,242.05A16.09,16.09,0,0,1,467.33,226a13,13,0,0,1,13-13,10.55,10.55,0,0,1,10.53,10.54.67.67,0,1,1-1.34,0,9.2,9.2,0,0,0-9.19-9.19A11.66,11.66,0,0,0,468.67,226a14.75,14.75,0,0,0,14.74,14.74A18.61,18.61,0,0,0,502,222.12a23.43,23.43,0,0,0-23.41-23.41.67.67,0,0,1,0-1.34,24.77,24.77,0,0,1,24.75,24.75A20,20,0,0,1,483.41,242.05Z"/><path class="cls-1" d="M479.13,198.71H50.67a.67.67,0,0,1,0-1.34H479.13a.67.67,0,1,1,0,1.34Z"/><path class="cls-1" d="M382.26,242.11H147.54a.67.67,0,0,1,0-1.34H382.26a.67.67,0,1,1,0,1.34Z"/><path class="cls-1" d="M152.26,252.39a25.89,25.89,0,0,1,3.53-.24c2.38,0,4.08.49,5.2,1.43a5,5,0,0,1,1.82,4.12,5.69,5.69,0,0,1-1.86,4.46c-1.2,1.08-3.18,1.65-5.68,1.65-1.18,0-2.17-.05-3-.13Zm1.66,10.15a11.56,11.56,0,0,0,1.68.08c3.54,0,5.47-1.77,5.47-4.87,0-2.71-1.7-4.43-5.21-4.43a9.94,9.94,0,0,0-1.94.16Z"/><path class="cls-1" d="M168.77,252.39a18.69,18.69,0,0,1,3.19-.24,5.76,5.76,0,0,1,3.72.93,2.72,2.72,0,0,1,1,2.18,3.08,3.08,0,0,1-2.42,2.93v.05a3,3,0,0,1,1.89,2.32,16.58,16.58,0,0,0,1,3.15h-1.72a14.06,14.06,0,0,1-.86-2.74c-.38-1.58-1.07-2.18-2.57-2.23h-1.57v5h-1.66Zm1.66,5.22h1.7c1.78,0,2.9-.86,2.9-2.18,0-1.48-1.2-2.12-3-2.14a8.39,8.39,0,0,0-1.64.13Z"/><path class="cls-1" d="M185,260.1l-1.33,3.61H182l4.37-11.48h2l4.39,11.48H191l-1.38-3.61Zm4.22-1.16-1.26-3.3c-.29-.75-.48-1.43-.67-2.1h0c-.2.69-.41,1.38-.65,2.08l-1.26,3.32Z"/><path class="cls-1" d="M198.43,252.23h6.93v1.25h-5.27v3.81H205v1.23h-4.87v5.19h-1.66Z"/><path class="cls-1" d="M214,253.49h-3.91v-1.26h9.52v1.26h-3.93v10.22H214Z"/><path class="cls-1" d="M234.35,252.23V257h6.22v-4.81h1.67v11.48h-1.67v-5.38h-6.22v5.38h-1.66V252.23Z"/><path class="cls-1" d="M259.92,257.85a5.67,5.67,0,0,1-6,6,5.53,5.53,0,0,1-5.77-5.83,5.73,5.73,0,0,1,6-6A5.5,5.5,0,0,1,259.92,257.85ZM250,258c0,2.45,1.49,4.65,4.1,4.65s4.12-2.16,4.12-4.77c0-2.28-1.34-4.67-4.1-4.67S250,255.52,250,258Z"/><path class="cls-1" d="M267.55,252.23V259c0,2.57,1.28,3.66,3,3.66,1.91,0,3.13-1.12,3.13-3.66v-6.8h1.67v6.7c0,3.52-2.07,5-4.86,5-2.63,0-4.62-1.35-4.62-4.91v-6.76Z"/><path class="cls-1" d="M281.82,261.91a6.39,6.39,0,0,0,3,.75c1.69,0,2.68-.8,2.68-2s-.68-1.69-2.42-2.28c-2.1-.67-3.39-1.64-3.39-3.26,0-1.79,1.66-3.12,4.16-3.12a6.43,6.43,0,0,1,2.84.57l-.46,1.21a5.52,5.52,0,0,0-2.44-.55c-1.76,0-2.42.94-2.42,1.72,0,1.07.78,1.6,2.55,2.22,2.18.75,3.28,1.68,3.28,3.37s-1.47,3.3-4.5,3.3a7.27,7.27,0,0,1-3.28-.73Z"/><path class="cls-1" d="M301.92,258.33h-5v4.14h5.57v1.24h-7.23V252.23h6.94v1.25h-5.28v3.62h5Z"/><path class="cls-1" d="M324.37,263.71c-.36-.32-.7-.64-1.2-1.12a5.64,5.64,0,0,1-3.76,1.31c-2.5,0-4-1.5-4-3.22s1.05-2.64,2.52-3.35v-.06a3.7,3.7,0,0,1-1.07-2.4,3,3,0,0,1,3.27-2.83,2.56,2.56,0,0,1,2.84,2.44c0,1.21-.78,2.16-2.83,3.07v.05c1.09,1.12,2.31,2.38,3.13,3.2a7.88,7.88,0,0,0,1.24-3.36h1.53a8.35,8.35,0,0,1-1.85,4.25l2.12,2Zm-2-2c-.76-.75-2.19-2.15-3.62-3.61a2.81,2.81,0,0,0-1.66,2.33,2.41,2.41,0,0,0,2.63,2.32A3.83,3.83,0,0,0,322.35,261.74Zm-3.91-7a3.09,3.09,0,0,0,1,2.06c1.3-.67,2.14-1.28,2.14-2.25a1.41,1.41,0,0,0-1.49-1.48A1.56,1.56,0,0,0,318.44,254.74Z"/><path class="cls-1" d="M339.53,252.39a17.63,17.63,0,0,1,3-.24,5.8,5.8,0,0,1,3.53.83,2.34,2.34,0,0,1,1.06,2,2.78,2.78,0,0,1-2.17,2.52v0a3.09,3.09,0,0,1,2.65,2.88,2.94,2.94,0,0,1-1.09,2.3c-.89.73-2.34,1.07-4.44,1.07a21.71,21.71,0,0,1-2.58-.13Zm1.66,4.7h1.51c1.76,0,2.79-.82,2.79-1.93,0-1.34-1.15-1.87-2.83-1.87a8.19,8.19,0,0,0-1.47.1Zm0,5.5a10.13,10.13,0,0,0,1.4.07c1.71,0,3.3-.57,3.3-2.24s-1.51-2.21-3.32-2.21h-1.38Z"/><path class="cls-1" d="M355.77,260.1l-1.34,3.61h-1.72l4.37-11.48h2l4.39,11.48H361.7l-1.38-3.61Zm4.21-1.16-1.26-3.3c-.28-.75-.48-1.43-.67-2.1h0c-.19.69-.4,1.38-.65,2.08l-1.26,3.32Z"/><path class="cls-1" d="M369.17,252.39a18.6,18.6,0,0,1,3.19-.24,5.76,5.76,0,0,1,3.72.93,2.72,2.72,0,0,1,1,2.18,3.08,3.08,0,0,1-2.42,2.93v.05a3,3,0,0,1,1.89,2.32,15.85,15.85,0,0,0,1,3.15h-1.72A13.36,13.36,0,0,1,375,261c-.38-1.58-1.07-2.18-2.57-2.23h-1.57v5h-1.66Zm1.66,5.22h1.7c1.77,0,2.9-.86,2.9-2.18,0-1.48-1.2-2.12-3-2.14a8.39,8.39,0,0,0-1.64.13Z"/><path class="cls-1" d="M141.06,210.57a34.25,34.25,0,0,1,5.73-.43c3.2,0,5.26.52,6.7,1.69a4.89,4.89,0,0,1,1.82,3.92c0,2.73-1.92,4.54-4.36,5.28v.09c1.78.55,2.85,2,3.4,4.17a30,30,0,0,0,1.78,5.68H153A25,25,0,0,1,151.5,226c-.69-2.85-1.93-3.93-4.64-4H144v9h-3Zm3,9.42h3.06c3.2,0,5.22-1.57,5.22-3.93,0-2.67-2.16-3.83-5.32-3.86a14.1,14.1,0,0,0-3,.24Z"/><path class="cls-1" d="M178.39,221.28h-9v7.45h10V231h-13V210.29h12.5v2.24h-9.52v6.54h9Z"/><path class="cls-1" d="M189.76,227.72a11.63,11.63,0,0,0,5.36,1.35c3.06,0,4.84-1.44,4.84-3.53,0-1.93-1.23-3-4.36-4.11-3.78-1.2-6.11-3-6.11-5.86,0-3.22,3-5.61,7.49-5.61a11.54,11.54,0,0,1,5.11,1l-.82,2.18a10.08,10.08,0,0,0-4.4-1c-3.16,0-4.36,1.68-4.36,3.09,0,1.94,1.41,2.89,4.6,4,3.92,1.35,5.91,3,5.91,6.08s-2.64,5.95-8.1,5.95A13.15,13.15,0,0,1,189,230Z"/><path class="cls-1" d="M218.38,212.56h-7v-2.27h17.14v2.27H221.4V231h-3Z"/><path class="cls-1" d="M239.09,224.47l-2.41,6.5h-3.09l7.87-20.68h3.61L253,231h-3.2l-2.47-6.5Zm7.59-2.09-2.27-5.95c-.51-1.35-.86-2.58-1.2-3.77h-.07c-.34,1.22-.72,2.48-1.17,3.74l-2.26,6Z"/><path class="cls-1" d="M265.26,210.29v12.24c0,4.64,2.3,6.6,5.4,6.6,3.43,0,5.63-2,5.63-6.6V210.29h3v12.06c0,6.35-3.74,9-8.76,9-4.74,0-8.31-2.43-8.31-8.84V210.29Z"/><path class="cls-1" d="M291.37,210.57a34.25,34.25,0,0,1,5.73-.43c3.2,0,5.26.52,6.7,1.69a4.89,4.89,0,0,1,1.82,3.92c0,2.73-1.92,4.54-4.36,5.28v.09c1.79.55,2.85,2,3.4,4.17a30.57,30.57,0,0,0,1.79,5.68h-3.09a24.09,24.09,0,0,1-1.55-4.94c-.69-2.85-1.92-3.93-4.64-4h-2.81v9h-3Zm3,9.42h3.05c3.2,0,5.23-1.57,5.23-3.93,0-2.67-2.17-3.83-5.33-3.86a14,14,0,0,0-2.95.24Z"/><path class="cls-1" d="M320.63,224.47l-2.4,6.5h-3.09L323,210.29h3.61l7.9,20.68h-3.19l-2.48-6.5Zm7.59-2.09L326,216.43c-.52-1.35-.86-2.58-1.2-3.77h-.07c-.35,1.22-.72,2.48-1.17,3.74l-2.27,6Z"/><path class="cls-1" d="M344.78,231V210.29H348l7.42,10.46a57.92,57.92,0,0,1,4.16,6.72l.07,0a80.72,80.72,0,0,1-.34-8.5v-8.65h2.81V231h-3l-7.35-10.49a63.35,63.35,0,0,1-4.33-6.9l-.1,0c.17,2.6.24,5.09.24,8.53V231Z"/><path class="cls-1" d="M378.65,212.56h-7v-2.27h17.14v2.27h-7.08V231h-3Z"/></g></g></svg>