<svg xmlns="http://www.w3.org/2000/svg" viewBox="0 0 2617.25 53.57"><defs><style>.cls-1{fill:#a29050;}</style></defs><g id="Layer_2" data-name="Layer 2"><g id="Layer_1-2" data-name="Layer 1"><path class="cls-1" d="M0,1.16H34.67V13h-.49L28.52,2.44h-8V38.72l4.77,2.64v.45H9.47v-.45l4.82-2.64V2.44H6.15L.45,13H0Z"/><path class="cls-1" d="M71.5,41.33v.45H57.3v-.45l4.17-2.27V21.8q0-7.11-5.92-7.06a10.63,10.63,0,0,0-8.34,4.17V39.06l4.2,2.27v.45H37.18v-.45l4.25-2.27V4L37.18,1.62V1.13h10V17.46A13.78,13.78,0,0,1,58.07,12.1q4.55,0,6.89,2.41c1.56,1.62,2.35,3.94,2.35,7v17.6Z"/><path class="cls-1" d="M80.42,26.9c0,3.8,1,6.77,3,8.93a9.49,9.49,0,0,0,7.4,3.23A10.91,10.91,0,0,0,101,32.91l.88.34A13.91,13.91,0,0,1,97.06,40a13.51,13.51,0,0,1-8.42,2.55,14.07,14.07,0,0,1-10.32-4.08,14.36,14.36,0,0,1-4.1-10.66c0-4.76,1.36-8.56,4-11.4a13.87,13.87,0,0,1,10.51-4.25c4.11,0,7.32,1.16,9.64,3.52s3.49,5.58,3.49,9.72v1.47H80.42ZM96,25.74v-.48q0-11.91-7.2-11.91a7,7,0,0,0-5.86,3.29c-1.56,2.18-2.38,5.21-2.5,9.1Z"/><path class="cls-1" d="M120.57,41.38l4.74-2.63V4.28l-4.74-2.61V1.19h19q9.57,0,15.4,5.27t5.83,14.4c0,6.38-1.87,11.45-5.61,15.25s-8.76,5.7-15,5.7H120.57Zm18.23-.87c4.9,0,8.65-1.59,11.23-4.74s3.88-7.85,3.88-14.11-1.36-11-4.08-14.29-6.55-4.9-11.51-4.9h-6.78v38Z"/><path class="cls-1" d="M171.44,26.9c0,3.8,1,6.77,2.95,8.93a9.49,9.49,0,0,0,7.4,3.23A10.91,10.91,0,0,0,192,32.91l.88.34A13.91,13.91,0,0,1,188.08,40a13.53,13.53,0,0,1-8.42,2.55,14.07,14.07,0,0,1-10.32-4.08,14.33,14.33,0,0,1-4.11-10.66q0-7.14,4.06-11.4a13.87,13.87,0,0,1,10.51-4.25c4.11,0,7.32,1.16,9.64,3.52s3.49,5.58,3.49,9.72v1.47H171.44ZM187,25.74v-.48q0-11.91-7.2-11.91a7,7,0,0,0-5.86,3.29c-1.56,2.18-2.38,5.21-2.5,9.1Z"/><path class="cls-1" d="M195.41,41.36l4.25-2.27V4l-4.25-2.38V1.16h10V39.09l4.19,2.27v.45H195.41Z"/><path class="cls-1" d="M246.43,41.33v.45h-14.2v-.45l4.17-2.27V21.8c0-4.74-2-7.09-5.93-7.06a10.62,10.62,0,0,0-8.33,4.17V39.06l4.19,2.27v.45H212.1v-.45l4.25-2.27V4L212.1,1.62V1.13h10V17.46A13.76,13.76,0,0,1,233,12.1c3,0,5.33.8,6.89,2.41s2.35,3.94,2.35,7v17.6Z"/><path class="cls-1" d="M249.11,41.36l4.25-2.27V15.56l-4.25-2.27v-.45h10.06V39.09l4.17,2.27v.45H249.11Zm11-37.28-4.25,4.11-4.11-4.11L255.86,0Z"/><path class="cls-1" d="M281.44,41.36l4.74-2.64V4.25l-4.74-2.61V1.16h15.79v.48l-4.82,2.61V40.48H307l6.61-10.29h.48V41.81H281.44Z"/><path class="cls-1" d="M332.8,42.57a14.52,14.52,0,0,1-15.14-15.25,14.66,14.66,0,0,1,4.25-11,14.9,14.9,0,0,1,10.89-4.17,14.4,14.4,0,0,1,15.05,15.13,14.83,14.83,0,0,1-4.2,11,14.6,14.6,0,0,1-10.83,4.2Zm6.12-4.67q2.37-3.45,2.38-10.55t-2.38-10.46a7.21,7.21,0,0,0-6.15-3.45,7.32,7.32,0,0,0-6.21,3.45c-1.62,2.3-2.41,5.79-2.41,10.46s.79,8.25,2.41,10.55a7.33,7.33,0,0,0,6.21,3.46A7.22,7.22,0,0,0,338.92,37.9Z"/><path class="cls-1" d="M384.35,41.36v.45h-9.19l-.88-4.76A12.27,12.27,0,0,1,364,42.52c-3,0-5.33-.82-6.91-2.44s-2.39-3.94-2.39-7V15.56l-4.22-2.27v-.45h10V32.77c0,4.76,1.95,7.14,5.86,7.11q4.56,0,7.91-4.39V15.56l-4.17-2.27v-.45h10V39.09Z"/><path class="cls-1" d="M421.58,41.33v.45H407.35v-.45l4.25-2.27V21.8c0-4.74-2-7.09-6-7.06a10.6,10.6,0,0,0-8.3,4.17V39.06l4.16,2.27v.45H387.25v-.45l4.26-2.27V15.53l-4.26-2.26v-.46h9.19l.82,4.65a13.8,13.8,0,0,1,10.91-5.36c3,0,5.28.83,6.86,2.47a9.52,9.52,0,0,1,2.38,6.92v17.6Z"/><path class="cls-1" d="M443.74,36.91c7,0,10.46,2.43,10.43,7.2,0,3-1.56,5.35-4.71,7s-7.17,2.46-12.07,2.46q-14.29,0-14.29-6.8a4.84,4.84,0,0,1,1.62-3.63A9.69,9.69,0,0,1,429,40.9a4.29,4.29,0,0,1-3.06-4.22c0-2.44,1.81-4.42,5.44-6a9.82,9.82,0,0,1-4-3.46,8.84,8.84,0,0,1-1.42-4.9,9,9,0,0,1,3.49-7.4,13.79,13.79,0,0,1,8.93-2.81,14.83,14.83,0,0,1,6.32,1.31L453.32,9h.48v5.27h-7.43a8.82,8.82,0,0,1,4.42,8.08,8.62,8.62,0,0,1-3.48,7.14,14.09,14.09,0,0,1-8.9,2.72,15.56,15.56,0,0,1-5.93-1.05,3.51,3.51,0,0,0-2.26,3.15c0,1.7,1.27,2.55,3.85,2.55l9.69.06Zm-5.33,15.5a16.2,16.2,0,0,0,8-1.7,5.13,5.13,0,0,0,3-4.59q0-4.42-6.37-4.42l-9.75-.06a19.39,19.39,0,0,1-2.64-.23,5,5,0,0,0-3.06,4.68c0,4.22,3.63,6.32,10.86,6.32Zm-.06-39a5.68,5.68,0,0,0-4.68,2.24q-1.79,2.25-1.78,6.72c0,2.94.59,5.13,1.78,6.54A5.81,5.81,0,0,0,438.35,31,5.71,5.71,0,0,0,443,28.88c1.16-1.41,1.73-3.6,1.73-6.54S444.16,17,443,15.56a5.64,5.64,0,0,0-4.62-2.18Z"/><path class="cls-1" d="M463,26.9c0,3.8,1,6.77,2.94,8.93a9.51,9.51,0,0,0,7.4,3.23,10.92,10.92,0,0,0,10.21-6.15l.87.34A13.91,13.91,0,0,1,479.58,40a13.5,13.5,0,0,1-8.41,2.55,14.07,14.07,0,0,1-10.32-4.08,14.33,14.33,0,0,1-4.11-10.66c0-4.76,1.36-8.56,4.05-11.4a13.88,13.88,0,0,1,10.52-4.25c4.11,0,7.31,1.16,9.63,3.52s3.49,5.58,3.49,9.72v1.47H463Zm15.56-1.16v-.48q0-11.91-7.2-11.91a7,7,0,0,0-5.87,3.29c-1.56,2.18-2.38,5.21-2.49,9.1Z"/><path class="cls-1" d="M492.73,34.18l2,2a6.37,6.37,0,0,1,2.16,4.51,7,7,0,0,1-2,4.65,41.71,41.71,0,0,1-6.07,5.32l-.59-.51c2.46-2.35,3.71-4.53,3.74-6.51a4.21,4.21,0,0,0-.42-2A10,10,0,0,0,490,39.66l-1.28-1.34Z"/><path class="cls-1" d="M517.29,41.36,522,38.72V4.25l-4.74-2.61V1.16h15.79v.48l-4.82,2.61V38.72l4.82,2.64v.45H517.29Z"/><path class="cls-1" d="M560,12.9l-3,8.42h-.45l-3.32-6.86c-2.55.51-4.7,2.26-6.49,5.3V39.09l5.44,2.27v.45h-15.5v-.45l4.25-2.27V15.56l-4.25-2.27v-.45h9.18l.82,5.27q3.66-6,8.93-6A11.49,11.49,0,0,1,560,12.9Z"/><path class="cls-1" d="M560,12.84h13.53v.45l-3.94,2.27,9.12,21.71L587,17.49l-4.56-4.2v-.45h9.86v.45l-4.08,4.48-10,24h-3.55L563.34,15.67,560,13.24Z"/><path class="cls-1" d="M593,41.36l4.25-2.27V15.56L593,13.29v-.45H603.1V39.09l4.17,2.27v.45H593ZM604,4.08l-4.26,4.11-4.11-4.11L599.78,0Z"/><path class="cls-1" d="M644.51,41.33v.45H630.28v-.45l4.25-2.27V21.8c0-4.74-2-7.09-6-7.06a10.64,10.64,0,0,0-8.31,4.17V39.06l4.17,2.27v.45H610.18v-.45l4.25-2.27V15.53l-4.25-2.26v-.46h9.19l.82,4.65A13.79,13.79,0,0,1,631.1,12.1c3,0,5.27.83,6.86,2.47a9.52,9.52,0,0,1,2.38,6.92v17.6Z"/><path class="cls-1" d="M666.66,36.91c7,0,10.46,2.43,10.44,7.2,0,3-1.56,5.35-4.71,7s-7.17,2.46-12.08,2.46q-14.28,0-14.28-6.8a4.87,4.87,0,0,1,1.61-3.63,9.81,9.81,0,0,1,4.28-2.24,4.31,4.31,0,0,1-3.06-4.22c0-2.44,1.82-4.42,5.45-6a9.76,9.76,0,0,1-4-3.46,8.84,8.84,0,0,1-1.42-4.9,9,9,0,0,1,3.49-7.4,13.78,13.78,0,0,1,8.92-2.81,14.85,14.85,0,0,1,6.33,1.31L676.24,9h.49v5.27H669.3a8.82,8.82,0,0,1,4.42,8.08,8.62,8.62,0,0,1-3.48,7.14,14.12,14.12,0,0,1-8.91,2.72,15.51,15.51,0,0,1-5.92-1.05,3.53,3.53,0,0,0-2.27,3.15c0,1.7,1.28,2.55,3.86,2.55l9.69.06Zm-5.33,15.5a16.21,16.21,0,0,0,8-1.7,5.13,5.13,0,0,0,3-4.59q0-4.42-6.37-4.42l-9.76-.06a19.38,19.38,0,0,1-2.63-.23,5,5,0,0,0-3.06,4.68c0,4.22,3.63,6.32,10.85,6.32Zm-.05-39a5.68,5.68,0,0,0-4.68,2.24q-1.79,2.25-1.78,6.72c0,2.94.59,5.13,1.78,6.54A5.81,5.81,0,0,0,661.28,31a5.71,5.71,0,0,0,4.65-2.13c1.16-1.41,1.73-3.6,1.73-6.54s-.57-5.33-1.73-6.78a5.65,5.65,0,0,0-4.62-2.18Z"/><path class="cls-1" d="M710.05,24.29l-6.38,6.21-6.32-6.21L703.67,18Z"/><path class="cls-1" d="M731,41.41l4.73-2.63V4.31L731,1.7V1.22H750q7,0,11,2.72a8.93,8.93,0,0,1,4,7.82,9.75,9.75,0,0,1-3.26,7.49,14.6,14.6,0,0,1-8.7,3.57l3.35,1.1,9.41,14.74,4.31,2.7v.45h-9.47L749.07,23.3H742V38.72l4.82,2.64v.45H731Zm17.43-19.36a9.66,9.66,0,0,0,7.2-2.61c1.7-1.72,2.55-4.19,2.55-7.39A9,9,0,0,0,755.42,5a10.47,10.47,0,0,0-7.26-2.5H742V22Z"/><path class="cls-1" d="M776.81,26.9c0,3.8,1,6.77,2.94,8.93a9.51,9.51,0,0,0,7.4,3.23,10.91,10.91,0,0,0,10.21-6.15l.88.34a14,14,0,0,1-4.8,6.72A13.48,13.48,0,0,1,785,42.52a14.07,14.07,0,0,1-10.32-4.08,14.33,14.33,0,0,1-4.11-10.66c0-4.76,1.36-8.56,4-11.4a13.88,13.88,0,0,1,10.52-4.25c4.11,0,7.31,1.16,9.64,3.52s3.48,5.58,3.48,9.72v1.47H776.81Zm15.56-1.16v-.48q0-11.91-7.2-11.91a7,7,0,0,0-5.87,3.29c-1.56,2.18-2.38,5.21-2.49,9.1Z"/><path class="cls-1" d="M818.38,14.06a20.26,20.26,0,0,0-4.11-.6,8.38,8.38,0,0,0-4.76,1.28,3.81,3.81,0,0,0-1.9,3.29A4,4,0,0,0,808.69,21a10.75,10.75,0,0,0,3.91,2l5.5,2A17.2,17.2,0,0,1,824,28.17a6.2,6.2,0,0,1,2,4.88,8,8,0,0,1-3.57,7,14.83,14.83,0,0,1-8.74,2.53,37.12,37.12,0,0,1-11.39-2.21l2-8.59h.45l3.66,8.64a13.71,13.71,0,0,0,4.85.94A9.56,9.56,0,0,0,819,39.8a4.77,4.77,0,0,0,2.13-4.06,4.52,4.52,0,0,0-1.28-3.4,12.1,12.1,0,0,0-4.13-2.29l-5.39-2a13.49,13.49,0,0,1-5.47-3.32,6.78,6.78,0,0,1-1.7-4.67,6.78,6.78,0,0,1,3-5.84,13.24,13.24,0,0,1,7.8-2.13A37.56,37.56,0,0,1,825,14l-2.44,7.71h-.48Z"/><path class="cls-1" d="M839.29,14.12V35.37a4.47,4.47,0,0,0,1.05,3.18,3.66,3.66,0,0,0,2.83,1.13,5.19,5.19,0,0,0,4.65-2.89l.71.29A9.81,9.81,0,0,1,845.58,41a7.58,7.58,0,0,1-4.93,1.56,7.11,7.11,0,0,1-5.24-1.87,6.91,6.91,0,0,1-1.87-5.13V14.06h-4.65V12.84h4.65l5.35-8h.46v8H849v1.22Z"/><path class="cls-1" d="M880.64,38.44c-1.08,2.69-2.92,4.05-5.5,4.08a4.84,4.84,0,0,1-3.66-1.33,5.41,5.41,0,0,1-1.36-3.46,12.22,12.22,0,0,1-9.77,4.76,10.51,10.51,0,0,1-2.75-.4,12.73,12.73,0,0,1-2.92-1.19,6.38,6.38,0,0,1-2.47-2.52,7.86,7.86,0,0,1-1-4q0-6.42,8.93-9.07,4.25-1.14,9.94-2.21V18.76a5.92,5.92,0,0,0-1.24-4.08,5.32,5.32,0,0,0-4.08-1.36,14.18,14.18,0,0,0-4.94.94l-3.65,8.13h-.46l-2.86-7.65a35,35,0,0,1,12.78-2.64c3.43,0,6,.71,7.71,2.16a7,7,0,0,1,2.56,5.61V36.59c0,2.21.59,3.32,1.75,3.29.85,0,1.67-.59,2.44-1.78Zm-17.43,1.44c2.46,0,4.76-1.16,6.86-3.46V24.09q-3.11.81-7.57,2.21a7,7,0,0,0-5.22,7.23,6.32,6.32,0,0,0,1.7,4.62,5.72,5.72,0,0,0,4.26,1.73Z"/><path class="cls-1" d="M915.27,41.36v.45h-9.19l-.87-4.76c-2.7,3.65-6.13,5.47-10.26,5.47-3,0-5.33-.82-6.92-2.44s-2.38-3.94-2.38-7V15.56l-4.23-2.27v-.45h10V32.77c0,4.76,2,7.14,5.87,7.11q4.54,0,7.9-4.39V15.56l-4.16-2.27v-.45h10V39.09Z"/><path class="cls-1" d="M941.51,12.9l-3,8.42h-.45l-3.32-6.86c-2.55.51-4.7,2.26-6.49,5.3V39.09l5.44,2.27v.45h-15.5v-.45l4.25-2.27V15.56l-4.25-2.27v-.45h9.18l.82,5.27q3.66-6,8.93-6A11.49,11.49,0,0,1,941.51,12.9Z"/><path class="cls-1" d="M973.61,38.44c-1.07,2.69-2.92,4.05-5.5,4.08a4.8,4.8,0,0,1-3.65-1.33,5.35,5.35,0,0,1-1.36-3.46,12.26,12.26,0,0,1-9.78,4.76,10.51,10.51,0,0,1-2.75-.4,12.92,12.92,0,0,1-2.92-1.19,6.51,6.51,0,0,1-2.47-2.52,7.86,7.86,0,0,1-1-4q0-6.42,8.93-9.07,4.25-1.14,10-2.21V18.76a5.93,5.93,0,0,0-1.25-4.08,5.3,5.3,0,0,0-4.08-1.36,14.13,14.13,0,0,0-4.93.94l-3.66,8.13h-.45l-2.87-7.65a35,35,0,0,1,12.79-2.64c3.43,0,6,.71,7.71,2.16a7,7,0,0,1,2.55,5.61V36.59c0,2.21.59,3.32,1.76,3.29.85,0,1.67-.59,2.43-1.78Zm-17.43,1.44c2.47,0,4.76-1.16,6.86-3.46V24.09q-3.1.81-7.57,2.21a7,7,0,0,0-5.21,7.23,6.28,6.28,0,0,0,1.7,4.62,5.68,5.68,0,0,0,4.25,1.73Z"/><path class="cls-1" d="M1010.09,41.33v.45H995.86v-.45l4.25-2.27V21.8q0-7.11-6-7.06a10.61,10.61,0,0,0-8.31,4.17V39.06L990,41.33v.45H975.76v-.45L980,39.06V15.53l-4.25-2.26v-.46h9.18l.82,4.65a13.81,13.81,0,0,1,10.92-5.36c3,0,5.27.83,6.86,2.47a9.52,9.52,0,0,1,2.38,6.92v17.6Z"/><path class="cls-1" d="M1022,14.12V35.37a4.47,4.47,0,0,0,1,3.18,3.66,3.66,0,0,0,2.83,1.13,5.19,5.19,0,0,0,4.65-2.89l.71.29a9.81,9.81,0,0,1-3,3.91,7.6,7.6,0,0,1-4.93,1.56,7.11,7.11,0,0,1-5.24-1.87,6.91,6.91,0,0,1-1.87-5.13V14.06h-4.65V12.84h4.65l5.35-8h.46v8h9.63v1.22Z"/><path class="cls-1" d="M1063.44,24.29l-6.38,6.21-6.32-6.21,6.32-6.29Z"/><path class="cls-1" d="M1084.43,41.38l4.74-2.63V4.28l-4.74-2.61V1.19h19q9.57,0,15.39,5.27t5.84,14.4c0,6.38-1.87,11.45-5.61,15.25s-8.76,5.7-15,5.7h-19.62Zm18.23-.87c4.9,0,8.64-1.59,11.22-4.74s3.89-7.85,3.89-14.11-1.36-11-4.09-14.29-6.54-4.9-11.5-4.9h-6.78v38Z"/><path class="cls-1" d="M1152,12.9l-3,8.42h-.46l-3.31-6.86c-2.55.51-4.71,2.26-6.5,5.3V39.09l5.45,2.27v.45h-15.51v-.45l4.25-2.27V15.56l-4.25-2.27v-.45h9.19l.82,5.27q3.66-6,8.93-6A11.4,11.4,0,0,1,1152,12.9Z"/><path class="cls-1" d="M1184.13,38.44c-1.08,2.69-2.92,4.05-5.5,4.08a4.8,4.8,0,0,1-3.65-1.33,5.36,5.36,0,0,1-1.37-3.46,12.22,12.22,0,0,1-9.77,4.76,10.51,10.51,0,0,1-2.75-.4,12.73,12.73,0,0,1-2.92-1.19,6.38,6.38,0,0,1-2.47-2.52,7.86,7.86,0,0,1-1-4q0-6.42,8.93-9.07,4.24-1.14,9.94-2.21V18.76a5.92,5.92,0,0,0-1.24-4.08,5.33,5.33,0,0,0-4.08-1.36,14.18,14.18,0,0,0-4.94.94l-3.65,8.13h-.46l-2.86-7.65a35,35,0,0,1,12.78-2.64c3.43,0,6,.71,7.71,2.16a7,7,0,0,1,2.56,5.61V36.59c0,2.21.59,3.32,1.75,3.29.85,0,1.68-.59,2.44-1.78Zm-17.43,1.44c2.46,0,4.76-1.16,6.86-3.46V24.09q-3.11.81-7.57,2.21a7,7,0,0,0-5.22,7.23,6.32,6.32,0,0,0,1.7,4.62,5.72,5.72,0,0,0,4.26,1.73Z"/><path class="cls-1" d="M1200.9,1.47c-3,0-4.53,2.1-4.5,6.33v5h9.86v1.22h-9.86v25l5.49,2.27v.45h-15.56v-.45l4.25-2.27v-25h-4.64V12.84h4.64v-1.5c0-7.34,3.29-11,9.87-11a28.56,28.56,0,0,1,8.42,1.5l-2.61,7h-.4L1203,1.7c-1.11-.14-1.81-.23-2.13-.23Z"/><path class="cls-1" d="M1215.1,14.12V35.37a4.47,4.47,0,0,0,1.05,3.18,3.65,3.65,0,0,0,2.83,1.13,5.19,5.19,0,0,0,4.65-2.89l.71.29a9.91,9.91,0,0,1-2.95,3.91,7.6,7.6,0,0,1-4.93,1.56,7.15,7.15,0,0,1-5.25-1.87,7,7,0,0,1-1.87-5.13V14.06h-4.65V12.84h4.65l5.36-8h.45v8h9.64v1.22Z"/><path class="cls-1" d="M1241.48,41.36l4.73-2.64V4.25l-4.73-2.61V1.16h15.78v.48l-4.81,2.61v16h21.34v-16L1269,1.64V1.16h15.79v.48L1280,4.25V38.72l4.76,2.64v.45H1269v-.45l4.82-2.64V21.54h-21.34V38.72l4.81,2.64v.45h-15.78Z"/><path class="cls-1" d="M1302.75,42.57a14.52,14.52,0,0,1-15.14-15.25,14.66,14.66,0,0,1,4.25-11,14.9,14.9,0,0,1,10.89-4.17,14.4,14.4,0,0,1,15,15.13,14.83,14.83,0,0,1-4.2,11,14.6,14.6,0,0,1-10.83,4.2Zm6.12-4.67q2.39-3.45,2.38-10.55t-2.38-10.46a7.21,7.21,0,0,0-6.15-3.45,7.32,7.32,0,0,0-6.21,3.45c-1.62,2.3-2.41,5.79-2.41,10.46s.79,8.25,2.41,10.55a7.33,7.33,0,0,0,6.21,3.46A7.22,7.22,0,0,0,1308.87,37.9Z"/><path class="cls-1" d="M1354.3,41.36v.45h-9.19l-.88-4.76A12.27,12.27,0,0,1,1334,42.52c-3,0-5.33-.82-6.91-2.44s-2.38-3.94-2.38-7V15.56l-4.23-2.27v-.45h10V32.77c0,4.76,2,7.14,5.86,7.11q4.56,0,7.91-4.39V15.56l-4.17-2.27v-.45h10V39.09Z"/><path class="cls-1" d="M1374,14.06a20.26,20.26,0,0,0-4.11-.6,8.41,8.41,0,0,0-4.76,1.28,3.81,3.81,0,0,0-1.9,3.29,4,4,0,0,0,1.08,2.95,10.84,10.84,0,0,0,3.91,2l5.5,2a17.36,17.36,0,0,1,5.87,3.11,6.23,6.23,0,0,1,2,4.88,8,8,0,0,1-3.57,7,14.78,14.78,0,0,1-8.73,2.53,37.12,37.12,0,0,1-11.4-2.21l2-8.59h.46l3.65,8.64a13.75,13.75,0,0,0,4.85.94,9.61,9.61,0,0,0,5.73-1.53,4.79,4.79,0,0,0,2.12-4.06,4.51,4.51,0,0,0-1.27-3.4,12.06,12.06,0,0,0-4.14-2.29l-5.39-2a13.56,13.56,0,0,1-5.47-3.32,6.78,6.78,0,0,1-1.7-4.67,6.78,6.78,0,0,1,3-5.84,13.26,13.26,0,0,1,7.8-2.13,37.51,37.51,0,0,1,11,1.87l-2.43,7.71h-.49Z"/><path class="cls-1" d="M1392.46,26.9c0,3.8,1,6.77,3,8.93a9.47,9.47,0,0,0,7.39,3.23A10.91,10.91,0,0,0,1413,32.91l.88.34A14,14,0,0,1,1409.1,40a13.53,13.53,0,0,1-8.42,2.55,14.07,14.07,0,0,1-10.32-4.08,14.33,14.33,0,0,1-4.11-10.66c0-4.76,1.36-8.56,4-11.4a13.89,13.89,0,0,1,10.52-4.25c4.11,0,7.31,1.16,9.64,3.52s3.48,5.58,3.48,9.72v1.47h-21.48ZM1408,25.74v-.48q0-11.91-7.2-11.91a7,7,0,0,0-5.87,3.29c-1.56,2.18-2.38,5.21-2.49,9.1Z"/><path class="cls-1" d="M1447.69,24.29l-6.38,6.21L1435,24.29l6.32-6.29Z"/><path class="cls-1" d="M1493.71,20.27a15.49,15.49,0,0,1,8.17,3,8.29,8.29,0,0,1,3.17,6.89,10.07,10.07,0,0,1-4.11,8.59q-4.12,3.06-11.74,3.06h-20.46v-.45l4.73-2.64V4.25l-4.73-2.61V1.16h19.79q6.54,0,10.37,2.55a8,8,0,0,1,3.83,7,8.85,8.85,0,0,1-2.47,6.46,11.38,11.38,0,0,1-6.58,3.15ZM1479.65,20h7.26c2.95,0,5.24-.76,6.86-2.32a8.84,8.84,0,0,0,2.44-6.66,7.9,7.9,0,0,0-2.61-6.29,10.49,10.49,0,0,0-7.14-2.27h-6.78Zm7,20.5c3.83,0,6.75-.85,8.73-2.53s3-4.11,3-7.31-1-5.5-3-7.06-4.7-2.32-8.19-2.32h-7.54V40.48h7Z"/><path class="cls-1" d="M1539.34,38.44c-1.08,2.69-2.92,4.05-5.5,4.08a4.81,4.81,0,0,1-3.66-1.33,5.41,5.41,0,0,1-1.36-3.46,12.26,12.26,0,0,1-9.78,4.76,10.57,10.57,0,0,1-2.75-.4,12.92,12.92,0,0,1-2.92-1.19,6.42,6.42,0,0,1-2.46-2.52,7.76,7.76,0,0,1-1-4q0-6.42,8.93-9.07,4.26-1.14,10-2.21V18.76a5.88,5.88,0,0,0-1.25-4.08,5.3,5.3,0,0,0-4.08-1.36,14.13,14.13,0,0,0-4.93.94l-3.66,8.13h-.45l-2.86-7.65a35,35,0,0,1,12.78-2.64c3.43,0,6,.71,7.71,2.16a7,7,0,0,1,2.55,5.61V36.59c0,2.21.6,3.32,1.76,3.29.85,0,1.67-.59,2.44-1.78Zm-17.44,1.44c2.47,0,4.77-1.16,6.86-3.46V24.09q-3.1.81-7.56,2.21a7,7,0,0,0-5.22,7.23,6.32,6.32,0,0,0,1.7,4.62,5.68,5.68,0,0,0,4.25,1.73Z"/><path class="cls-1" d="M1564.81,12.9l-3,8.42h-.45l-3.32-6.86c-2.55.51-4.7,2.26-6.49,5.3V39.09l5.44,2.27v.45h-15.5v-.45l4.25-2.27V15.56l-4.25-2.27v-.45h9.18l.82,5.27q3.66-6,8.93-6A11.45,11.45,0,0,1,1564.81,12.9Z"/><path class="cls-1" d="M1597,24.29l-6.38,6.21-6.32-6.21,6.32-6.29Z"/><path class="cls-1" d="M1617.48,1.16h34.67V13h-.49L1646,2.44h-8V38.72l4.77,2.64v.45H1627v-.45l4.82-2.64V2.44h-8.14L1617.93,13h-.45Z"/><path class="cls-1" d="M1682.75,38.44c-1.08,2.69-2.92,4.05-5.5,4.08a4.8,4.8,0,0,1-3.65-1.33,5.36,5.36,0,0,1-1.37-3.46,12.22,12.22,0,0,1-9.77,4.76,10.51,10.51,0,0,1-2.75-.4,12.73,12.73,0,0,1-2.92-1.19,6.38,6.38,0,0,1-2.47-2.52,7.86,7.86,0,0,1-1-4q0-6.42,8.92-9.07,4.26-1.14,10-2.21V18.76a5.92,5.92,0,0,0-1.24-4.08,5.33,5.33,0,0,0-4.08-1.36,14.18,14.18,0,0,0-4.94.94l-3.65,8.13h-.46L1655,14.74a35,35,0,0,1,12.78-2.64c3.43,0,6,.71,7.71,2.16a7,7,0,0,1,2.56,5.61V36.59c0,2.21.59,3.32,1.75,3.29.85,0,1.67-.59,2.44-1.78Zm-17.43,1.44c2.46,0,4.76-1.16,6.86-3.46V24.09q-3.11.81-7.57,2.21a7,7,0,0,0-5.22,7.23,6.32,6.32,0,0,0,1.7,4.62,5.72,5.72,0,0,0,4.26,1.73Z"/><path class="cls-1" d="M1717.32,41.36v.45H1704v-.45l2.72-2.21-9.1-12.62-3.2,2.64v9.92l4.36,2.27v.45h-14.4v-.45l4.26-2.27V4l-4.26-2.38V1.16h10V27.58L1707,17.21l-3.48-3.92v-.45h11.79v.45L1709,17.15l-7,5.78,11.54,16Z"/><path class="cls-1" d="M1724.06,26.9c0,3.8,1,6.77,3,8.93a9.48,9.48,0,0,0,7.4,3.23,10.91,10.91,0,0,0,10.2-6.15l.88.34A14,14,0,0,1,1740.7,40a13.53,13.53,0,0,1-8.42,2.55A14.07,14.07,0,0,1,1722,38.44a14.33,14.33,0,0,1-4.11-10.66q0-7.14,4.06-11.4a13.86,13.86,0,0,1,10.51-4.25c4.11,0,7.31,1.16,9.64,3.52s3.49,5.58,3.49,9.72v1.47h-21.49Zm15.56-1.16v-.48q0-11.91-7.2-11.91a7,7,0,0,0-5.87,3.29c-1.56,2.18-2.38,5.21-2.49,9.1Z"/><path class="cls-1" d="M1779.18,38.44c-1.08,2.69-2.92,4.05-5.5,4.08a4.8,4.8,0,0,1-3.65-1.33,5.36,5.36,0,0,1-1.37-3.46,12.22,12.22,0,0,1-9.77,4.76,10.51,10.51,0,0,1-2.75-.4,12.73,12.73,0,0,1-2.92-1.19,6.38,6.38,0,0,1-2.47-2.52,7.86,7.86,0,0,1-1-4q0-6.42,8.93-9.07,4.24-1.14,9.94-2.21V18.76a5.92,5.92,0,0,0-1.24-4.08,5.33,5.33,0,0,0-4.08-1.36,14.18,14.18,0,0,0-4.94.94l-3.65,8.13h-.46l-2.86-7.65a35,35,0,0,1,12.78-2.64c3.43,0,6,.71,7.71,2.16a7,7,0,0,1,2.56,5.61V36.59c0,2.21.59,3.32,1.75,3.29.85,0,1.67-.59,2.44-1.78Zm-17.43,1.44c2.46,0,4.76-1.16,6.86-3.46V24.09q-3.1.81-7.57,2.21a7,7,0,0,0-5.22,7.23,6.32,6.32,0,0,0,1.7,4.62,5.72,5.72,0,0,0,4.26,1.73Z"/><path class="cls-1" d="M1826.11,12.84v.45l-3.94,4.31-9.41,24.21h-3.54l-7.31-18-7,18h-3.51l-10.63-26.14-3.15-2.38v-.45h13.18v.45l-3.77,2.27,8.42,21.49,5.75-14.86-2.69-6.63-3.06-2.27v-.45h13.18v.45l-3.77,2.27,8.42,21.49,7.54-19.5-4.71-4.26v-.45Z"/><path class="cls-1" d="M1857,38.44c-1.07,2.69-2.92,4.05-5.5,4.08a4.8,4.8,0,0,1-3.65-1.33,5.3,5.3,0,0,1-1.36-3.46,12.26,12.26,0,0,1-9.78,4.76,10.51,10.51,0,0,1-2.75-.4,12.73,12.73,0,0,1-2.92-1.19,6.44,6.44,0,0,1-2.47-2.52,7.86,7.86,0,0,1-1-4q0-6.42,8.93-9.07,4.25-1.14,10-2.21V18.76a5.93,5.93,0,0,0-1.25-4.08,5.3,5.3,0,0,0-4.08-1.36,14.13,14.13,0,0,0-4.93.94l-3.66,8.13h-.45l-2.87-7.65a35,35,0,0,1,12.79-2.64c3.43,0,6,.71,7.71,2.16a7,7,0,0,1,2.55,5.61V36.59c0,2.21.59,3.32,1.75,3.29.86,0,1.68-.59,2.44-1.78Zm-17.43,1.44c2.47,0,4.76-1.16,6.86-3.46V24.09q-3.1.81-7.57,2.21a7,7,0,0,0-5.21,7.23,6.28,6.28,0,0,0,1.7,4.62,5.68,5.68,0,0,0,4.25,1.73Z"/><path class="cls-1" d="M1888.39,12.84v.45l-4.05,4.43-12.73,30.89q-2,4.94-5.61,4.93a9.24,9.24,0,0,1-3.74-.87l.17-6h.39c2.41,1.44,4.34,2.15,5.79,2.15,1.07,0,1.92-.73,2.55-2.21l1-2.32-12.78-28.58-3.18-2.43v-.4h13.41v.45l-3.94,2.27L1875,37.22l8.14-19.73-4.65-4.2v-.45Z"/><path class="cls-1" d="M1919.7,24.29l-6.38,6.21L1907,24.29l6.32-6.29Z"/><path class="cls-1" d="M1940.16,1.16h34.66V13h-.48l-5.67-10.51h-8V38.72l4.76,2.64v.45h-15.79v-.45l4.82-2.64V2.44h-8.13L1940.61,13h-.45Z"/><path class="cls-1" d="M2011.66,41.33v.45h-14.2v-.45l4.17-2.27V21.8c0-4.74-2-7.09-5.93-7.06a10.62,10.62,0,0,0-8.33,4.17V39.06l4.19,2.27v.45h-14.23v-.45l4.26-2.27V4l-4.26-2.38V1.13h10V17.46a13.76,13.76,0,0,1,10.85-5.36c3,0,5.33.8,6.89,2.41s2.35,3.94,2.35,7v17.6Z"/><path class="cls-1" d="M2020.58,26.9c0,3.8,1,6.77,3,8.93a9.47,9.47,0,0,0,7.39,3.23,10.91,10.91,0,0,0,10.21-6.15l.88.34a14,14,0,0,1-4.79,6.72,13.53,13.53,0,0,1-8.42,2.55,14.07,14.07,0,0,1-10.32-4.08,14.33,14.33,0,0,1-4.11-10.66c0-4.76,1.36-8.56,4.05-11.4a13.89,13.89,0,0,1,10.52-4.25c4.11,0,7.31,1.16,9.64,3.52s3.48,5.58,3.48,9.72v1.47h-21.48Zm15.56-1.16v-.48q0-11.91-7.2-11.91a7,7,0,0,0-5.87,3.29c-1.56,2.18-2.38,5.21-2.49,9.1Z"/><path class="cls-1" d="M2060.73,41.38l4.73-2.63V4.28l-4.73-2.61V1.19h19q9.57,0,15.39,5.27C2099,10,2101,14.77,2101,20.86c0,6.38-1.87,11.45-5.61,15.25s-8.76,5.7-15,5.7h-19.62Zm18.23-.87c4.9,0,8.64-1.59,11.22-4.74s3.88-7.85,3.88-14.11-1.36-11-4.08-14.29-6.55-4.9-11.51-4.9h-6.77v38Z"/><path class="cls-1" d="M2111.6,26.9c0,3.8,1,6.77,2.94,8.93a9.51,9.51,0,0,0,7.4,3.23,10.91,10.91,0,0,0,10.21-6.15l.88.34a14,14,0,0,1-4.79,6.72,13.53,13.53,0,0,1-8.42,2.55,14.07,14.07,0,0,1-10.32-4.08,14.33,14.33,0,0,1-4.11-10.66c0-4.76,1.36-8.56,4.05-11.4A13.89,13.89,0,0,1,2120,12.13c4.11,0,7.31,1.16,9.64,3.52s3.48,5.58,3.48,9.72v1.47H2111.6Zm15.56-1.16v-.48q0-11.91-7.2-11.91a7,7,0,0,0-5.87,3.29c-1.56,2.18-2.38,5.21-2.49,9.1Z"/><path class="cls-1" d="M2135.57,41.36l4.25-2.27V4l-4.25-2.38V1.16h10V39.09l4.2,2.27v.45h-14.23Z"/><path class="cls-1" d="M2186.58,41.33v.45h-14.2v-.45l4.17-2.27V21.8q0-7.11-5.92-7.06a10.63,10.63,0,0,0-8.34,4.17V39.06l4.2,2.27v.45h-14.23v-.45l4.25-2.27V4l-4.25-2.38V1.13h10V17.46a13.78,13.78,0,0,1,10.86-5.36q4.54,0,6.89,2.41c1.56,1.62,2.35,3.94,2.35,7v17.6Z"/><path class="cls-1" d="M2189.27,41.36l4.25-2.27V15.56l-4.25-2.27v-.45h10.06V39.09l4.17,2.27v.45h-14.23Zm11-37.28L2196,8.19l-4.11-4.11L2196,0Z"/><path class="cls-1" d="M2221.6,41.36l4.73-2.64V4.25l-4.73-2.61V1.16h15.79v.48l-4.82,2.61V40.48h14.57l6.6-10.29h.48V41.81H2221.6Z"/><path class="cls-1" d="M2273,42.57a14.53,14.53,0,0,1-15.14-15.25,14.63,14.63,0,0,1,4.26-11A14.88,14.88,0,0,1,2273,12.19,14.38,14.38,0,0,1,2288,27.32a14.86,14.86,0,0,1-4.19,11,14.63,14.63,0,0,1-10.83,4.2Zm6.12-4.67q2.38-3.45,2.38-10.55t-2.38-10.46a7.19,7.19,0,0,0-6.15-3.45,7.35,7.35,0,0,0-6.21,3.45c-1.61,2.3-2.4,5.79-2.4,10.46s.79,8.25,2.4,10.55a7.36,7.36,0,0,0,6.21,3.46A7.2,7.2,0,0,0,2279.07,37.9Z"/><path class="cls-1" d="M2324.5,41.36v.45h-9.18l-.88-4.76a12.27,12.27,0,0,1-10.26,5.47c-3,0-5.33-.82-6.92-2.44s-2.38-3.94-2.38-7V15.56l-4.22-2.27v-.45h10V32.77c0,4.76,2,7.14,5.87,7.11q4.55,0,7.91-4.39V15.56l-4.17-2.27v-.45h10V39.09Z"/><path class="cls-1" d="M2361.74,41.33v.45h-14.23v-.45l4.25-2.27V21.8q0-7.11-6-7.06a10.61,10.61,0,0,0-8.31,4.17V39.06l4.17,2.27v.45h-14.23v-.45l4.25-2.27V15.53l-4.25-2.26v-.46h9.18l.83,4.65a13.78,13.78,0,0,1,10.91-5.36c3,0,5.27.83,6.86,2.47a9.52,9.52,0,0,1,2.38,6.92v17.6Z"/><path class="cls-1" d="M2383.89,36.91c7,0,10.46,2.43,10.43,7.2,0,3-1.56,5.35-4.7,7s-7.17,2.46-12.08,2.46q-14.28,0-14.28-6.8a4.83,4.83,0,0,1,1.61-3.63,9.81,9.81,0,0,1,4.28-2.24,4.29,4.29,0,0,1-3.06-4.22c0-2.44,1.81-4.42,5.44-6a9.89,9.89,0,0,1-4-3.46,8.91,8.91,0,0,1-1.41-4.9,9,9,0,0,1,3.48-7.4,13.81,13.81,0,0,1,8.93-2.81,14.8,14.8,0,0,1,6.32,1.31L2393.47,9h.48v5.27h-7.42a8.84,8.84,0,0,1,4.42,8.08,8.6,8.6,0,0,1-3.49,7.14,14.07,14.07,0,0,1-8.9,2.72,15.51,15.51,0,0,1-5.92-1.05,3.53,3.53,0,0,0-2.27,3.15c0,1.7,1.28,2.55,3.86,2.55l9.69.06Zm-5.33,15.5a16.15,16.15,0,0,0,8-1.7,5.12,5.12,0,0,0,3-4.59q0-4.42-6.38-4.42l-9.75-.06a19.38,19.38,0,0,1-2.63-.23,5,5,0,0,0-3.07,4.68c0,4.22,3.63,6.32,10.86,6.32Zm0-39a5.68,5.68,0,0,0-4.68,2.24q-1.78,2.25-1.79,6.72c0,2.94.6,5.13,1.79,6.54a5.81,5.81,0,0,0,4.68,2.13,5.71,5.71,0,0,0,4.64-2.13c1.17-1.41,1.73-3.6,1.73-6.54s-.56-5.33-1.73-6.78a5.64,5.64,0,0,0-4.62-2.18Z"/><path class="cls-1" d="M2403.1,26.9c0,3.8,1,6.77,3,8.93a9.49,9.49,0,0,0,7.4,3.23,10.91,10.91,0,0,0,10.2-6.15l.88.34a13.91,13.91,0,0,1-4.79,6.72,13.53,13.53,0,0,1-8.42,2.55A14.07,14.07,0,0,1,2401,38.44a14.33,14.33,0,0,1-4.11-10.66q0-7.14,4.06-11.4a13.86,13.86,0,0,1,10.51-4.25c4.11,0,7.31,1.16,9.64,3.52s3.49,5.58,3.49,9.72v1.47H2403.1Zm15.56-1.16v-.48q0-11.91-7.2-11.91a7,7,0,0,0-5.87,3.29q-2.33,3.27-2.49,9.1Z"/><path class="cls-1" d="M2432.88,34.18l2,2a6.39,6.39,0,0,1,2.15,4.51,7,7,0,0,1-2,4.65,41.53,41.53,0,0,1-6.06,5.32l-.6-.51c2.47-2.35,3.72-4.53,3.75-6.51a4.2,4.2,0,0,0-.43-2,9.33,9.33,0,0,0-1.59-1.92l-1.27-1.34Z"/><path class="cls-1" d="M2457.45,41.36l4.73-2.64V4.25l-4.73-2.61V1.16h15.79v.48l-4.82,2.61V38.72l4.82,2.64v.45h-15.79Z"/><path class="cls-1" d="M2500.1,12.9l-3,8.42h-.46l-3.31-6.86c-2.55.51-4.71,2.26-6.49,5.3V39.09l5.44,2.27v.45H2476.8v-.45l4.26-2.27V15.56l-4.26-2.27v-.45H2486l.82,5.27q3.66-6,8.93-6A11.4,11.4,0,0,1,2500.1,12.9Z"/><path class="cls-1" d="M2500.18,12.84h13.52v.45l-3.94,2.27,9.13,21.71,8.22-19.78-4.57-4.2v-.45h9.87v.45l-4.08,4.48-10,24h-3.54L2503.5,15.67l-3.32-2.43Z"/><path class="cls-1" d="M2533.19,41.36l4.26-2.27V15.56l-4.26-2.27v-.45h10.07V39.09l4.16,2.27v.45h-14.23Zm11-37.28-4.25,4.11-4.11-4.11L2539.94,0Z"/><path class="cls-1" d="M2584.66,41.33v.45h-14.23v-.45l4.26-2.27V21.8q0-7.11-6-7.06a10.6,10.6,0,0,0-8.3,4.17V39.06l4.17,2.27v.45h-14.23v-.45l4.25-2.27V15.53l-4.25-2.26v-.46h9.18l.82,4.65a13.81,13.81,0,0,1,10.92-5.36c3,0,5.27.83,6.86,2.47a9.56,9.56,0,0,1,2.38,6.92v17.6Z"/><path class="cls-1" d="M2606.82,36.91c7,0,10.46,2.43,10.43,7.2,0,3-1.56,5.35-4.71,7s-7.17,2.46-12.07,2.46q-14.28,0-14.29-6.8a4.84,4.84,0,0,1,1.62-3.63,9.75,9.75,0,0,1,4.28-2.24,4.29,4.29,0,0,1-3.06-4.22c0-2.44,1.81-4.42,5.44-6a9.89,9.89,0,0,1-4-3.46,8.92,8.92,0,0,1-1.42-4.9,9,9,0,0,1,3.49-7.4,13.81,13.81,0,0,1,8.93-2.81,14.83,14.83,0,0,1,6.32,1.31L2616.4,9h.48v5.27h-7.42a8.84,8.84,0,0,1,4.42,8.08,8.63,8.63,0,0,1-3.49,7.14,14.07,14.07,0,0,1-8.9,2.72,15.51,15.51,0,0,1-5.92-1.05,3.51,3.51,0,0,0-2.27,3.15c0,1.7,1.27,2.55,3.85,2.55l9.7.06Zm-5.33,15.5a16.17,16.17,0,0,0,8-1.7,5.12,5.12,0,0,0,3-4.59q0-4.42-6.38-4.42l-9.75-.06a19.52,19.52,0,0,1-2.64-.23,5,5,0,0,0-3.06,4.68c0,4.22,3.63,6.32,10.86,6.32Zm-.06-39a5.67,5.67,0,0,0-4.67,2.24q-1.78,2.25-1.79,6.72c0,2.94.6,5.13,1.79,6.54a5.8,5.8,0,0,0,4.67,2.13,5.71,5.71,0,0,0,4.65-2.13c1.16-1.41,1.73-3.6,1.73-6.54s-.57-5.33-1.73-6.78a5.64,5.64,0,0,0-4.62-2.18Z"/></g></g></svg>