<svg xmlns="http://www.w3.org/2000/svg" viewBox="0 0 1027.55 272.36"><defs><style>.cls-1{fill:#cea32b;}.cls-2,.cls-3{fill:#f3eade;}.cls-2{stroke:#1d2e18;stroke-miterlimit:10;}</style></defs><g id="Layer_2" data-name="Layer 2"><g id="Layer_1-2" data-name="Layer 1"><path class="cls-1" d="M448.67,118.72c-9.85.31-19.14-5.22-24.21-13.6a25.29,25.29,0,0,1-3.68-13.56c.06-5.29.53-10.2-2.25-15-4.81-8.21-13.94-15.14-23.24-17.19a25.92,25.92,0,0,0-13.37.48,1.57,1.57,0,0,0-.23.09A18.64,18.64,0,0,0,372,54.4h-.12c-6.41-10.34-19.8-14.75-31.74-12.08-8.58,1.93-16.67,7.15-25.66,7a23.91,23.91,0,0,1-21.35-14.72c-1.23-3-6.13-3-6.06.82.33,20.35,9.61,41.67,30.27,48.43,8.59,2.82,16.52,1.76,23.91-1.34a31.9,31.9,0,0,0-2.07,6.92c-1.52,9,3,16.4,3.95,25.11s-3,17.12-9.14,23a2.07,2.07,0,0,0,1.45,3.5c21.72-1.3,38.15-18,47.88-36.36a67.45,67.45,0,0,0,2.92-6.34,56.12,56.12,0,0,0,12.25,17.28c13.72,12.76,34.69,17.82,51.64,8.57C452.67,122.8,451.55,118.63,448.67,118.72Z"/><path class="cls-2" d="M132.31,249.74c-8.18-7.84-12.1-17.72-16.63-27.86-4.12-9.23-13.8-24.23-26.07-18.29-9.68,4.69-10.08,18.48-7.43,27.36,6.92,23.12,32,33.16,54.19,34.12a101.87,101.87,0,0,0,21.24-1.4l-.15,0A55.81,55.81,0,0,1,132.31,249.74Z"/><path class="cls-2" d="M207.41,68.77c7.19-1.63,14.51.6,21.64-.77,5.18-1,9.75-4.25,8.29-10.24-.88-3.63-3.67-6.76-6.75-8.73-13.52-8.68-28.71.53-35.69,12.91a47.86,47.86,0,0,0-5.69,18.5A32.19,32.19,0,0,1,207.41,68.77Z"/><path class="cls-3" d="M523.24,36.77C502.34,10.83,470,4.44,438.53,11.87c-22.82,5.4-46.45,18.66-59.34,38.87-.27,0-.54-.12-.81-.14a8.92,8.92,0,0,0-1.46,0h-.16a8.51,8.51,0,0,0-1,.1,19.17,19.17,0,0,0-2.13.2,10.59,10.59,0,0,0-4,1.73c-2.84,2-5.34,4.93-6,8.48a12.89,12.89,0,0,0-.31,3.16c0,.25.06.51.08.77a22.76,22.76,0,0,0,.78,6.85c.15.54.32,1.08.52,1.61a13,13,0,0,0,1.39,3A10.42,10.42,0,0,0,368.41,79a7.63,7.63,0,0,0,3,1.62,3.9,3.9,0,0,0,.67.18,10.29,10.29,0,0,0,2.77.25,18,18,0,0,0,6.4-1.81,17.67,17.67,0,0,0,3.91-2.69,15.6,15.6,0,0,0,3-3.62A13.59,13.59,0,0,0,390,68.59a15.31,15.31,0,0,0-.67-8.77,13.46,13.46,0,0,0-1.17-3.19,11.56,11.56,0,0,0-3.68-4,95.1,95.1,0,0,1,45.21-32.5c24.91-8.48,54.17-9,76,7.38,22.16,16.59,31.63,44.31,28.7,71.33-3,28-19.21,52.41-40.48,70.16-3.41,2.85-7,5.46-10.57,8-22.95,3.34-44.43-1.23-66.51-8.3-20.33-6.51-40.6-12.2-62.1-12.44a135.12,135.12,0,0,0-55.9,11A107.83,107.83,0,0,0,276,181.17,329.38,329.38,0,0,1,246.68,166c-23.55-13.71-46.27-32.29-54.69-59.23a69.78,69.78,0,0,1-2.61-11.89,3.24,3.24,0,0,0,.44-.78,27.42,27.42,0,0,1,15.94-17.27c7.62-2.92,15.57-.52,23.42-1.58,12.67-1.7,19.8-13,12.86-24.64C236.26,41,223.82,36.87,213.1,38.93c-12.66,2.44-22.21,13.11-27,24.55-11.67,27.68.2,59.16,19.53,80.12,17.31,18.76,40.58,32.14,64.11,42.76-6.71,5.83-13,12.18-19.22,18.68-20.18,21.21-43.39,41.6-70.4,52.32a48.83,48.83,0,0,1-34-5.63c-9.75-5.79-16.23-14.38-20.77-24.62-4.27-9.64-7.8-19.91-16.61-26.43-15.14-11.19-32.13-1.58-34.55,16.09-2.69,19.64,10.91,37.82,27.61,46.52,26.16,13.64,55.84,10.55,82.5-.38a50.76,50.76,0,0,0,12.15-5.57,171.9,171.9,0,0,0,27.86-18c18-14.25,32.07-32.3,49.19-47.41,1-.88,2.06-1.67,3.09-2.51,3.37,1.45,6.74,2.86,10.08,4.21,61.19,24.72,134,29.62,192.52-5.11,26.4-15.67,48.14-39.14,57.6-68.72C545.8,91.5,542.12,60.22,523.24,36.77ZM327.93,199.28a292.63,292.63,0,0,1-44.62-14.95,118.63,118.63,0,0,1,52.86-19.8c26.53-3.25,51.08,2.73,76.35,10.15,18.65,5.47,39.54,11.78,59.29,9.45C428.85,208.3,375.29,210.87,327.93,199.28Z"/><path class="cls-3" d="M308.05,195.63c-33.59,15.38-75.1,7.31-109.11-2.9-16.3-4.9-32.49-12-44.83-24-13.79-13.47-19.63-32.23-25.19-50.17-5.72-18.5-9.86-37.42-15.57-55.9C108.48,46.86,101.8,31.4,90.53,19.12,80.3,8,66.4.41,51.07,0,37.45-.34,21.83,5.74,15.89,18.81c-6.38,14,4.66,29.48,20.21,25.29,8.87-2.4,15-9.85,22.66-14.49s16.62-7.6,25-5.75c7.31,7.69,12.78,17.25,16.75,27,9.4,23,14.08,47.77,21.88,71.4a112.23,112.23,0,0,0-21.06-17.62c-19-12.3-43.42-19.15-65.89-14.07C14.86,95.2-2.36,113.07.27,135.25c1,8.62,5.85,18.39,14.42,21.66,8.79,3.35,16.62-3.14,15.14-12.25-2.19-13.53-5-30.92,8.33-40,6.59-4.49,16.27-5.85,24-6.55a49.68,49.68,0,0,1,11.15.47,95.2,95.2,0,0,1,19.26,7.93,98.56,98.56,0,0,1,26.46,21.22,119.27,119.27,0,0,1,12.8,18.38c.93,1.91,1.88,3.81,2.89,5.69,14.59,27.09,41.08,40.65,69.88,48.14,33.92,8.83,72.65,15.28,105.29-1.09C312.08,197.75,310.19,194.65,308.05,195.63Z"/><path class="cls-1" d="M578.88,118.72c9.85.31,19.14-5.22,24.21-13.6a25.2,25.2,0,0,0,3.68-13.56c-.06-5.29-.53-10.2,2.25-15,4.81-8.21,13.94-15.14,23.24-17.19a26,26,0,0,1,13.38.48,2,2,0,0,1,.22.09,18.64,18.64,0,0,1,9.67-5.58h.13c6.4-10.34,19.79-14.75,31.74-12.08,8.58,1.93,16.66,7.15,25.65,7a23.92,23.92,0,0,0,21.36-14.72c1.23-3,6.12-3,6.06.82-.34,20.35-9.62,41.67-30.28,48.43-8.58,2.82-16.52,1.76-23.9-1.34a31.88,31.88,0,0,1,2.06,6.92c1.52,9-3,16.4-4,25.11s3,17.12,9.14,23a2.07,2.07,0,0,1-1.45,3.5c-21.71-1.3-38.15-18-47.88-36.36a67.45,67.45,0,0,1-2.92-6.34A56.12,56.12,0,0,1,629,115.61c-13.72,12.76-34.68,17.82-51.64,8.57C574.88,122.8,576,118.63,578.88,118.72Z"/><path class="cls-3" d="M895.24,249.74c8.18-7.84,12.1-17.72,16.63-27.86,4.13-9.23,13.8-24.23,26.07-18.29,9.68,4.69,10.08,18.48,7.42,27.36-6.91,23.12-32,33.16-54.18,34.12a101.82,101.82,0,0,1-21.24-1.4l.15,0A55.81,55.81,0,0,0,895.24,249.74Z"/><path class="cls-3" d="M820.14,68.77c-7.19-1.63-14.51.6-21.64-.77-5.18-1-9.75-4.25-8.29-10.24.88-3.63,3.67-6.76,6.75-8.73,13.52-8.68,28.71.53,35.69,12.91a48,48,0,0,1,5.7,18.5A32.28,32.28,0,0,0,820.14,68.77Z"/><path class="cls-3" d="M490.8,119.78c9.47,29.59,31.21,53.06,57.61,68.73,58.53,34.72,131.33,29.82,192.51,5.11,3.34-1.36,6.71-2.76,10.08-4.21,1,.84,2.1,1.63,3.09,2.51,17.13,15.11,31.24,33.16,49.2,47.41a170.76,170.76,0,0,0,27.86,18,50.13,50.13,0,0,0,12.14,5.57c26.66,10.94,56.35,14,82.51.39,16.7-8.71,30.29-26.89,27.6-46.52C951,199.1,934,189.48,918.86,200.67c-8.82,6.52-12.35,16.8-16.62,26.44-4.54,10.24-11,18.83-20.77,24.62a48.8,48.8,0,0,1-34,5.63c-27-10.72-50.23-31.11-70.4-52.32-6.19-6.5-12.51-12.85-19.22-18.68,23.53-10.63,46.79-24,64.1-42.77,19.34-21,31.2-52.44,19.54-80.11-4.82-11.45-14.36-22.11-27-24.55-10.72-2.07-23.16,2-28.94,11.68-6.94,11.59.19,22.94,12.86,24.64,7.85,1,15.79-1.34,23.41,1.57a27.46,27.46,0,0,1,16,17.27,3.17,3.17,0,0,0,.44.79,71,71,0,0,1-2.61,11.89c-8.43,26.93-31.14,45.52-54.69,59.22a329.56,329.56,0,0,1-29.35,15.18,107.67,107.67,0,0,0-22.78-13.93,135.13,135.13,0,0,0-55.9-11c-21.5.25-41.78,5.93-62.11,12.45-22.07,7.07-43.56,11.63-66.5,8.29-3.61-2.49-7.16-5.1-10.58-7.95-21.26-17.76-37.43-42.17-40.47-70.16-2.93-27,6.54-54.74,28.7-71.33,21.83-16.35,51.09-15.86,76-7.39a95.09,95.09,0,0,1,45.2,32.51,11.57,11.57,0,0,0-3.68,4,14.51,14.51,0,0,0-1.17,3.18,15.35,15.35,0,0,0-.66,8.78,13.43,13.43,0,0,0,1.81,4.35,16,16,0,0,0,3,3.63,17.77,17.77,0,0,0,3.91,2.69,18.13,18.13,0,0,0,6.4,1.81,11.21,11.21,0,0,0,2.77-.25,5.09,5.09,0,0,0,.67-.18,7.76,7.76,0,0,0,3-1.62,10.42,10.42,0,0,0,2.29-2.48,12.46,12.46,0,0,0,1.39-3c.2-.52.37-1.06.52-1.6a22.51,22.51,0,0,0,.78-6.86c0-.25.06-.51.08-.76a12.89,12.89,0,0,0-.31-3.16c-.62-3.55-3.12-6.47-6-8.48a10.59,10.59,0,0,0-4-1.73,17.07,17.07,0,0,0-2.13-.21c-.33,0-.66-.07-1-.1h-.16a8.92,8.92,0,0,0-1.46,0c-.27,0-.53.1-.81.13C635.47,30.53,611.84,17.27,589,11.87c-31.43-7.43-63.81-1-84.7,24.9C485.43,60.22,481.75,91.5,490.8,119.78Zm64.94,64.35c19.75,2.33,40.65-4,59.29-9.45,25.27-7.42,49.82-13.4,76.35-10.15a118.63,118.63,0,0,1,52.86,19.8,292.63,292.63,0,0,1-44.62,14.95C652.26,210.87,598.7,208.3,555.74,184.13Z"/><path class="cls-3" d="M719.5,195.63c33.59,15.38,75.1,7.31,109.11-2.9,16.3-4.9,32.49-12,44.83-24,13.79-13.47,19.63-32.23,25.19-50.17,5.72-18.5,9.86-37.42,15.57-55.9C919.07,46.86,925.75,31.4,937,19.12,947.25,8,961.15.41,976.48,0c13.62-.35,29.24,5.73,35.18,18.8,6.38,14-4.66,29.48-20.21,25.29-8.87-2.4-15-9.85-22.66-14.49s-16.62-7.6-25-5.75c-7.32,7.69-12.79,17.25-16.75,27-9.4,23-14.09,47.77-21.89,71.4a112.23,112.23,0,0,1,21.06-17.62c19-12.3,43.42-19.15,65.9-14.07,20.58,4.66,37.8,22.53,35.18,44.71-1,8.62-5.85,18.39-14.43,21.66-8.78,3.35-16.62-3.14-15.14-12.25,2.2-13.53,5-30.92-8.33-40-6.58-4.49-16.27-5.85-24-6.55a49.71,49.71,0,0,0-11.15.47,95.2,95.2,0,0,0-19.26,7.93,98.56,98.56,0,0,0-26.46,21.22,120,120,0,0,0-12.8,18.38c-.92,1.91-1.87,3.81-2.88,5.69-14.59,27.09-41.08,40.65-69.88,48.14-33.93,8.83-72.66,15.28-105.3-1.09C715.47,197.75,717.36,194.65,719.5,195.63Z"/></g></g></svg>