<svg xmlns="http://www.w3.org/2000/svg" viewBox="0 0 2070.39 52.53"><defs><style>.cls-1{fill:#a29050;}</style></defs><g id="Layer_2" data-name="Layer 2"><g id="Layer_1-2" data-name="Layer 1"><path class="cls-1" d="M3.29,3.62c.33-.87,1.21-1.31,2.64-1.31H30.41c1.43,0,2.3.44,2.63,1.31l3.3,7.91a.23.23,0,0,1,0,.16v.06c0,.07-.22.25-.66.55a1.71,1.71,0,0,1-.71.11c-.59,0-.93-.08-1-.22H34L32.88,10.7A29.14,29.14,0,0,0,28.65,6h.06a13,13,0,0,0-7.58-2.25h-.38V37.38c0,1.46.29,2.42.88,2.85a4.08,4.08,0,0,0,2.58.94h-.06c1,0,1.54.25,1.54.77s-.51.77-1.54.77h-12c-1,0-1.54-.26-1.54-.77s.51-.77,1.54-.77h-.06a4.13,4.13,0,0,0,2.58-.94c.59-.43.88-1.39.88-2.85V3.79H15.2A12.93,12.93,0,0,0,7.63,6h0A29.73,29.73,0,0,0,3.46,10.7L2.31,12.19a1.55,1.55,0,0,1-1,.22,1.54,1.54,0,0,1-.66-.11C.22,12,0,11.82,0,11.75v-.22Z"/><path class="cls-1" d="M39.79,3.13c0-.51.52-.77,1.54-.77H54.89c1,0,1.54.26,1.54.77s-.52.77-1.54.77h0a12.49,12.49,0,0,0-1.61.19,3.37,3.37,0,0,0-1.27.49,2.2,2.2,0,0,0-.79,1.07A5.36,5.36,0,0,0,51,7.58V20.8H71.47V7.3a4.14,4.14,0,0,0-.31-1.76,2.56,2.56,0,0,0-.85-1A2.92,2.92,0,0,0,69.05,4a8.89,8.89,0,0,0-1.48-.11c-1,0-1.54-.26-1.54-.77s.51-.77,1.54-.77h13.5c1,0,1.54.26,1.54.77s-.51.77-1.54.77h.06a11.56,11.56,0,0,0-1.59.19,3.36,3.36,0,0,0-1.24.49,2.28,2.28,0,0,0-.8,1.07,5.62,5.62,0,0,0-.27,1.93v30a5.52,5.52,0,0,0,.27,1.92,2.23,2.23,0,0,0,.8,1.07,3.19,3.19,0,0,0,1.24.49,11.47,11.47,0,0,0,1.59.2h-.06c1,0,1.54.25,1.54.77s-.51.76-1.54.76H67.57c-1,0-1.54-.25-1.54-.76s.51-.77,1.54-.77h-.06a11.64,11.64,0,0,0,1.65-.2,3.19,3.19,0,0,0,1.24-.49,2.22,2.22,0,0,0,.79-1.07,5.49,5.49,0,0,0,.28-1.92V22.5H51V37.6a5.26,5.26,0,0,0,.28,1.92,2.16,2.16,0,0,0,.79,1.07,3.21,3.21,0,0,0,1.27.49,12.42,12.42,0,0,0,1.61.2h0c1,0,1.54.25,1.54.77s-.52.76-1.54.76H41.33c-1,0-1.54-.25-1.54-.76s.52-.77,1.54-.77h0a11.67,11.67,0,0,0,1.64-.2,3.19,3.19,0,0,0,1.24-.49A2.16,2.16,0,0,0,45,39.52a5.26,5.26,0,0,0,.28-1.92V7.3a4.32,4.32,0,0,0-.3-1.76,2.64,2.64,0,0,0-.85-1A3,3,0,0,0,42.81,4a8.89,8.89,0,0,0-1.48-.11C40.31,3.9,39.79,3.64,39.79,3.13Z"/><path class="cls-1" d="M88.7,41.17a4.08,4.08,0,0,0,2.58-.94c.59-.43.88-1.39.88-2.85v-30a3.66,3.66,0,0,0-.8-2.69,4.14,4.14,0,0,0-2.71-.88h0c-1,0-1.48-.26-1.48-.77s.49-.71,1.48-.71h27c1.42,0,2.3.44,2.63,1.31l3.24,7.91a.34.34,0,0,1,.11.16l.06.06-.72.55a1.74,1.74,0,0,1-.71.11,1.69,1.69,0,0,1-1-.22h.06l-1.21-1.49A22.83,22.83,0,0,0,114,6H114a13,13,0,0,0-7.58-2.25H97.37v17h7.69a5.94,5.94,0,0,0,2.52-.46A3.83,3.83,0,0,0,109.15,19a5.7,5.7,0,0,0,.82-2,13.82,13.82,0,0,0,.3-2.53c0-.47.5-.71,1.48-.71s1.49.24,1.49.71V28.93c0,.47-.5.71-1.49.71s-1.48-.24-1.48-.71q-.1-3.46-1.37-4.72a4.85,4.85,0,0,0-3.84-1.71H97.37V37.38c0,1.46.26,2.42.77,2.85a4.59,4.59,0,0,0,2.91.94h5.22a15.24,15.24,0,0,0,4.47-.61,13.71,13.71,0,0,0,3.65-1.7,16.6,16.6,0,0,0,3.07-2.66,33.12,33.12,0,0,0,2.8-3.54,2.19,2.19,0,0,1,1.16-.22,1.89,1.89,0,0,1,.76.11c.48.29.72.48.72.55l-3.19,8.29a2,2,0,0,1-1,1,3.64,3.64,0,0,1-1.65.36H88.76c-1,0-1.54-.26-1.54-.77s.51-.77,1.54-.77Z"/><path class="cls-1" d="M142.71,41.17a3.6,3.6,0,0,0,2.69-1.05,4.73,4.73,0,0,0,.77-3V7.52c0-1.46-.34-2.43-1-2.91a4.92,4.92,0,0,0-2.5-.82h.05c-1,0-1.48-.26-1.48-.77s.49-.71,1.48-.71h16.2a23.59,23.59,0,0,1,8.56,1.48A18.8,18.8,0,0,1,174,7.93a18.29,18.29,0,0,1,4.14,6.37,22.13,22.13,0,0,1,1.46,8.15,22.36,22.36,0,0,1-1.46,8.18A18.1,18.1,0,0,1,174,37a19.09,19.09,0,0,1-6.5,4.18,23.35,23.35,0,0,1-8.59,1.51H142.77c-1,0-1.54-.26-1.54-.77s.51-.77,1.54-.77Zm9.22-37.38V37.11a4.69,4.69,0,0,0,.83,3.18,3.78,3.78,0,0,0,2.85.88h3.3a12.5,12.5,0,0,0,6.44-1.62A14.48,14.48,0,0,0,170,35.29a19.77,19.77,0,0,0,2.77-6,25.77,25.77,0,0,0,0-13.72,19.77,19.77,0,0,0-2.77-6,14.16,14.16,0,0,0-4.62-4.23,12.68,12.68,0,0,0-6.44-1.59Z"/><path class="cls-1" d="M186.29,41.17a4.08,4.08,0,0,0,2.58-.94c.59-.43.88-1.39.88-2.85v-30A3.66,3.66,0,0,0,189,4.67a4.17,4.17,0,0,0-2.72-.88h0c-1,0-1.48-.26-1.48-.77s.5-.71,1.48-.71h27c1.43,0,2.31.44,2.64,1.31l3.23,7.91a.27.27,0,0,1,.11.16l.06.06-.72.55a1.71,1.71,0,0,1-.71.11,1.63,1.63,0,0,1-1-.22h0l-1.2-1.49A22.8,22.8,0,0,0,211.54,6h.06A13,13,0,0,0,204,3.79H195v17h7.68a6,6,0,0,0,2.53-.46A3.74,3.74,0,0,0,206.74,19a5.52,5.52,0,0,0,.82-2,14.71,14.71,0,0,0,.31-2.53c0-.47.49-.71,1.48-.71s1.48.24,1.48.71V28.93c0,.47-.49.71-1.48.71s-1.48-.24-1.48-.71c-.08-2.31-.53-3.88-1.38-4.72a4.84,4.84,0,0,0-3.84-1.71H195V37.38c0,1.46.25,2.42.77,2.85a4.55,4.55,0,0,0,2.9.94h5.22a15.15,15.15,0,0,0,4.47-.61,13.43,13.43,0,0,0,3.65-1.7,17,17,0,0,0,3.08-2.66,34.43,34.43,0,0,0,2.8-3.54,2.15,2.15,0,0,1,1.15-.22,2,2,0,0,1,.77.11c.47.29.71.48.71.55l-3.18,8.29a2.1,2.1,0,0,1-1,1,3.64,3.64,0,0,1-1.65.36H186.35c-1,0-1.54-.26-1.54-.77s.51-.77,1.54-.77Z"/><path class="cls-1" d="M224.94,41.94c0-.52.51-.77,1.53-.77h-.05a4.13,4.13,0,0,0,2.58-.94c.58-.43.88-1.39.88-2.85v-30a3.66,3.66,0,0,0-.8-2.69,4.15,4.15,0,0,0-2.72-.88h.06c-1,0-1.48-.26-1.48-.77s.49-.71,1.48-.71h12.13c1,0,1.48.23,1.48.71s-.49.77-1.48.77h0a4.14,4.14,0,0,0-2.71.88,3.66,3.66,0,0,0-.8,2.69v30c0,1.46.26,2.42.77,2.85a4.56,4.56,0,0,0,2.91.94h5.16a15.28,15.28,0,0,0,4.55-.61,13.73,13.73,0,0,0,3.63-1.7,15.82,15.82,0,0,0,3-2.66A41,41,0,0,0,258,32.66a2.15,2.15,0,0,1,1.15-.22,3.84,3.84,0,0,1,.85.16c.39.11.58.28.58.5l-.05.27-3.08,8a2,2,0,0,1-1,1,3.57,3.57,0,0,1-1.64.36H226.47C225.45,42.71,224.94,42.45,224.94,41.94Z"/><path class="cls-1" d="M263,3.13c0-.51.51-.77,1.53-.77h13.56c1,0,1.54.26,1.54.77s-.52.77-1.54.77h.05a12.49,12.49,0,0,0-1.61.19,3.37,3.37,0,0,0-1.27.49,2.2,2.2,0,0,0-.79,1.07,5.36,5.36,0,0,0-.28,1.93V20.8h20.48V7.3a4.14,4.14,0,0,0-.31-1.76,2.56,2.56,0,0,0-.85-1A2.92,2.92,0,0,0,292.23,4a8.89,8.89,0,0,0-1.48-.11c-1,0-1.54-.26-1.54-.77s.51-.77,1.54-.77h13.5c1,0,1.54.26,1.54.77s-.51.77-1.54.77h.06a11.56,11.56,0,0,0-1.59.19,3.36,3.36,0,0,0-1.24.49,2.28,2.28,0,0,0-.8,1.07,5.62,5.62,0,0,0-.27,1.93v30a5.52,5.52,0,0,0,.27,1.92,2.23,2.23,0,0,0,.8,1.07,3.19,3.19,0,0,0,1.24.49,11.47,11.47,0,0,0,1.59.2h-.06c1,0,1.54.25,1.54.77s-.51.76-1.54.76h-13.5c-1,0-1.54-.25-1.54-.76s.51-.77,1.54-.77h-.06a11.64,11.64,0,0,0,1.65-.2,3.19,3.19,0,0,0,1.24-.49,2.22,2.22,0,0,0,.79-1.07,5.49,5.49,0,0,0,.28-1.92V22.5H274.17V37.6a5.26,5.26,0,0,0,.28,1.92,2.16,2.16,0,0,0,.79,1.07,3.21,3.21,0,0,0,1.27.49,12.42,12.42,0,0,0,1.61.2h-.05c1,0,1.54.25,1.54.77s-.52.76-1.54.76H264.51c-1,0-1.53-.25-1.53-.76s.51-.77,1.53-.77h-.05a11.67,11.67,0,0,0,1.64-.2,3.19,3.19,0,0,0,1.24-.49,2.16,2.16,0,0,0,.79-1.07,5.26,5.26,0,0,0,.28-1.92V7.3a4.32,4.32,0,0,0-.3-1.76,2.64,2.64,0,0,0-.85-1A3,3,0,0,0,266,4a8.89,8.89,0,0,0-1.48-.11C263.49,3.9,263,3.64,263,3.13Z"/><path class="cls-1" d="M323.85,2.36c1,0,1.53.26,1.53.77s-.51.77-1.53.77h0a12.87,12.87,0,0,0-1.62.19,3.39,3.39,0,0,0-1.26.49,2.2,2.2,0,0,0-.79,1.07A5.36,5.36,0,0,0,320,7.58v30a5.26,5.26,0,0,0,.28,1.92,2.16,2.16,0,0,0,.79,1.07,3.23,3.23,0,0,0,1.26.49,12.81,12.81,0,0,0,1.62.2h0c1,0,1.53.25,1.53.77s-.51.76-1.53.76H310.29c-1,0-1.48-.25-1.48-.76s.49-.77,1.48-.77h-.05a11.67,11.67,0,0,0,1.64-.2,3.19,3.19,0,0,0,1.24-.49,2.22,2.22,0,0,0,.79-1.07,5.26,5.26,0,0,0,.28-1.92v-30a5.36,5.36,0,0,0-.28-1.93,2.27,2.27,0,0,0-.79-1.07,3.37,3.37,0,0,0-1.27-.49,12.49,12.49,0,0,0-1.61-.19h.05c-1,0-1.48-.26-1.48-.77s.49-.77,1.48-.77Z"/><path class="cls-1" d="M341.91,41.94c0-.52.51-.77,1.53-.77h-.05a4.13,4.13,0,0,0,2.58-.94c.58-.43.88-1.39.88-2.85v-30a3.66,3.66,0,0,0-.8-2.69,4.17,4.17,0,0,0-2.72-.88h.06c-1,0-1.48-.26-1.48-.77s.49-.71,1.48-.71h12.13c1,0,1.48.23,1.48.71s-.49.77-1.48.77h.05a4.14,4.14,0,0,0-2.71.88,3.66,3.66,0,0,0-.8,2.69v30c0,1.46.26,2.42.77,2.85a4.56,4.56,0,0,0,2.91.94h5.16a15.28,15.28,0,0,0,4.55-.61,13.73,13.73,0,0,0,3.63-1.7,16.12,16.12,0,0,0,3-2.66A41,41,0,0,0,375,32.66a2.15,2.15,0,0,1,1.15-.22,3.84,3.84,0,0,1,.85.16c.39.11.58.28.58.5l0,.27-3.08,8a2,2,0,0,1-1,1,3.57,3.57,0,0,1-1.64.36H343.44C342.42,42.71,341.91,42.45,341.91,41.94Z"/><path class="cls-1" d="M398.94,1.37a18,18,0,0,1,8.23,1.79A17.67,17.67,0,0,1,413,7.88a19.67,19.67,0,0,1,3.52,6.75,27.55,27.55,0,0,1,1.15,7.93,26.44,26.44,0,0,1-1.18,7.88A20.34,20.34,0,0,1,413,37.19a17.33,17.33,0,0,1-14.05,6.5,16.58,16.58,0,0,1-8-1.84,17.51,17.51,0,0,1-5.68-4.8,20.53,20.53,0,0,1-3.4-6.75,27.1,27.1,0,0,1-1.13-7.74,27.89,27.89,0,0,1,1.13-7.93,20.15,20.15,0,0,1,3.4-6.75,16.73,16.73,0,0,1,13.7-6.51Zm0,40.79a10.4,10.4,0,0,0,4.31-.86,10.8,10.8,0,0,0,3.32-2.3A13.62,13.62,0,0,0,409,35.6a23.53,23.53,0,0,0,1.62-4.12,28.77,28.77,0,0,0,.91-4.45,36,36,0,0,0-.36-11.11A22.35,22.35,0,0,0,409,9.55a13.86,13.86,0,0,0-4-4.77,9.79,9.79,0,0,0-6.09-1.87A9.09,9.09,0,0,0,393,4.83a13.62,13.62,0,0,0-3.79,4.83,24.21,24.21,0,0,0-2,6.37,37.59,37.59,0,0,0-.61,6.59,38,38,0,0,0,.58,6.34,23.83,23.83,0,0,0,2,6.36A14.23,14.23,0,0,0,393,40.21,9.1,9.1,0,0,0,398.94,42.16Z"/><path class="cls-1" d="M438,2.36c1,0,1.53.26,1.53.77S439,3.9,438,3.9h.05a6.43,6.43,0,0,0-3.18.77h.05c-.51.29-.76,1.13-.76,2.52v23a12.45,12.45,0,0,0,.85,4.7,10.89,10.89,0,0,0,2.36,3.65A10.14,10.14,0,0,0,441,41a13,13,0,0,0,4.72.82A12.45,12.45,0,0,0,453.61,39q3.18-2.53,3.18-9V7.19c0-1.39-.26-2.23-.77-2.52A6.2,6.2,0,0,0,453,3.9c-1,0-1.54-.26-1.54-.77s.51-.77,1.54-.77h10.87c1,0,1.53.26,1.53.77s-.51.77-1.53.77a6.21,6.21,0,0,0-3.08.77C460.23,5,460,5.8,460,7.19V30.35a13.83,13.83,0,0,1-1.12,5.74,11.29,11.29,0,0,1-3.21,4.2,14.51,14.51,0,0,1-5,2.58,23.2,23.2,0,0,1-6.61.88,19.1,19.1,0,0,1-6-.94,14.52,14.52,0,0,1-5-2.71,12.74,12.74,0,0,1-3.35-4.42,14,14,0,0,1-1.24-6V7.19c0-1.35-.24-2.19-.71-2.52a6.26,6.26,0,0,0-3.19-.77c-1,0-1.53-.26-1.53-.77s.51-.77,1.53-.77Z"/><path class="cls-1" d="M479.35,2.31,503.5,34.2V6.86a3.38,3.38,0,0,0-.3-1.56,2.34,2.34,0,0,0-.82-.91A3.32,3.32,0,0,0,501.22,4c-.42-.07-.85-.13-1.29-.16H500c-1,0-1.48-.26-1.48-.77s.49-.71,1.48-.71h10.26c1,0,1.48.25,1.48.76s-.49.72-1.48.72h.06c-.41,0-.82.09-1.24.16a3,3,0,0,0-1.12.44,2.6,2.6,0,0,0-.83.93,3.22,3.22,0,0,0-.33,1.54V43h-3.12L478.25,9.17V37.49q0,2.35.72,2.91a4.49,4.49,0,0,0,2.74.88h-.06c1,0,1.54.25,1.54.77s-.51.76-1.54.76H471.5c-1,0-1.54-.25-1.54-.76s.52-.77,1.54-.77h-.05a4.33,4.33,0,0,0,2.63-.88c.55-.44.82-1.41.82-2.91V7.63a4.19,4.19,0,0,0-.79-2.88,3.91,3.91,0,0,0-2.72-1h.06c-1,0-1.49-.26-1.49-.77s.5-.71,1.49-.71Z"/><path class="cls-1" d="M535.5,1.37a21.74,21.74,0,0,1,4.15.36,22.79,22.79,0,0,1,3.81,1.12l2.36-.76a3.09,3.09,0,0,1,.82-.11c1.07,0,1.74.34,2,1l3.24,8.45h0a.35.35,0,0,1,.11.22l0,.06a4.84,4.84,0,0,1-.93.49l-.25,0a1.39,1.39,0,0,1-.3,0c-.66,0-1-.11-1.15-.33l.05,0a42.61,42.61,0,0,0-2.8-3.48,19.26,19.26,0,0,0-3.18-2.91,15.2,15.2,0,0,0-3.65-2,11.81,11.81,0,0,0-4.2-.74,9.27,9.27,0,0,0-4.12.88,10.14,10.14,0,0,0-3.15,2.36A14.51,14.51,0,0,0,526,9.61a22.26,22.26,0,0,0-1.53,4.14,31.5,31.5,0,0,0-.85,4.39,33,33,0,0,0-.28,4.2,25.73,25.73,0,0,0,.88,6.7,19,19,0,0,0,2.66,5.9,14.29,14.29,0,0,0,4.47,4.22,12,12,0,0,0,6.32,1.62,11.79,11.79,0,0,0,4.2-.71,13.75,13.75,0,0,0,3.54-2l-.33.06V25.58a3.75,3.75,0,0,0-.83-2.86,4.11,4.11,0,0,0-2.41-.82h0c-1,0-1.53-.25-1.53-.77s.51-.77,1.53-.77h12.13c1,0,1.54.26,1.54.77s-.51.77-1.54.77h.06a4.14,4.14,0,0,0-2.42.82,3.8,3.8,0,0,0-.82,2.86v18c0,.14-.35.22-1,.22a2.83,2.83,0,0,1-1.05-.28l-2.9-2.36a15,15,0,0,1-4.18,2,18.34,18.34,0,0,1-5.27.69,17.49,17.49,0,0,1-14.18-6.59,20.3,20.3,0,0,1-3.6-6.83,26.55,26.55,0,0,1-1.21-8,25.64,25.64,0,0,1,1.16-7.55A21.18,21.18,0,0,1,522,8.07a17.63,17.63,0,0,1,5.62-4.83A16.11,16.11,0,0,1,535.5,1.37Z"/><path class="cls-1" d="M561.24,41.17a4.08,4.08,0,0,0,2.58-.94c.59-.43.88-1.39.88-2.85v-30a3.66,3.66,0,0,0-.79-2.69,4.17,4.17,0,0,0-2.72-.88h0c-1,0-1.48-.26-1.48-.77s.5-.71,1.48-.71h27c1.43,0,2.31.44,2.63,1.31l3.24,7.91a.27.27,0,0,1,.11.16l.06.06-.72.55a1.71,1.71,0,0,1-.71.11,1.63,1.63,0,0,1-1-.22h0l-1.2-1.49A22.8,22.8,0,0,0,586.49,6h.06A13,13,0,0,0,579,3.79h-9.05v17h7.68a6,6,0,0,0,2.53-.46A3.74,3.74,0,0,0,581.69,19a5.52,5.52,0,0,0,.82-2,14.71,14.71,0,0,0,.31-2.53c0-.47.49-.71,1.48-.71s1.48.24,1.48.71V28.93c0,.47-.49.71-1.48.71s-1.48-.24-1.48-.71c-.08-2.31-.53-3.88-1.38-4.72a4.84,4.84,0,0,0-3.84-1.71h-7.68V37.38c0,1.46.25,2.42.77,2.85a4.55,4.55,0,0,0,2.9.94h5.22a15.15,15.15,0,0,0,4.47-.61,13.57,13.57,0,0,0,3.65-1.7A17,17,0,0,0,590,36.2a34.43,34.43,0,0,0,2.8-3.54,2.15,2.15,0,0,1,1.15-.22,2,2,0,0,1,.77.11c.47.29.71.48.71.55l-3.18,8.29a2.1,2.1,0,0,1-1,1,3.64,3.64,0,0,1-1.65.36H561.3c-1,0-1.54-.26-1.54-.77s.51-.77,1.54-.77Z"/><path class="cls-1" d="M601.26,51.1a8.22,8.22,0,0,0,1.1-1.07,15.87,15.87,0,0,0,1.18-1.56,9.83,9.83,0,0,0,1-1.95,6.82,6.82,0,0,0,.38-2.28,3,3,0,0,0-.19-1.1,1,1,0,0,0-.47-.6h-.05l-.94-.41a6.34,6.34,0,0,1-1.09-.66,3.63,3.63,0,0,1-.94-1,2.81,2.81,0,0,1-.38-1.46,2.28,2.28,0,0,1,1-1.86,4.67,4.67,0,0,1,2.89-.77,6.18,6.18,0,0,1,3.67,1.31,5.46,5.46,0,0,1,1.38,1.68,4.89,4.89,0,0,1,.55,2.33,9,9,0,0,1-.61,3.3,12.07,12.07,0,0,1-1.62,2.88,16.24,16.24,0,0,1-2.3,2.47,17.41,17.41,0,0,1-2.72,1.95,2.26,2.26,0,0,1-.41.19,2.51,2.51,0,0,1-.69.08c-1,0-1.48-.18-1.48-.55a.5.5,0,0,1,.14-.27,6.65,6.65,0,0,1,.68-.61Z"/><path class="cls-1" d="M631.61,41.17a3.6,3.6,0,0,0,2.69-1.05,4.73,4.73,0,0,0,.77-3V7.52q0-2.19-1-2.91a4.85,4.85,0,0,0-2.49-.82h.05c-1,0-1.48-.26-1.48-.77s.49-.71,1.48-.71H647.8a23.6,23.6,0,0,1,8.57,1.48,18.8,18.8,0,0,1,6.53,4.14A18.29,18.29,0,0,1,667,14.3a22.13,22.13,0,0,1,1.46,8.15A22.36,22.36,0,0,1,667,30.63,18.1,18.1,0,0,1,662.9,37a19.09,19.09,0,0,1-6.5,4.18,23.37,23.37,0,0,1-8.6,1.51H631.67c-1,0-1.54-.26-1.54-.77s.51-.77,1.54-.77Zm9.22-37.38V37.11a4.69,4.69,0,0,0,.83,3.18,3.78,3.78,0,0,0,2.85.88h3.29a12.51,12.51,0,0,0,6.45-1.62,14.48,14.48,0,0,0,4.62-4.26,19.77,19.77,0,0,0,2.77-6,25.77,25.77,0,0,0,0-13.72,19.77,19.77,0,0,0-2.77-6,14.16,14.16,0,0,0-4.62-4.23,12.69,12.69,0,0,0-6.45-1.59Z"/><path class="cls-1" d="M673.33,37.11a5.66,5.66,0,0,1,1-3.24,10,10,0,0,1,2.5-2.53,18,18,0,0,1,3.48-1.92,32.42,32.42,0,0,1,4-1.37q2-.56,3.87-.93c1.25-.26,2.33-.46,3.24-.61v-4a6.64,6.64,0,0,0-1.12-4.14A4.15,4.15,0,0,0,686.72,17a10.21,10.21,0,0,0-3.05.33,2.14,2.14,0,0,0-1.26.88,2.38,2.38,0,0,0-.3,1.15q0,.16.06.66c0,.33.05.81.05,1.43a2.45,2.45,0,0,1-1.15,2.22,4.45,4.45,0,0,1-2.42.74,3.92,3.92,0,0,1-2.61-.85,2.66,2.66,0,0,1-1-2.11,3.68,3.68,0,0,1,.6-1.92,6.48,6.48,0,0,1,1.92-1.87A11.66,11.66,0,0,1,681,16.19a20.34,20.34,0,0,1,5-.55,18.76,18.76,0,0,1,3.9.42,12.45,12.45,0,0,1,3.56,1.29,7.73,7.73,0,0,1,2.61,2.3,5.7,5.7,0,0,1,1,3.4v17.4a4.81,4.81,0,0,0,.24,1.43c.17.51.45.77.85.77v.44a4.38,4.38,0,0,1-1.12.47,4.72,4.72,0,0,1-1.13.19,6.17,6.17,0,0,1-3.29-.66A2.94,2.94,0,0,1,691.44,41a14.63,14.63,0,0,1-3.9,2.11,16.8,16.8,0,0,1-8.37.3,9.65,9.65,0,0,1-3-1.18,6.33,6.33,0,0,1-2.09-2.06A5.51,5.51,0,0,1,673.33,37.11Zm18,1.26V28.21a28.41,28.41,0,0,0-3.81.8,17.14,17.14,0,0,0-4,1.62,10,10,0,0,0-3.1,2.61A5.83,5.83,0,0,0,679.2,37a3.94,3.94,0,0,0,1.35,3.37,5.06,5.06,0,0,0,3.15,1,10.89,10.89,0,0,0,4-.69A12.54,12.54,0,0,0,691.33,38.37Z"/><path class="cls-1" d="M701.92,41.28a2.54,2.54,0,0,0,1.68-.72,3.19,3.19,0,0,0,.58-2.19v-32c0-1.14-.08-1.7-.22-1.7a2.13,2.13,0,0,0-1.05.6,1.73,1.73,0,0,1-.93.27,2.48,2.48,0,0,1-.88-.16c-.29-.11-.46-.26-.49-.44a3.32,3.32,0,0,1,.66-.55l6-4.22a1.85,1.85,0,0,1,.94-.17,2.08,2.08,0,0,1,1.23.33,1,1,0,0,1,.47.88V38.37a3,3,0,0,0,.63,2.22,3,3,0,0,0,1.78.69h-.05c1,0,1.54.25,1.54.77s-.52.76-1.54.76H702c-1,0-1.54-.25-1.54-.76,0-.33.48-.59,1.43-.77Z"/><path class="cls-1" d="M717.84,41.28a2.54,2.54,0,0,0,1.68-.72,3.2,3.2,0,0,0,.57-2.19v-32c0-1.14-.07-1.7-.22-1.7a2.11,2.11,0,0,0-1,.6,1.73,1.73,0,0,1-.93.27,2.44,2.44,0,0,1-.88-.16c-.29-.11-.46-.26-.49-.44a3.42,3.42,0,0,1,.65-.55l6-4.22a1.85,1.85,0,0,1,.94-.17,2.08,2.08,0,0,1,1.23.33,1,1,0,0,1,.47.88V38.37a3,3,0,0,0,.63,2.22,2.92,2.92,0,0,0,1.78.69h0c1,0,1.53.25,1.53.77s-.51.76-1.53.76H717.9c-1,0-1.54-.25-1.54-.76,0-.33.48-.59,1.43-.77Z"/><path class="cls-1" d="M732.33,37.11a5.66,5.66,0,0,1,1-3.24,10.16,10.16,0,0,1,2.5-2.53,18.41,18.41,0,0,1,3.49-1.92,31.84,31.84,0,0,1,4-1.37q2-.56,3.87-.93c1.24-.26,2.32-.46,3.24-.61v-4a6.64,6.64,0,0,0-1.13-4.14A4.13,4.13,0,0,0,745.73,17a10.17,10.17,0,0,0-3.05.33,2.14,2.14,0,0,0-1.26.88,2.38,2.38,0,0,0-.3,1.15,5.88,5.88,0,0,0,0,.66,12.81,12.81,0,0,1,.06,1.43,2.46,2.46,0,0,1-1.16,2.22,4.42,4.42,0,0,1-2.41.74,3.92,3.92,0,0,1-2.61-.85,2.65,2.65,0,0,1-1-2.11,3.69,3.69,0,0,1,.61-1.92,6.25,6.25,0,0,1,1.92-1.87,11.59,11.59,0,0,1,3.4-1.43,20.4,20.4,0,0,1,5-.55,18.76,18.76,0,0,1,3.9.42,12.4,12.4,0,0,1,3.57,1.29,7.6,7.6,0,0,1,2.6,2.3,5.7,5.7,0,0,1,1,3.4v17.4a4.54,4.54,0,0,0,.25,1.43c.16.51.44.77.85.77v.44a4.47,4.47,0,0,1-1.13.47,4.65,4.65,0,0,1-1.12.19,6.18,6.18,0,0,1-3.3-.66,2.93,2.93,0,0,1-1.2-2.14,14.63,14.63,0,0,1-3.9,2.11,16.8,16.8,0,0,1-8.37.3,9.61,9.61,0,0,1-3-1.18,6.3,6.3,0,0,1-2.08-2.06A5.52,5.52,0,0,1,732.33,37.11Zm18,1.26V28.21a28.21,28.21,0,0,0-3.82.8,17.32,17.32,0,0,0-4,1.62,10.13,10.13,0,0,0-3.1,2.61A5.88,5.88,0,0,0,738.21,37a3.93,3.93,0,0,0,1.34,3.37,5.09,5.09,0,0,0,3.16,1,10.83,10.83,0,0,0,4-.69A12.71,12.71,0,0,0,750.34,38.37Z"/><path class="cls-1" d="M762,34.86a1.77,1.77,0,0,1,1.21.49A29.24,29.24,0,0,0,765.49,38a16.07,16.07,0,0,0,2.6,2.23A13.73,13.73,0,0,0,771,41.74a9,9,0,0,0,3.24.58,4.11,4.11,0,0,0,3.29-1.48,5.81,5.81,0,0,0,1.37-3.57v-.16a3.56,3.56,0,0,0-.65-2.17,5.74,5.74,0,0,0-1.79-1.57,14.31,14.31,0,0,0-2.55-1.15c-1-.33-1.94-.66-3-1q-1.82-.6-3.6-1.23a14.8,14.8,0,0,1-3.24-1.59,7.71,7.71,0,0,1-2.33-2.36,6.32,6.32,0,0,1-.88-3.43,4.88,4.88,0,0,1,1-3.08,8.16,8.16,0,0,1,2.52-2.17,13.74,13.74,0,0,1,3.29-1.29,14.13,14.13,0,0,1,3.33-.44,12,12,0,0,1,2.3.2c.66.12,1.34.28,2,.46a3.87,3.87,0,0,0,.69.17,5.48,5.48,0,0,1,.74.16.22.22,0,0,1,.14,0s0,0,.08,0,.07-.08.22-.11l.77-.33H778a3.14,3.14,0,0,1,1.1-.17c1.06,0,1.7.31,1.92.94.4,1,.81,2.05,1.24,3.07s.83,2.05,1.23,3.07a.3.3,0,0,1,.06.22l.05.06c0,.11-.21.23-.63.35a3.81,3.81,0,0,1-.85.2c-.66,0-1-.09-1.15-.28a16.22,16.22,0,0,0-1.93-2.5,15.1,15.1,0,0,0-2.38-2.08,12,12,0,0,0-2.72-1.43,8.19,8.19,0,0,0-2.85-.52,4.51,4.51,0,0,0-3.13,1c-.77.7-1.16,1.92-1.16,3.68a3.4,3.4,0,0,0,.53,1.87,5.06,5.06,0,0,0,1.4,1.45,10.53,10.53,0,0,0,2,1.13c.76.33,1.59.64,2.47.93,1.28.44,2.59.89,3.95,1.34a19.13,19.13,0,0,1,3.68,1.68,9.23,9.23,0,0,1,2.71,2.44,6,6,0,0,1,1.07,3.65,6.15,6.15,0,0,1-.9,3.35,7.51,7.51,0,0,1-2.33,2.33,10.88,10.88,0,0,1-3.27,1.35,15.83,15.83,0,0,1-3.65.44,11.91,11.91,0,0,1-2.14-.19c-.66-.13-1.3-.29-1.92-.47-.41-.08-.79-.16-1.16-.25l-1-.24a1.12,1.12,0,0,0-.38-.06,1.45,1.45,0,0,0-.5.16l-.93.39a2.7,2.7,0,0,1-1,.16c-1.06,0-1.72-.35-2-1-.4-1.13-.84-2.3-1.32-3.49s-.91-2.35-1.31-3.48a3.11,3.11,0,0,1,.55-.27A2.46,2.46,0,0,1,762,34.86Z"/><path class="cls-1" d="M866.63,3.13c0-.51.51-.77,1.54-.77h18.11a24.74,24.74,0,0,1,5.05.52,15.28,15.28,0,0,1,4.53,1.68,9.49,9.49,0,0,1,3.26,3.07,8.34,8.34,0,0,1,1.27,4.72,9.83,9.83,0,0,1-.85,4.17,9.13,9.13,0,0,1-2.34,3.08,11.25,11.25,0,0,1-3.51,2,17.81,17.81,0,0,1-4.39,1q2.36,4.23,4.75,8.48t4.8,8.54a4.37,4.37,0,0,0,1.92,2,8.25,8.25,0,0,0,2.47.55h0c1,0,1.53.25,1.53.76s-.51.77-1.53.77h-2.25a9.86,9.86,0,0,1-4.86-1.23,8.17,8.17,0,0,1-3.32-3.27l-9-16.47h-5.93V37.33c0,1.53.29,2.52.88,3a5,5,0,0,0,3,1h-.05c1,0,1.54.25,1.54.77s-.52.76-1.54.76h-13.5c-1,0-1.54-.25-1.54-.76s.51-.77,1.54-.77h-.06a10.75,10.75,0,0,0,1.62-.22,2.81,2.81,0,0,0,1.26-.61,2.68,2.68,0,0,0,.8-1.2,5.92,5.92,0,0,0,.27-1.92V7.19a3.24,3.24,0,0,0-.82-2.5,4.87,4.87,0,0,0-3.07-.79C867.14,3.9,866.63,3.64,866.63,3.13Zm11.2,18.06h9.49a7.18,7.18,0,0,0,3.21-.66,6.05,6.05,0,0,0,2.23-1.84,8.11,8.11,0,0,0,1.29-2.8,14.57,14.57,0,0,0,.41-3.54,10.53,10.53,0,0,0-.61-3.79,6.73,6.73,0,0,0-1.72-2.63,7,7,0,0,0-2.67-1.54,11,11,0,0,0-3.4-.49h-8.23Z"/><path class="cls-1" d="M905.93,29.7a15.12,15.12,0,0,1,1-5.52,12.75,12.75,0,0,1,2.83-4.42,13.18,13.18,0,0,1,4.47-2.94,17.35,17.35,0,0,1,11.69-.11,11.19,11.19,0,0,1,6.67,6.76,14.76,14.76,0,0,1,.85,5.13H911.91v1.1a23.48,23.48,0,0,0,.42,4.36,13.91,13.91,0,0,0,1.39,4.06,8.73,8.73,0,0,0,2.58,3,6.48,6.48,0,0,0,3.9,1.16,9.77,9.77,0,0,0,3.32-.61A11.49,11.49,0,0,0,926.6,40,13,13,0,0,0,929,37.52a8.41,8.41,0,0,0,1.43-3l2.85.82a12.46,12.46,0,0,1-4.75,6.07,14.41,14.41,0,0,1-8.37,2.33,15.5,15.5,0,0,1-6-1.1,12.87,12.87,0,0,1-7.33-7.44A15.11,15.11,0,0,1,905.93,29.7ZM927.72,27a13.31,13.31,0,0,0-.47-3.52,10.67,10.67,0,0,0-1.37-3.15,6.87,6.87,0,0,0-2.33-2.25,7,7,0,0,0-6.7,0,8,8,0,0,0-2.41,2.22,11.48,11.48,0,0,0-1.57,3.13,18.39,18.39,0,0,0-.79,3.57Z"/><path class="cls-1" d="M939.63,34.86a1.77,1.77,0,0,1,1.21.49A31,31,0,0,0,943.09,38a16.14,16.14,0,0,0,2.61,2.23,13.43,13.43,0,0,0,2.93,1.53,9.07,9.07,0,0,0,3.24.58,4.13,4.13,0,0,0,3.3-1.48,5.87,5.87,0,0,0,1.37-3.57v-.16a3.56,3.56,0,0,0-.66-2.17,5.7,5.7,0,0,0-1.78-1.57,14.42,14.42,0,0,0-2.56-1.15c-.95-.33-1.94-.66-3-1q-1.82-.6-3.6-1.23a14.5,14.5,0,0,1-3.23-1.59,7.85,7.85,0,0,1-2.34-2.36,6.4,6.4,0,0,1-.88-3.43,4.88,4.88,0,0,1,1-3.08,8.31,8.31,0,0,1,2.53-2.17,13.42,13.42,0,0,1,3.29-1.29,14.05,14.05,0,0,1,3.32-.44,11.86,11.86,0,0,1,2.3.2c.66.12,1.34.28,2,.46a3.76,3.76,0,0,0,.68.17,5.17,5.17,0,0,1,.74.16c.08,0,.12,0,.14,0a.11.11,0,0,0,.08,0s.08-.08.22-.11l.77-.33h0a3.08,3.08,0,0,1,1.09-.17c1.06,0,1.7.31,1.92.94.41,1,.82,2.05,1.24,3.07s.83,2.05,1.23,3.07a.3.3,0,0,1,.06.22l.05.06c0,.11-.21.23-.63.35a3.69,3.69,0,0,1-.85.2c-.66,0-1-.09-1.15-.28a16.8,16.8,0,0,0-1.92-2.5,15.17,15.17,0,0,0-2.39-2.08,12,12,0,0,0-2.72-1.43,8.19,8.19,0,0,0-2.85-.52,4.51,4.51,0,0,0-3.13,1c-.77.7-1.15,1.92-1.15,3.68a3.4,3.4,0,0,0,.52,1.87,5.2,5.2,0,0,0,1.4,1.45,10.53,10.53,0,0,0,2,1.13c.77.33,1.59.64,2.47.93l3.95,1.34a18.85,18.85,0,0,1,3.68,1.68,9.27,9.27,0,0,1,2.72,2.44,6,6,0,0,1,1.07,3.65,6.07,6.07,0,0,1-.91,3.35A7.4,7.4,0,0,1,959,42.07a10.67,10.67,0,0,1-3.27,1.35,15.77,15.77,0,0,1-3.65.44,11.91,11.91,0,0,1-2.14-.19c-.66-.13-1.3-.29-1.92-.47-.4-.08-.79-.16-1.15-.25l-1-.24a1,1,0,0,0-.38-.06,1.41,1.41,0,0,0-.49.16l-.94.39a2.67,2.67,0,0,1-1,.16c-1.06,0-1.72-.35-2-1-.4-1.13-.84-2.3-1.31-3.49s-.92-2.35-1.32-3.48a3.49,3.49,0,0,1,.55-.27A2.46,2.46,0,0,1,939.63,34.86Z"/><path class="cls-1" d="M967.24,16.63a5.17,5.17,0,0,0,2.36-1.15,8.15,8.15,0,0,0,1.79-2.17,14,14,0,0,0,1.2-2.77,15.88,15.88,0,0,0,.63-2.86c.11-.47.61-.71,1.49-.71s1.37.2,1.37.61v8.61H982c1.06,0,1.59.3,1.59.88s-.53.88-1.59.88h-5.93V38c0,2.08.95,3.13,2.85,3.13a3.94,3.94,0,0,0,2.42-1.1,23.16,23.16,0,0,0,2.36-2.25l1.48,1a10.44,10.44,0,0,1-2.94,3.43,7.54,7.54,0,0,1-4.74,1.4,7.42,7.42,0,0,1-5.33-1.78,6.15,6.15,0,0,1-1.86-4.64V18h-2.91Q966,18,966,17.29C966,17,966.44,16.82,967.24,16.63Z"/><path class="cls-1" d="M987.77,37.11a5.66,5.66,0,0,1,1-3.24,10,10,0,0,1,2.5-2.53,18,18,0,0,1,3.48-1.92,32,32,0,0,1,4-1.37q2-.56,3.87-.93c1.24-.26,2.32-.46,3.23-.61v-4a6.64,6.64,0,0,0-1.12-4.14,4.13,4.13,0,0,0-3.49-1.46,10.14,10.14,0,0,0-3,.33,2.2,2.2,0,0,0-1.27.88,2.38,2.38,0,0,0-.3,1.15q0,.16.06.66c0,.33,0,.81,0,1.43a2.45,2.45,0,0,1-1.15,2.22,4.43,4.43,0,0,1-2.42.74,3.88,3.88,0,0,1-2.6-.85,2.65,2.65,0,0,1-1-2.11,3.61,3.61,0,0,1,.61-1.92A6.25,6.25,0,0,1,992,17.62a11.59,11.59,0,0,1,3.4-1.43,20.34,20.34,0,0,1,5.05-.55,18.76,18.76,0,0,1,3.9.42,12.45,12.45,0,0,1,3.56,1.29,7.63,7.63,0,0,1,2.61,2.3,5.7,5.7,0,0,1,1,3.4v17.4a4.81,4.81,0,0,0,.24,1.43c.17.51.45.77.86.77v.44a4.63,4.63,0,0,1-1.13.47,4.72,4.72,0,0,1-1.13.19,6.17,6.17,0,0,1-3.29-.66,2.94,2.94,0,0,1-1.21-2.14,14.73,14.73,0,0,1-3.89,2.11,15.19,15.19,0,0,1-4.94.69,15,15,0,0,1-3.43-.39,9.61,9.61,0,0,1-3-1.18,6.3,6.3,0,0,1-2.08-2.06A5.52,5.52,0,0,1,987.77,37.11Zm18,1.26V28.21a28.41,28.41,0,0,0-3.81.8,17.14,17.14,0,0,0-4,1.62,10.13,10.13,0,0,0-3.1,2.61A5.89,5.89,0,0,0,993.64,37,3.94,3.94,0,0,0,995,40.37a5.06,5.06,0,0,0,3.15,1,10.85,10.85,0,0,0,4-.69A12.54,12.54,0,0,0,1005.77,38.37Z"/><path class="cls-1" d="M1036.46,37.93V22.12c0-1.13-.08-1.7-.22-1.7a3.88,3.88,0,0,0-1.37.82h.11a2.27,2.27,0,0,1-.77.06,2.64,2.64,0,0,1-.77-.17.91.91,0,0,1-.61-.44c0-.11.28-.29.72-.55h-.06c1-.69,2-1.39,3-2.08l3-2.14a1.89,1.89,0,0,1,.93-.17,2.08,2.08,0,0,1,1.23.33,1,1,0,0,1,.47.88V37.65q0,3.41,2.53,3.57,1.2.28,1.2.66c0,.44-.47.66-1.42.66h0c-.44,0-.9.06-1.37.08s-1,.07-1.48.14-1,.06-1.49.08l-1.42.08h-.22a3.19,3.19,0,0,1-1.54-.33,1.09,1.09,0,0,1-.6-1v-1.1a17.53,17.53,0,0,1-4.2,2.36,12.7,12.7,0,0,1-4.8.94,9.36,9.36,0,0,1-6.13-1.81,6.36,6.36,0,0,1-2.16-5.16V22.12c0-1.13-.08-1.7-.22-1.7a3.13,3.13,0,0,0-1.32.82h.11a2.22,2.22,0,0,1-.77.06,2.7,2.7,0,0,1-.77-.17c-.33-.11-.53-.25-.6-.44s.27-.29.71-.55h0l6-4.22a1.89,1.89,0,0,1,.93-.17,2.08,2.08,0,0,1,1.23.33,1,1,0,0,1,.47.88V35.18c0,.81,0,1.58.11,2.31a6.34,6.34,0,0,0,.49,1.95,3.16,3.16,0,0,0,1.13,1.34,3.44,3.44,0,0,0,1.95.5,9.61,9.61,0,0,0,4.11-.85A16.81,16.81,0,0,0,1036.46,37.93Z"/><path class="cls-1" d="M1051.55,42.05c0-.33.48-.59,1.43-.77a2.64,2.64,0,0,0,1.7-.72,3.09,3.09,0,0,0,.6-2.19V22.12c0-1.13-.07-1.7-.22-1.7a2.32,2.32,0,0,0-1.09.6,1.63,1.63,0,0,1-.88.28,2.46,2.46,0,0,1-.88-.17c-.29-.11-.46-.25-.49-.44a3.92,3.92,0,0,1,.65-.55l6-4.22a2,2,0,0,1,.94-.17,2.08,2.08,0,0,1,1.23.33,1,1,0,0,1,.47.88v3c.62-.63,1.28-1.23,2-1.82a21.91,21.91,0,0,1,2.17-1.59,10.83,10.83,0,0,1,2.36-1.12,7.92,7.92,0,0,1,2.55-.41,6,6,0,0,1,3.35.79,2.26,2.26,0,0,1,1.21,1.89,2.56,2.56,0,0,1-1.18,1.95,4.14,4.14,0,0,1-2.44.74,5.86,5.86,0,0,1-1.59-.27,1.9,1.9,0,0,1-1.27-.93,2,2,0,0,0-1.48-.66h-.22a3.24,3.24,0,0,0-1.56.6,11.45,11.45,0,0,0-1.54,1.29c-.49.5-1,1-1.4,1.51s-.82.93-1.15,1.26l.22-.05V38.37a3,3,0,0,0,.63,2.22,2.92,2.92,0,0,0,1.78.69h0c1,0,1.53.25,1.53.77s-.51.76-1.53.76h-10.32C1052.06,42.81,1051.55,42.56,1051.55,42.05Z"/><path class="cls-1" d="M1076.69,37.11a5.66,5.66,0,0,1,1-3.24,10,10,0,0,1,2.5-2.53,18,18,0,0,1,3.48-1.92,32,32,0,0,1,4-1.37q2-.56,3.87-.93c1.24-.26,2.32-.46,3.23-.61v-4a6.64,6.64,0,0,0-1.12-4.14,4.13,4.13,0,0,0-3.49-1.46,10.14,10.14,0,0,0-3,.33,2.14,2.14,0,0,0-1.26.88,2.28,2.28,0,0,0-.31,1.15q0,.16.06.66c0,.33,0,.81,0,1.43a2.45,2.45,0,0,1-1.15,2.22,4.42,4.42,0,0,1-2.41.74,3.89,3.89,0,0,1-2.61-.85,2.65,2.65,0,0,1-1-2.11,3.61,3.61,0,0,1,.61-1.92,6.25,6.25,0,0,1,1.92-1.87,11.59,11.59,0,0,1,3.4-1.43,20.34,20.34,0,0,1,5-.55,18.76,18.76,0,0,1,3.9.42,12.62,12.62,0,0,1,3.57,1.29,7.6,7.6,0,0,1,2.6,2.3,5.7,5.7,0,0,1,1,3.4v17.4a4.54,4.54,0,0,0,.25,1.43c.16.51.44.77.85.77v.44a4.63,4.63,0,0,1-1.13.47,4.73,4.73,0,0,1-1.12.19,6.18,6.18,0,0,1-3.3-.66A2.94,2.94,0,0,1,1094.8,41a14.73,14.73,0,0,1-3.89,2.11,15.19,15.19,0,0,1-4.94.69,15,15,0,0,1-3.43-.39,9.61,9.61,0,0,1-3-1.18,6.3,6.3,0,0,1-2.08-2.06A5.52,5.52,0,0,1,1076.69,37.11Zm18,1.26V28.21a28.41,28.41,0,0,0-3.81.8,17.14,17.14,0,0,0-4,1.62,10.13,10.13,0,0,0-3.1,2.61,5.89,5.89,0,0,0-1.24,3.76,3.94,3.94,0,0,0,1.35,3.37,5.08,5.08,0,0,0,3.15,1,10.85,10.85,0,0,0,4-.69A12.54,12.54,0,0,0,1094.69,38.37Z"/><path class="cls-1" d="M1114.56,22.12V38a3.76,3.76,0,0,0,.61,2.44,2.54,2.54,0,0,0,1.76.8c1,.18,1.42.44,1.42.77,0,.51-.51.76-1.54.76h-10.15c-1,0-1.54-.25-1.54-.76s.46-.63,1.38-.77a2.42,2.42,0,0,0,1.72-.8,3.84,3.84,0,0,0,.58-2.44V22.12c0-1.13-.07-1.7-.22-1.7a4,4,0,0,0-1.37.82h.11a2,2,0,0,1-.71.06,2.64,2.64,0,0,1-.77-.17.91.91,0,0,1-.61-.44c0-.11.28-.29.72-.55h-.06l3-2.08,3-2.14a1.89,1.89,0,0,1,.93-.17,2.09,2.09,0,0,1,1.24.33,1,1,0,0,1,.46.88v2.36a22.18,22.18,0,0,1,4.26-2.63,12,12,0,0,1,5.19-1.05,10.94,10.94,0,0,1,3.45.53,7.83,7.83,0,0,1,2.78,1.56,7.23,7.23,0,0,1,1.83,2.5,8.07,8.07,0,0,1,.66,3.37V38a4.07,4.07,0,0,0,.55,2.44,2.35,2.35,0,0,0,1.7.8c1,.18,1.43.44,1.43.77,0,.51-.51.76-1.54.76h-10.15c-1,0-1.54-.25-1.54-.76,0-.33.48-.59,1.43-.77a2.56,2.56,0,0,0,1.76-.8A3.76,3.76,0,0,0,1127,38V23.44a7.2,7.2,0,0,0-.88-3.87,3.4,3.4,0,0,0-3.13-1.4,8.9,8.9,0,0,0-4.42,1.07A24.43,24.43,0,0,0,1114.56,22.12Z"/><path class="cls-1" d="M1139.15,16.63a5.25,5.25,0,0,0,2.37-1.15,8.12,8.12,0,0,0,1.78-2.17,14.69,14.69,0,0,0,1.21-2.77,15.88,15.88,0,0,0,.63-2.86c.11-.47.6-.71,1.48-.71s1.37.2,1.37.61v8.61h5.93c1.06,0,1.59.3,1.59.88s-.53.88-1.59.88H1148V38c0,2.08,1,3.13,2.86,3.13a3.94,3.94,0,0,0,2.41-1.1,22.16,22.16,0,0,0,2.36-2.25l1.48,1a10.53,10.53,0,0,1-2.93,3.43,7.59,7.59,0,0,1-4.75,1.4,7.42,7.42,0,0,1-5.33-1.78,6.15,6.15,0,0,1-1.86-4.64V18h-2.91c-.92,0-1.37-.22-1.37-.66Q1138,16.92,1139.15,16.63Z"/><path class="cls-1" d="M1233.55,41.17a3.62,3.62,0,0,0,2.69-1.05,4.73,4.73,0,0,0,.77-3V7.52q0-2.19-1-2.91a4.92,4.92,0,0,0-2.5-.82h.06c-1,0-1.48-.26-1.48-.77s.49-.71,1.48-.71h16.19a23.55,23.55,0,0,1,8.56,1.48,18.8,18.8,0,0,1,6.53,4.14A18.17,18.17,0,0,1,1269,14.3a22.12,22.12,0,0,1,1.45,8.15,22.36,22.36,0,0,1-1.45,8.18,18,18,0,0,1-4.15,6.39,19.09,19.09,0,0,1-6.5,4.18,23.31,23.31,0,0,1-8.59,1.51H1233.6c-1,0-1.53-.26-1.53-.77s.51-.77,1.53-.77Zm9.22-37.38V37.11a4.69,4.69,0,0,0,.82,3.18,3.79,3.79,0,0,0,2.86.88h3.29a12.56,12.56,0,0,0,6.45-1.62,14.44,14.44,0,0,0,4.61-4.26,19.3,19.3,0,0,0,2.77-6,25.5,25.5,0,0,0,0-13.72,19.3,19.3,0,0,0-2.77-6,14.13,14.13,0,0,0-4.61-4.23,12.75,12.75,0,0,0-6.45-1.59Z"/><path class="cls-1" d="M1276.47,42.05c0-.33.48-.59,1.43-.77a2.64,2.64,0,0,0,1.7-.72,3.09,3.09,0,0,0,.6-2.19V22.12c0-1.13-.07-1.7-.22-1.7a2.32,2.32,0,0,0-1.09.6,1.63,1.63,0,0,1-.88.28,2.46,2.46,0,0,1-.88-.17c-.29-.11-.46-.25-.49-.44a3.44,3.44,0,0,1,.65-.55l6-4.22a2,2,0,0,1,.94-.17,2.08,2.08,0,0,1,1.23.33,1,1,0,0,1,.47.88v3c.62-.63,1.28-1.23,2-1.82a21.91,21.91,0,0,1,2.17-1.59,10.83,10.83,0,0,1,2.36-1.12A7.87,7.87,0,0,1,1295,15a6,6,0,0,1,3.35.79,2.26,2.26,0,0,1,1.21,1.89,2.56,2.56,0,0,1-1.18,1.95,4.14,4.14,0,0,1-2.44.74,6,6,0,0,1-1.6-.27,1.9,1.9,0,0,1-1.26-.93,2,2,0,0,0-1.48-.66h-.22a3.24,3.24,0,0,0-1.56.6,11.45,11.45,0,0,0-1.54,1.29c-.49.5-1,1-1.4,1.51s-.82.93-1.15,1.26l.22-.05V38.37a3,3,0,0,0,.63,2.22,2.92,2.92,0,0,0,1.78.69h-.05c1,0,1.53.25,1.53.77s-.51.76-1.53.76H1278C1277,42.81,1276.47,42.56,1276.47,42.05Z"/><path class="cls-1" d="M1301.61,37.11a5.66,5.66,0,0,1,1-3.24,10,10,0,0,1,2.5-2.53,18,18,0,0,1,3.48-1.92,32,32,0,0,1,4-1.37q2-.56,3.87-.93c1.24-.26,2.32-.46,3.23-.61v-4a6.64,6.64,0,0,0-1.12-4.14A4.13,4.13,0,0,0,1315,17a10.14,10.14,0,0,0-3,.33,2.2,2.2,0,0,0-1.27.88,2.38,2.38,0,0,0-.3,1.15q0,.16.06.66c0,.33,0,.81,0,1.43a2.45,2.45,0,0,1-1.15,2.22,4.43,4.43,0,0,1-2.42.74,3.88,3.88,0,0,1-2.6-.85,2.65,2.65,0,0,1-1-2.11,3.61,3.61,0,0,1,.61-1.92,6.25,6.25,0,0,1,1.92-1.87,11.59,11.59,0,0,1,3.4-1.43,20.34,20.34,0,0,1,5-.55,18.76,18.76,0,0,1,3.9.42,12.45,12.45,0,0,1,3.56,1.29,7.63,7.63,0,0,1,2.61,2.3,5.7,5.7,0,0,1,1,3.4v17.4a4.81,4.81,0,0,0,.24,1.43c.17.51.45.77.86.77v.44a4.63,4.63,0,0,1-1.13.47,4.73,4.73,0,0,1-1.12.19,6.18,6.18,0,0,1-3.3-.66,2.94,2.94,0,0,1-1.21-2.14,14.73,14.73,0,0,1-3.89,2.11,15.19,15.19,0,0,1-4.94.69,15,15,0,0,1-3.43-.39,9.61,9.61,0,0,1-3-1.18,6.3,6.3,0,0,1-2.08-2.06A5.52,5.52,0,0,1,1301.61,37.11Zm18,1.26V28.21a28.41,28.41,0,0,0-3.81.8,17.14,17.14,0,0,0-4,1.62,10.13,10.13,0,0,0-3.1,2.61,5.89,5.89,0,0,0-1.24,3.76,3.94,3.94,0,0,0,1.35,3.37,5.06,5.06,0,0,0,3.15,1,10.85,10.85,0,0,0,4-.69A12.54,12.54,0,0,0,1319.61,38.37Z"/><path class="cls-1" d="M1327.79,41.28a11.67,11.67,0,0,0,1.59-.11,3.82,3.82,0,0,0,1.38-.47,2.55,2.55,0,0,0,1-1,4,4,0,0,0,.35-1.79V18.22h-2.52c-1.06,0-1.59-.27-1.59-.82s.53-.82,1.59-.82h2.52V12.84a10.69,10.69,0,0,1,.77-3.89,12.27,12.27,0,0,1,2.17-3.6,11.08,11.08,0,0,1,3.35-2.63,9,9,0,0,1,4.25-1,10,10,0,0,1,1.68.14,4.75,4.75,0,0,1,1.42.47,2.89,2.89,0,0,1,1,.87,2.51,2.51,0,0,1,.38,1.43,1.72,1.72,0,0,1-1,1.51,4.38,4.38,0,0,1-2.17.58,4.44,4.44,0,0,1-1.78-.28,7,7,0,0,1-1.13-.6c-.29-.18-.58-.36-.88-.52a1.64,1.64,0,0,0-.82-.25.93.93,0,0,0-.85.6,5.13,5.13,0,0,0-.44,1.46,14.45,14.45,0,0,0-.17,1.81c0,.64,0,1.2,0,1.67v6h4.72c1.06,0,1.59.27,1.59.82s-.53.82-1.59.82h-4.72V37.87a4,4,0,0,0,.35,1.79,2.49,2.49,0,0,0,1,1,4.06,4.06,0,0,0,1.4.47,11.67,11.67,0,0,0,1.59.11c1,0,1.54.25,1.54.77s-.51.76-1.54.76h-14.38c-1,0-1.53-.25-1.53-.76S1326.77,41.28,1327.79,41.28Z"/><path class="cls-1" d="M1349.69,16.63a5.17,5.17,0,0,0,2.36-1.15,8.15,8.15,0,0,0,1.79-2.17,14,14,0,0,0,1.2-2.77,15.94,15.94,0,0,0,.64-2.86c.11-.47.6-.71,1.48-.71s1.37.2,1.37.61v8.61h5.93c1.06,0,1.59.3,1.59.88s-.53.88-1.59.88h-5.93V38c0,2.08,1,3.13,2.85,3.13a3.94,3.94,0,0,0,2.42-1.1,23.16,23.16,0,0,0,2.36-2.25l1.48,1a10.53,10.53,0,0,1-2.93,3.43,7.59,7.59,0,0,1-4.75,1.4,7.42,7.42,0,0,1-5.33-1.78,6.15,6.15,0,0,1-1.86-4.64V18h-2.91c-.92,0-1.37-.22-1.37-.66Q1348.49,16.92,1349.69,16.63Z"/><path class="cls-1" d="M1384.55,3.13c0-.51.51-.77,1.53-.77h13.56c1,0,1.54.26,1.54.77s-.51.77-1.54.77h.06a12.44,12.44,0,0,0-1.62.19,3.26,3.26,0,0,0-1.26.49,2.22,2.22,0,0,0-.8,1.07,5.62,5.62,0,0,0-.27,1.93V20.8h20.47V7.3a4.32,4.32,0,0,0-.3-1.76,2.64,2.64,0,0,0-.85-1A3,3,0,0,0,1413.8,4a8.89,8.89,0,0,0-1.48-.11c-1,0-1.53-.26-1.53-.77s.51-.77,1.53-.77h13.5c1,0,1.54.26,1.54.77s-.51.77-1.54.77h.06a11.56,11.56,0,0,0-1.59.19,3.36,3.36,0,0,0-1.24.49,2.2,2.2,0,0,0-.79,1.07,5.36,5.36,0,0,0-.28,1.93v30a5.26,5.26,0,0,0,.28,1.92,2.16,2.16,0,0,0,.79,1.07,3.19,3.19,0,0,0,1.24.49,11.47,11.47,0,0,0,1.59.2h-.06c1,0,1.54.25,1.54.77s-.51.76-1.54.76h-13.5c-1,0-1.53-.25-1.53-.76s.51-.77,1.53-.77h0a11.67,11.67,0,0,0,1.64-.2,3.19,3.19,0,0,0,1.24-.49,2.16,2.16,0,0,0,.79-1.07,5.26,5.26,0,0,0,.28-1.92V22.5h-20.47V37.6a5.52,5.52,0,0,0,.27,1.92,2.17,2.17,0,0,0,.8,1.07,3.11,3.11,0,0,0,1.26.49,12.36,12.36,0,0,0,1.62.2h-.06c1,0,1.54.25,1.54.77s-.51.76-1.54.76h-13.56c-1,0-1.53-.25-1.53-.76s.51-.77,1.53-.77h0a12,12,0,0,0,1.65-.2,3.21,3.21,0,0,0,1.23-.49,2.23,2.23,0,0,0,.8-1.07,5.52,5.52,0,0,0,.27-1.92V7.3a4.32,4.32,0,0,0-.3-1.76,2.64,2.64,0,0,0-.85-1,3,3,0,0,0-1.26-.49,9,9,0,0,0-1.49-.11C1385.06,3.9,1384.55,3.64,1384.55,3.13Z"/><path class="cls-1" d="M1431.59,29.7a15.79,15.79,0,0,1,1-5.55,13.13,13.13,0,0,1,2.77-4.5,12.76,12.76,0,0,1,4.45-3,16.67,16.67,0,0,1,11.91,0,12.82,12.82,0,0,1,7.27,7.52,15.79,15.79,0,0,1,1,5.55,15.11,15.11,0,0,1-1,5.51,13,13,0,0,1-2.82,4.45,13.36,13.36,0,0,1-4.45,3,15.1,15.1,0,0,1-5.9,1.1,15.32,15.32,0,0,1-5.93-1.1,12.92,12.92,0,0,1-4.44-3,13.3,13.3,0,0,1-2.8-4.45A15.11,15.11,0,0,1,1431.59,29.7Zm5.87,0a24.33,24.33,0,0,0,.41,4.36,13.92,13.92,0,0,0,1.4,4.06,8.73,8.73,0,0,0,2.58,3,6.46,6.46,0,0,0,3.9,1.16,6.21,6.21,0,0,0,3.87-1.19,9.14,9.14,0,0,0,2.55-3,13.7,13.7,0,0,0,1.4-4.07,23.06,23.06,0,0,0,.41-4.3,24,24,0,0,0-.41-4.4,13.73,13.73,0,0,0-1.4-4.09,9.14,9.14,0,0,0-2.55-3,6.21,6.21,0,0,0-3.87-1.18,6.56,6.56,0,0,0-4,1.18,8.28,8.28,0,0,0-2.55,3,15.24,15.24,0,0,0-1.35,4.09A24.94,24.94,0,0,0,1437.46,29.7Z"/><path class="cls-1" d="M1485.11,37.93V22.12c0-1.13-.08-1.7-.22-1.7a4,4,0,0,0-1.38.82h.11a2.18,2.18,0,0,1-.77.06,2.65,2.65,0,0,1-.76-.17.91.91,0,0,1-.61-.44c0-.11.28-.29.72-.55h-.06c1-.69,2-1.39,3-2.08s2-1.41,3-2.14a2,2,0,0,1,.94-.17,2.08,2.08,0,0,1,1.23.33,1,1,0,0,1,.47.88V37.65q0,3.41,2.52,3.57c.81.19,1.21.41,1.21.66,0,.44-.47.66-1.43.66h.06c-.44,0-.9.06-1.37.08s-1,.07-1.49.14-1,.06-1.48.08l-1.42.08h-.22a3.17,3.17,0,0,1-1.54-.33,1.09,1.09,0,0,1-.6-1v-1.1a17.53,17.53,0,0,1-4.2,2.36,12.72,12.72,0,0,1-4.81.94,9.34,9.34,0,0,1-6.12-1.81,6.37,6.37,0,0,1-2.17-5.16V22.12c0-1.13-.07-1.7-.21-1.7a3.13,3.13,0,0,0-1.32.82h.11a2.22,2.22,0,0,1-.77.06,2.7,2.7,0,0,1-.77-.17c-.33-.11-.53-.25-.6-.44s.27-.29.71-.55h0l6-4.22a2,2,0,0,1,.94-.17,2.08,2.08,0,0,1,1.23.33,1,1,0,0,1,.47.88V35.18a21.3,21.3,0,0,0,.11,2.31,6.34,6.34,0,0,0,.49,1.95,3.09,3.09,0,0,0,1.13,1.34,3.44,3.44,0,0,0,2,.5,9.65,9.65,0,0,0,4.11-.85A17,17,0,0,0,1485.11,37.93Z"/><path class="cls-1" d="M1501.52,34.86a1.77,1.77,0,0,1,1.21.49A29.24,29.24,0,0,0,1505,38a16.07,16.07,0,0,0,2.6,2.23,13.5,13.5,0,0,0,2.94,1.53,9,9,0,0,0,3.24.58,4.11,4.11,0,0,0,3.29-1.48,5.81,5.81,0,0,0,1.37-3.57v-.16a3.62,3.62,0,0,0-.65-2.17,5.74,5.74,0,0,0-1.79-1.57,14.31,14.31,0,0,0-2.55-1.15q-1.42-.49-3-1c-1.2-.4-2.4-.81-3.59-1.23a14.8,14.8,0,0,1-3.24-1.59,7.71,7.71,0,0,1-2.33-2.36,6.32,6.32,0,0,1-.88-3.43,4.88,4.88,0,0,1,1-3.08,8.16,8.16,0,0,1,2.52-2.17,13.58,13.58,0,0,1,3.29-1.29,14.12,14.12,0,0,1,3.32-.44,12,12,0,0,1,2.31.2c.66.12,1.34.28,2,.46a3.87,3.87,0,0,0,.69.17,5.83,5.83,0,0,1,.74.16.22.22,0,0,1,.14,0s0,0,.08,0,.07-.08.22-.11l.77-.33h-.06a3.14,3.14,0,0,1,1.1-.17c1.06,0,1.7.31,1.92.94.4,1,.81,2.05,1.23,3.07s.84,2.05,1.24,3.07c0,0,0,.11,0,.22l.06.06c0,.11-.21.23-.63.35a3.81,3.81,0,0,1-.85.2c-.66,0-1-.09-1.16-.28a15.56,15.56,0,0,0-1.92-2.5,15.1,15.1,0,0,0-2.38-2.08,12,12,0,0,0-2.72-1.43,8.2,8.2,0,0,0-2.86-.52,4.49,4.49,0,0,0-3.12,1c-.77.7-1.16,1.92-1.16,3.68a3.48,3.48,0,0,0,.52,1.87,5.34,5.34,0,0,0,1.4,1.45,11.17,11.17,0,0,0,2,1.13c.77.33,1.6.64,2.48.93,1.28.44,2.59.89,4,1.34a18.76,18.76,0,0,1,3.67,1.68,9.15,9.15,0,0,1,2.72,2.44,6,6,0,0,1,1.07,3.65,6.15,6.15,0,0,1-.9,3.35,7.54,7.54,0,0,1-2.34,2.33,10.71,10.71,0,0,1-3.26,1.35,15.83,15.83,0,0,1-3.65.44,11.91,11.91,0,0,1-2.14-.19c-.66-.13-1.3-.29-1.92-.47-.41-.08-.79-.16-1.16-.25l-1-.24a1.12,1.12,0,0,0-.38-.06,1.45,1.45,0,0,0-.5.16l-.93.39a2.7,2.7,0,0,1-1,.16c-1.07,0-1.72-.35-2-1-.4-1.13-.84-2.3-1.32-3.49s-.91-2.35-1.31-3.48a3.4,3.4,0,0,1,.54-.27A2.58,2.58,0,0,1,1501.52,34.86Z"/><path class="cls-1" d="M1528.63,29.7a15.12,15.12,0,0,1,1-5.52,12.75,12.75,0,0,1,2.83-4.42,13.18,13.18,0,0,1,4.47-2.94,15.86,15.86,0,0,1,6-1.07,15.67,15.67,0,0,1,5.71,1,11.12,11.12,0,0,1,6.67,6.76,14.76,14.76,0,0,1,.85,5.13h-21.52v1.1a23.48,23.48,0,0,0,.42,4.36,13.64,13.64,0,0,0,1.4,4.06,8.62,8.62,0,0,0,2.58,3,6.45,6.45,0,0,0,3.89,1.16,9.77,9.77,0,0,0,3.32-.61A11.49,11.49,0,0,0,1549.3,40a12.68,12.68,0,0,0,2.44-2.47,8.24,8.24,0,0,0,1.43-3l2.85.82a12.46,12.46,0,0,1-4.75,6.07,14.41,14.41,0,0,1-8.37,2.33,15.5,15.5,0,0,1-6-1.1,12.87,12.87,0,0,1-7.33-7.44A15.11,15.11,0,0,1,1528.63,29.7ZM1550.42,27a13.72,13.72,0,0,0-.46-3.52,10.69,10.69,0,0,0-1.38-3.15,6.87,6.87,0,0,0-2.33-2.25,7,7,0,0,0-6.69,0,7.89,7.89,0,0,0-2.42,2.22,11.18,11.18,0,0,0-1.56,3.13,18.41,18.41,0,0,0-.8,3.57Z"/><path class="cls-1" d="M1637.07,42.05c0-.52.52-.77,1.54-.77h0a11.67,11.67,0,0,0,1.64-.2,3.19,3.19,0,0,0,1.24-.49,2.16,2.16,0,0,0,.79-1.07,5.26,5.26,0,0,0,.28-1.92V7.74a5.59,5.59,0,0,0-.28-1.95,2.5,2.5,0,0,0-.79-1.15,2.75,2.75,0,0,0-1.24-.55,11.79,11.79,0,0,0-1.64-.19h0c-1,0-1.54-.26-1.54-.77s.52-.77,1.54-.77h19.76a26.65,26.65,0,0,1,4.83.47,15.83,15.83,0,0,1,4.59,1.56,10.09,10.09,0,0,1,3.4,2.91,7.33,7.33,0,0,1,1.34,4.5,7,7,0,0,1-.76,3.32,8.8,8.8,0,0,1-2,2.55,11.93,11.93,0,0,1-2.93,1.87,28.54,28.54,0,0,1-3.49,1.32,24,24,0,0,1,4.37,1.34,13.16,13.16,0,0,1,3.48,2.14,9.19,9.19,0,0,1,2.33,3.11,9.75,9.75,0,0,1,.86,4.22,9.18,9.18,0,0,1-1.32,5,11,11,0,0,1-3.46,3.48,15.88,15.88,0,0,1-4.8,2,22.7,22.7,0,0,1-5.35.65h-20.81C1637.59,42.81,1637.07,42.56,1637.07,42.05Zm11.2-21.58h9.5a7.89,7.89,0,0,0,3.29-.71,9.77,9.77,0,0,0,2.83-1.92,9.28,9.28,0,0,0,2-2.83,8.18,8.18,0,0,0,.75-3.48,7.15,7.15,0,0,0-.77-3.41,7.24,7.24,0,0,0-2-2.36,9.41,9.41,0,0,0-2.86-1.4,11.27,11.27,0,0,0-3.18-.46h-9.5Zm0,1.54V37.6a5.26,5.26,0,0,0,.28,1.92,2.34,2.34,0,0,0,.79,1.1,3,3,0,0,0,1.24.52,8.47,8.47,0,0,0,1.59.14h6.09a11.4,11.4,0,0,0,3.84-.66,10.16,10.16,0,0,0,3.3-1.89,9.27,9.27,0,0,0,2.28-3,9.39,9.39,0,0,0,.85-4,9.51,9.51,0,0,0-.8-3.92,9.39,9.39,0,0,0-2.17-3.08,9.53,9.53,0,0,0-3.15-2,10.22,10.22,0,0,0-3.71-.69Z"/><path class="cls-1" d="M1679.4,37.11a5.66,5.66,0,0,1,1-3.24,10.12,10.12,0,0,1,2.49-2.53,18.41,18.41,0,0,1,3.49-1.92,31.84,31.84,0,0,1,4-1.37q2-.56,3.87-.93c1.24-.26,2.32-.46,3.24-.61v-4a6.64,6.64,0,0,0-1.13-4.14,4.13,4.13,0,0,0-3.48-1.46,10.21,10.21,0,0,0-3,.33,2.14,2.14,0,0,0-1.26.88,2.38,2.38,0,0,0-.3,1.15c0,.11,0,.33,0,.66a12.81,12.81,0,0,1,.06,1.43,2.47,2.47,0,0,1-1.15,2.22,4.45,4.45,0,0,1-2.42.74,3.92,3.92,0,0,1-2.61-.85,2.66,2.66,0,0,1-1-2.11,3.68,3.68,0,0,1,.6-1.92,6.25,6.25,0,0,1,1.92-1.87,11.59,11.59,0,0,1,3.4-1.43,20.45,20.45,0,0,1,5-.55,18.76,18.76,0,0,1,3.9.42,12.4,12.4,0,0,1,3.57,1.29,7.73,7.73,0,0,1,2.61,2.3,5.76,5.76,0,0,1,1,3.4v17.4a4.54,4.54,0,0,0,.25,1.43c.16.51.45.77.85.77v.44a4.54,4.54,0,0,1-1.12.47,4.8,4.8,0,0,1-1.13.19,6.14,6.14,0,0,1-3.29-.66,2.91,2.91,0,0,1-1.21-2.14,14.63,14.63,0,0,1-3.9,2.11,16.8,16.8,0,0,1-8.37.3,9.55,9.55,0,0,1-3-1.18,6.33,6.33,0,0,1-2.09-2.06A5.51,5.51,0,0,1,1679.4,37.11Zm18,1.26V28.21a28.21,28.21,0,0,0-3.82.8,17.51,17.51,0,0,0-4,1.62,10.25,10.25,0,0,0-3.1,2.61,5.88,5.88,0,0,0-1.23,3.76,4,4,0,0,0,1.34,3.37,5.09,5.09,0,0,0,3.16,1,10.8,10.8,0,0,0,4-.69A12.57,12.57,0,0,0,1697.4,38.37Z"/><path class="cls-1" d="M1707.77,42.05c0-.33.48-.59,1.43-.77a2.64,2.64,0,0,0,1.7-.72,3.08,3.08,0,0,0,.61-2.19V22.12c0-1.13-.08-1.7-.22-1.7a2.34,2.34,0,0,0-1.1.6,1.6,1.6,0,0,1-.88.28,2.5,2.5,0,0,1-.88-.17c-.29-.11-.46-.25-.49-.44a3.79,3.79,0,0,1,.66-.55l6-4.22a2,2,0,0,1,.94-.17,2.08,2.08,0,0,1,1.23.33,1,1,0,0,1,.47.88v3c.62-.63,1.28-1.23,2-1.82a21.91,21.91,0,0,1,2.17-1.59,10.83,10.83,0,0,1,2.36-1.12,7.93,7.93,0,0,1,2.56-.41,6,6,0,0,1,3.34.79,2.26,2.26,0,0,1,1.21,1.89,2.56,2.56,0,0,1-1.18,1.95,4.14,4.14,0,0,1-2.44.74,5.86,5.86,0,0,1-1.59-.27,1.9,1.9,0,0,1-1.27-.93,2,2,0,0,0-1.48-.66h-.22a3.24,3.24,0,0,0-1.56.6,12.11,12.11,0,0,0-1.54,1.29c-.49.5-1,1-1.4,1.51s-.82.93-1.15,1.26l.22-.05V38.37a3,3,0,0,0,.63,2.22,3,3,0,0,0,1.78.69h0c1,0,1.54.25,1.54.77s-.52.76-1.54.76h-10.32C1708.28,42.81,1707.77,42.56,1707.77,42.05Z"/><path class="cls-1" d="M1813.94,3.62c.33-.87,1.21-1.31,2.64-1.31h24.48c1.43,0,2.31.44,2.63,1.31l3.3,7.91a.23.23,0,0,1,0,.16v.06c0,.07-.22.25-.65.55a1.8,1.8,0,0,1-.72.11c-.58,0-.93-.08-1-.22h0l-1.15-1.49A29.14,29.14,0,0,0,1839.3,6h.06a13,13,0,0,0-7.58-2.25h-.38V37.38c0,1.46.29,2.42.88,2.85a4.08,4.08,0,0,0,2.58.94h-.06c1,0,1.54.25,1.54.77s-.51.77-1.54.77h-12c-1,0-1.54-.26-1.54-.77s.51-.77,1.54-.77h-.06a4.08,4.08,0,0,0,2.58-.94c.59-.43.88-1.39.88-2.85V3.79h-.38A13,13,0,0,0,1818.28,6h.06a29.14,29.14,0,0,0-4.23,4.66L1813,12.19a1.55,1.55,0,0,1-1,.22,1.61,1.61,0,0,1-.66-.11c-.44-.3-.66-.48-.66-.55v-.22Z"/><path class="cls-1" d="M1849.07,37.11a5.66,5.66,0,0,1,1-3.24,10.34,10.34,0,0,1,2.5-2.53,18.41,18.41,0,0,1,3.49-1.92,31.84,31.84,0,0,1,4-1.37q2-.56,3.87-.93c1.24-.26,2.32-.46,3.24-.61v-4a6.64,6.64,0,0,0-1.13-4.14,4.13,4.13,0,0,0-3.48-1.46,10.21,10.21,0,0,0-3,.33,2.14,2.14,0,0,0-1.26.88,2.38,2.38,0,0,0-.3,1.15,5.88,5.88,0,0,0,.05.66,12.81,12.81,0,0,1,.06,1.43,2.46,2.46,0,0,1-1.16,2.22,4.4,4.4,0,0,1-2.41.74,3.92,3.92,0,0,1-2.61-.85,2.64,2.64,0,0,1-1-2.11,3.68,3.68,0,0,1,.6-1.92,6.25,6.25,0,0,1,1.92-1.87,11.59,11.59,0,0,1,3.4-1.43,20.4,20.4,0,0,1,5-.55,18.76,18.76,0,0,1,3.9.42,12.4,12.4,0,0,1,3.57,1.29,7.73,7.73,0,0,1,2.61,2.3,5.76,5.76,0,0,1,1,3.4v17.4a4.54,4.54,0,0,0,.25,1.43c.16.51.45.77.85.77v.44a4.47,4.47,0,0,1-1.13.47,4.65,4.65,0,0,1-1.12.19,6.12,6.12,0,0,1-3.29-.66,2.91,2.91,0,0,1-1.21-2.14,14.63,14.63,0,0,1-3.9,2.11,16.8,16.8,0,0,1-8.37.3,9.55,9.55,0,0,1-3-1.18,6.33,6.33,0,0,1-2.09-2.06A5.52,5.52,0,0,1,1849.07,37.11Zm18,1.26V28.21a28.21,28.21,0,0,0-3.82.8,17.32,17.32,0,0,0-4,1.62,10.25,10.25,0,0,0-3.1,2.61A5.88,5.88,0,0,0,1855,37a4,4,0,0,0,1.34,3.37,5.09,5.09,0,0,0,3.16,1,10.8,10.8,0,0,0,4-.69A12.57,12.57,0,0,0,1867.08,38.37Z"/><path class="cls-1" d="M1890.08,26.07l9.22,12.68h-.06a8.78,8.78,0,0,0,2,1.76,4.74,4.74,0,0,0,2.17.77c1,.18,1.43.44,1.43.77,0,.51-.52.76-1.54.76h-11c-1,0-1.54-.25-1.54-.76s.51-.77,1.54-.77h-.06a3.25,3.25,0,0,0,1.87-.66c.11-.11.16-.4.16-.88a1.72,1.72,0,0,0-.33-1.15l-7-9.72L1885.63,30v8c0,2.08.82,3.17,2.47,3.24.92.14,1.37.4,1.37.77s-.51.76-1.53.76h-10.21c-1,0-1.54-.25-1.54-.76s.47-.64,1.43-.83a2.28,2.28,0,0,0,1.7-.82,4,4,0,0,0,.55-2.36V6.37c0-1.14-.08-1.7-.22-1.7a2.13,2.13,0,0,0-1.05.6,1.73,1.73,0,0,1-.93.27,2.52,2.52,0,0,1-.88-.16c-.29-.11-.45-.26-.49-.44a3.32,3.32,0,0,1,.66-.55l6-4.22a1.78,1.78,0,0,1,.93-.17,2.08,2.08,0,0,1,1.23.33,1,1,0,0,1,.47.88V26.84l3.87-3.32q1.89-1.62,3.81-3.32a1.68,1.68,0,0,0,.55-1.32,1,1,0,0,0-.71-1.15,6.14,6.14,0,0,0-1.48-.27h0c-1,0-1.53-.26-1.53-.77s.51-.77,1.53-.77h10.54c1,0,1.54.25,1.54.77s-.51.77-1.54.77h.06a6.56,6.56,0,0,0-2.77.85,14.7,14.7,0,0,0-2.61,1.83h0Z"/><path class="cls-1" d="M1906.54,29.7a15.12,15.12,0,0,1,1-5.52,12.75,12.75,0,0,1,2.83-4.42,13.28,13.28,0,0,1,4.47-2.94,15.86,15.86,0,0,1,6-1.07,15.67,15.67,0,0,1,5.71,1,11.51,11.51,0,0,1,4.15,2.69,11.39,11.39,0,0,1,2.52,4.07,14.76,14.76,0,0,1,.85,5.13h-21.51v1.1a23.45,23.45,0,0,0,.41,4.36,13.64,13.64,0,0,0,1.4,4.06,8.73,8.73,0,0,0,2.58,3,6.45,6.45,0,0,0,3.89,1.16,9.87,9.87,0,0,0,3.33-.61,11.43,11.43,0,0,0,3.07-1.67,12.68,12.68,0,0,0,2.44-2.47,8.24,8.24,0,0,0,1.43-3l2.85.82a12.44,12.44,0,0,1-4.74,6.07,14.42,14.42,0,0,1-8.38,2.33,15.5,15.5,0,0,1-6-1.1,12.87,12.87,0,0,1-7.33-7.44A15.11,15.11,0,0,1,1906.54,29.7Zm21.8-2.69a13.74,13.74,0,0,0-.47-3.52,10.94,10.94,0,0,0-1.37-3.15,7,7,0,0,0-2.34-2.25,7,7,0,0,0-6.69,0,8,8,0,0,0-2.42,2.22,11.18,11.18,0,0,0-1.56,3.13,18.41,18.41,0,0,0-.8,3.57Z"/><path class="cls-1" d="M1937.72,37.11a5.66,5.66,0,0,1,1-3.24,10,10,0,0,1,2.5-2.53,18,18,0,0,1,3.48-1.92,32,32,0,0,1,4-1.37q2-.56,3.87-.93c1.24-.26,2.32-.46,3.24-.61v-4a6.64,6.64,0,0,0-1.13-4.14,4.13,4.13,0,0,0-3.49-1.46,10.14,10.14,0,0,0-3,.33,2.14,2.14,0,0,0-1.26.88,2.28,2.28,0,0,0-.31,1.15q0,.16.06.66c0,.33,0,.81,0,1.43a2.45,2.45,0,0,1-1.15,2.22,4.42,4.42,0,0,1-2.41.74,3.89,3.89,0,0,1-2.61-.85,2.65,2.65,0,0,1-1-2.11,3.61,3.61,0,0,1,.61-1.92,6.25,6.25,0,0,1,1.92-1.87,11.59,11.59,0,0,1,3.4-1.43,20.34,20.34,0,0,1,5.05-.55,18.76,18.76,0,0,1,3.9.42,12.62,12.62,0,0,1,3.57,1.29,7.6,7.6,0,0,1,2.6,2.3,5.7,5.7,0,0,1,1,3.4v17.4a4.81,4.81,0,0,0,.24,1.43c.17.51.45.77.86.77v.44a4.63,4.63,0,0,1-1.13.47,4.73,4.73,0,0,1-1.12.19,6.18,6.18,0,0,1-3.3-.66,2.94,2.94,0,0,1-1.21-2.14,14.73,14.73,0,0,1-3.89,2.11,15.19,15.19,0,0,1-4.94.69,15,15,0,0,1-3.43-.39,9.61,9.61,0,0,1-3-1.18,6.3,6.3,0,0,1-2.08-2.06A5.52,5.52,0,0,1,1937.72,37.11Zm18,1.26V28.21a28.21,28.21,0,0,0-3.82.8,17.14,17.14,0,0,0-4,1.62,10.13,10.13,0,0,0-3.1,2.61,5.89,5.89,0,0,0-1.24,3.76,3.94,3.94,0,0,0,1.35,3.37,5.09,5.09,0,0,0,3.16,1,10.83,10.83,0,0,0,4-.69A12.71,12.71,0,0,0,1955.73,38.37Z"/><path class="cls-1" d="M1964.07,16.58c0-.44.47-.66,1.43-.66H1976c1,0,1.43.24,1.43.71s-.53.83-1.6.83h.06c-.4,0-.76.08-1.07.13a2.3,2.3,0,0,0-.8.3,2.41,2.41,0,0,0,0,.77,2.91,2.91,0,0,0,.11.77L1980.37,36,1985,22.83l-1.15-3.23a5.86,5.86,0,0,0-.88-1.76h.16a3.56,3.56,0,0,0-1.64-.38h0c-1,0-1.48-.26-1.48-.77s.49-.77,1.48-.77h10.32c1,0,1.54.25,1.54.77s-.51.77-1.54.77a7.15,7.15,0,0,0-2.19.38h0s0,.27,0,.82a3.46,3.46,0,0,0,0,.77L1996,35.9l5.65-16.47h0a1.93,1.93,0,0,0,0-.49c0-.52-.07-.83-.22-.94h.06a4.66,4.66,0,0,0-2-.54c-1,0-1.54-.26-1.54-.77s.51-.77,1.54-.77h8.07c1,0,1.48.25,1.48.77s-.5.77-1.48.77h0a4.58,4.58,0,0,0-2.09.54,2.5,2.5,0,0,0-.93,1.43L1996.4,43c-.22.51-.83.77-1.81.77s-1.54-.26-1.76-.77l-6.15-16q-1.42,4-2.91,8t-2.91,7.93c-.21.55-.84.83-1.86.83s-1.65-.28-1.87-.83l-9.06-23.49c-.36-.91-.65-1.43-.87-1.54a3.23,3.23,0,0,0-1.7-.43C1964.54,17.27,1964.07,17,1964.07,16.58Z"/><path class="cls-1" d="M2011.88,37.11a5.66,5.66,0,0,1,1-3.24,10.12,10.12,0,0,1,2.49-2.53,18.41,18.41,0,0,1,3.49-1.92,32.42,32.42,0,0,1,4-1.37q2-.56,3.87-.93c1.25-.26,2.33-.46,3.24-.61v-4a6.71,6.71,0,0,0-1.12-4.14,4.16,4.16,0,0,0-3.49-1.46,10.21,10.21,0,0,0-3,.33,2.14,2.14,0,0,0-1.26.88,2.38,2.38,0,0,0-.3,1.15c0,.11,0,.33,0,.66a12.81,12.81,0,0,1,.06,1.43,2.47,2.47,0,0,1-1.15,2.22,4.45,4.45,0,0,1-2.42.74,3.92,3.92,0,0,1-2.61-.85,2.66,2.66,0,0,1-1-2.11,3.68,3.68,0,0,1,.6-1.92,6.25,6.25,0,0,1,1.92-1.87,11.55,11.55,0,0,1,3.41-1.43,20.34,20.34,0,0,1,5-.55,18.59,18.59,0,0,1,3.89.42,12.4,12.4,0,0,1,3.57,1.29,7.73,7.73,0,0,1,2.61,2.3,5.69,5.69,0,0,1,1,3.4v17.4a4.84,4.84,0,0,0,.25,1.43c.17.51.45.77.85.77v.44a4.54,4.54,0,0,1-1.12.47,4.8,4.8,0,0,1-1.13.19,6.14,6.14,0,0,1-3.29-.66A2.94,2.94,0,0,1,2030,41a14.63,14.63,0,0,1-3.9,2.11,16.8,16.8,0,0,1-8.37.3,9.55,9.55,0,0,1-3-1.18,6.33,6.33,0,0,1-2.09-2.06A5.51,5.51,0,0,1,2011.88,37.11Zm18,1.26V28.21a28.53,28.53,0,0,0-3.82.8,17.25,17.25,0,0,0-4,1.62,10.17,10.17,0,0,0-3.11,2.61,5.88,5.88,0,0,0-1.23,3.76,4,4,0,0,0,1.34,3.37,5.09,5.09,0,0,0,3.16,1,10.8,10.8,0,0,0,4-.69A12.44,12.44,0,0,0,2029.88,38.37Z"/><path class="cls-1" d="M2050.3,15.92c.95,0,1.43.22,1.43.66s-.55.88-1.65.88h.05a6.54,6.54,0,0,0-1.26.16,1.22,1.22,0,0,0-.27.88,2.6,2.6,0,0,0,.16.93L2055.84,35l6.43-15a3.59,3.59,0,0,0,.16-1,1.5,1.5,0,0,0-.38-1.16c-.15-.21-.63-.32-1.43-.32-1,0-1.54-.26-1.54-.77s.51-.77,1.54-.77h8.23c1,0,1.54.25,1.54.77s-.51.77-1.54.77h.06a3.35,3.35,0,0,0-2.45,1,11.17,11.17,0,0,0-1.61,2.85L2055.4,43.2a22.52,22.52,0,0,1-1.48,2.8,10.33,10.33,0,0,1-2,2.3,8.88,8.88,0,0,1-2.58,1.57,9.19,9.19,0,0,1-3.37.57,5.47,5.47,0,0,1-1.4-.19,5.53,5.53,0,0,1-1.37-.55,3.08,3.08,0,0,1-1-.9,2.23,2.23,0,0,1-.38-1.32,2.54,2.54,0,0,1,1.09-2.2,4.34,4.34,0,0,1,2.53-.76,4.22,4.22,0,0,1,2.47.76,2.54,2.54,0,0,1,1.1,2.2c0,.62-.1,1-.28,1a1.54,1.54,0,0,0,.94-.55,10.67,10.67,0,0,0,1-1.4c.35-.57.69-1.19,1-1.87s.62-1.32.87-1.94l.33-.77-10.37-22.89,0,.05a2.91,2.91,0,0,0-1.12-1.32,5.59,5.59,0,0,0-1.35-.32c-1-.19-1.53-.48-1.53-.88s.47-.66,1.42-.66Z"/><path class="cls-1" d="M827.11,29.11l2,.54,2.41.66c.81.22,1.51.42,2.12.61a9.74,9.74,0,0,1,1.12.38,8.32,8.32,0,0,1,1.07.63,1.06,1.06,0,0,1,.52.91,3.31,3.31,0,0,1-.6,1.53,1.41,1.41,0,0,1-.91.75,5,5,0,0,1-1.39.19,4,4,0,0,1-2-.44,3.75,3.75,0,0,1-.69-.52l-1.07-.94c-.4-.34-.82-.73-1.26-1.15l-1.26-1.18c.14.55.31,1.16.49,1.84s.35,1.32.5,1.92.26,1.15.35,1.62a7.09,7.09,0,0,1,.14.93,3.21,3.21,0,0,1-.11.8,1.83,1.83,0,0,1-.44.77,2.25,2.25,0,0,1-.9.57,4.27,4.27,0,0,1-1.51.22,3,3,0,0,1-2.28-.71,2.28,2.28,0,0,1-.69-1.65,4.77,4.77,0,0,1,.14-.74l.33-1.37c.13-.53.27-1.11.44-1.73s.32-1.21.46-1.76l.22-.82-2.74,2.64A12.85,12.85,0,0,1,820,35H820a3.89,3.89,0,0,1-1.92.44,3.76,3.76,0,0,1-1.9-.55,1.75,1.75,0,0,1-1-1.59,1.65,1.65,0,0,1,.69-1.21,9.54,9.54,0,0,1,1-.82H817a4.2,4.2,0,0,1,1.07-.44c.57-.19,1.22-.39,2-.61s1.5-.43,2.25-.63,1.4-.35,2-.46v-.5c-.55-.11-1.21-.26-2-.47l-2.28-.6L818,27l-1.1-.3a4.87,4.87,0,0,1-1.18-.77,1.41,1.41,0,0,1-.58-1.1,2.56,2.56,0,0,1,.39-1.09v.05a2.52,2.52,0,0,1,2.41-1.15,3.84,3.84,0,0,1,1.92.44h-.05a4.28,4.28,0,0,1,.71.52l1.13.93c.42.35.87.73,1.34,1.15s.93.82,1.37,1.18c0-.14-.07-.28-.11-.41s-.07-.28-.11-.46c-.14-.55-.3-1.14-.46-1.76s-.31-1.2-.44-1.73l-.33-1.37a4.77,4.77,0,0,1-.14-.74,2.12,2.12,0,0,1,.69-1.59,3.2,3.2,0,0,1,2.28-.66,3.55,3.55,0,0,1,2.36.57,2.24,2.24,0,0,1,.6,1.68,6.39,6.39,0,0,1-.17,1c-.11.49-.24,1.06-.41,1.7s-.34,1.31-.52,2-.35,1.32-.49,1.87l1.26-1.24q.66-.63,1.29-1.2c.42-.39.81-.72,1.18-1a10,10,0,0,1,.82-.6,3.37,3.37,0,0,1,1.6-.33,2.59,2.59,0,0,1,2.36,1,2.82,2.82,0,0,1,.6,1.32,1.22,1.22,0,0,1-.52.93,9.23,9.23,0,0,1-1.24.88,9.74,9.74,0,0,1-1.12.38c-.61.19-1.28.38-2,.58l-2.28.6c-.77.21-1.41.36-1.92.47Z"/><path class="cls-1" d="M1194.56,29.11l2,.54,2.42.66c.8.22,1.5.42,2.11.61a9.74,9.74,0,0,1,1.12.38,7.69,7.69,0,0,1,1.07.63,1.07,1.07,0,0,1,.53.91,3.35,3.35,0,0,1-.61,1.53,1.42,1.42,0,0,1-.9.75,5.1,5.1,0,0,1-1.4.19,4,4,0,0,1-2-.44,3.75,3.75,0,0,1-.69-.52c-.31-.28-.66-.59-1.07-.94s-.82-.73-1.26-1.15l-1.26-1.18c.15.55.31,1.16.49,1.84s.35,1.32.5,1.92.26,1.15.35,1.62a5.64,5.64,0,0,1,.14.93,3.21,3.21,0,0,1-.11.8,1.83,1.83,0,0,1-.44.77,2.25,2.25,0,0,1-.9.57,4.27,4.27,0,0,1-1.51.22,3.05,3.05,0,0,1-2.28-.71,2.28,2.28,0,0,1-.69-1.65,4.77,4.77,0,0,1,.14-.74l.33-1.37c.13-.53.27-1.11.44-1.73s.32-1.21.47-1.76l.22-.82-2.75,2.64a11.6,11.6,0,0,1-1.65,1.37h.06a3.84,3.84,0,0,1-1.92.44,3.76,3.76,0,0,1-1.9-.55,1.75,1.75,0,0,1-1-1.59,1.65,1.65,0,0,1,.69-1.21,10.5,10.5,0,0,1,1-.82h0a4.38,4.38,0,0,1,1.07-.44c.57-.19,1.23-.39,2-.61s1.5-.43,2.25-.63,1.4-.35,2-.46v-.5c-.55-.11-1.22-.26-2-.47l-2.28-.6-2-.55-1.1-.3a4.87,4.87,0,0,1-1.18-.77,1.45,1.45,0,0,1-.58-1.1,2.56,2.56,0,0,1,.39-1.09v.05a2.53,2.53,0,0,1,2.41-1.15,3.84,3.84,0,0,1,1.92.44h0a3.89,3.89,0,0,1,.71.52l1.13.93c.42.35.87.73,1.34,1.15s.94.82,1.38,1.18c0-.14-.08-.28-.11-.41a3.13,3.13,0,0,1-.11-.46c-.15-.55-.31-1.14-.47-1.76s-.31-1.2-.44-1.73l-.33-1.37a4.77,4.77,0,0,1-.14-.74,2.12,2.12,0,0,1,.69-1.59,3.24,3.24,0,0,1,2.28-.66,3.55,3.55,0,0,1,2.36.57,2.24,2.24,0,0,1,.6,1.68,5.88,5.88,0,0,1-.16,1c-.11.49-.25,1.06-.42,1.7s-.33,1.31-.52,2-.34,1.32-.49,1.87l1.26-1.24q.66-.63,1.29-1.2c.42-.39.82-.72,1.18-1a8.36,8.36,0,0,1,.83-.6,3.3,3.3,0,0,1,1.59-.33,2.59,2.59,0,0,1,2.36,1,2.82,2.82,0,0,1,.6,1.32,1.22,1.22,0,0,1-.52.93,9.23,9.23,0,0,1-1.24.88,9.74,9.74,0,0,1-1.12.38c-.6.19-1.28.38-2,.58l-2.28.6c-.77.21-1.41.36-1.92.47Z"/><path class="cls-1" d="M1596.54,29.11l2,.54,2.41.66c.81.22,1.51.42,2.12.61a9.74,9.74,0,0,1,1.12.38,8.32,8.32,0,0,1,1.07.63,1.06,1.06,0,0,1,.52.91,3.31,3.31,0,0,1-.6,1.53,1.43,1.43,0,0,1-.91.75,5,5,0,0,1-1.4.19,4,4,0,0,1-2-.44,3.75,3.75,0,0,1-.69-.52l-1.07-.94c-.4-.34-.82-.73-1.26-1.15l-1.26-1.18c.14.55.31,1.16.49,1.84s.35,1.32.5,1.92.26,1.15.35,1.62a7.09,7.09,0,0,1,.14.93,3.21,3.21,0,0,1-.11.8,1.83,1.83,0,0,1-.44.77,2.22,2.22,0,0,1-.91.57,4.19,4.19,0,0,1-1.51.22,3,3,0,0,1-2.27-.71,2.28,2.28,0,0,1-.69-1.65,4.77,4.77,0,0,1,.14-.74l.33-1.37c.13-.53.27-1.11.44-1.73s.32-1.21.46-1.76l.22-.82-2.74,2.64A12.85,12.85,0,0,1,1589.4,35h.06a3.91,3.91,0,0,1-1.93.44,3.75,3.75,0,0,1-1.89-.55,1.75,1.75,0,0,1-1-1.59,1.65,1.65,0,0,1,.69-1.21,9.54,9.54,0,0,1,1-.82h.06a4.2,4.2,0,0,1,1.07-.44c.56-.19,1.22-.39,2-.61s1.5-.43,2.25-.63,1.4-.35,2-.46v-.5c-.55-.11-1.21-.26-2-.47l-2.28-.6-2-.55-1.1-.3a4.68,4.68,0,0,1-1.18-.77,1.41,1.41,0,0,1-.58-1.1,2.56,2.56,0,0,1,.39-1.09v.05a2.52,2.52,0,0,1,2.41-1.15,3.84,3.84,0,0,1,1.92.44h0a4.28,4.28,0,0,1,.71.52l1.13.93c.42.35.86.73,1.34,1.15s.93.82,1.37,1.18c0-.14-.07-.28-.11-.41s-.07-.28-.11-.46c-.14-.55-.3-1.14-.46-1.76s-.31-1.2-.44-1.73l-.33-1.37a4.77,4.77,0,0,1-.14-.74,2.12,2.12,0,0,1,.69-1.59,3.19,3.19,0,0,1,2.27-.66,3.57,3.57,0,0,1,2.37.57,2.24,2.24,0,0,1,.6,1.68,6.39,6.39,0,0,1-.17,1c-.11.49-.24,1.06-.41,1.7s-.34,1.31-.52,2-.35,1.32-.49,1.87l1.26-1.24q.66-.63,1.29-1.2c.42-.39.81-.72,1.18-1a10,10,0,0,1,.82-.6,3.35,3.35,0,0,1,1.59-.33,2.59,2.59,0,0,1,2.37,1,2.82,2.82,0,0,1,.6,1.32,1.25,1.25,0,0,1-.52.93,9.23,9.23,0,0,1-1.24.88,9.74,9.74,0,0,1-1.12.38c-.61.19-1.28.38-2,.58l-2.28.6c-.77.21-1.41.36-1.92.47Z"/><path class="cls-1" d="M1770.79,29.11l2,.54,2.41.66c.81.22,1.51.42,2.12.61a10.56,10.56,0,0,1,1.12.38,8.32,8.32,0,0,1,1.07.63,1.06,1.06,0,0,1,.52.91,3.31,3.31,0,0,1-.6,1.53,1.46,1.46,0,0,1-.91.75,5.1,5.1,0,0,1-1.4.19,4,4,0,0,1-2-.44,3.75,3.75,0,0,1-.69-.52l-1.07-.94c-.4-.34-.82-.73-1.26-1.15l-1.26-1.18c.14.55.31,1.16.49,1.84s.35,1.32.49,1.92.27,1.15.36,1.62a7.09,7.09,0,0,1,.14.93,3.21,3.21,0,0,1-.11.8,1.94,1.94,0,0,1-.44.77,2.22,2.22,0,0,1-.91.57,4.19,4.19,0,0,1-1.51.22,3,3,0,0,1-2.27-.71,2.28,2.28,0,0,1-.69-1.65,3.75,3.75,0,0,1,.14-.74l.33-1.37c.12-.53.27-1.11.44-1.73s.32-1.21.46-1.76L1768,31l-2.74,2.64a12.85,12.85,0,0,1-1.65,1.37h0a3.84,3.84,0,0,1-1.92.44,3.75,3.75,0,0,1-1.89-.55,1.75,1.75,0,0,1-1-1.59,1.65,1.65,0,0,1,.69-1.21,9.54,9.54,0,0,1,1-.82h.06a4.2,4.2,0,0,1,1.07-.44c.56-.19,1.22-.39,2-.61s1.5-.43,2.25-.63,1.4-.35,2-.46v-.5c-.55-.11-1.22-.26-2-.47l-2.28-.6-2-.55-1.09-.3a4.68,4.68,0,0,1-1.18-.77,1.41,1.41,0,0,1-.58-1.1,2.65,2.65,0,0,1,.38-1.09v.05a2.54,2.54,0,0,1,2.42-1.15,3.84,3.84,0,0,1,1.92.44h0a4.28,4.28,0,0,1,.71.52l1.12.93c.42.35.87.73,1.35,1.15s.93.82,1.37,1.18c0-.14-.07-.28-.11-.41s-.07-.28-.11-.46c-.14-.55-.3-1.14-.46-1.76s-.32-1.2-.44-1.73l-.33-1.37a3.75,3.75,0,0,1-.14-.74,2.12,2.12,0,0,1,.69-1.59,3.19,3.19,0,0,1,2.27-.66,3.54,3.54,0,0,1,2.36.57,2.21,2.21,0,0,1,.61,1.68,6.39,6.39,0,0,1-.17,1c-.11.49-.24,1.06-.41,1.7s-.34,1.31-.52,2-.35,1.32-.49,1.87l1.26-1.24q.66-.63,1.29-1.2c.42-.39.81-.72,1.18-1a8.53,8.53,0,0,1,.82-.6,3.3,3.3,0,0,1,1.59-.33,2.57,2.57,0,0,1,2.36,1,2.76,2.76,0,0,1,.61,1.32,1.25,1.25,0,0,1-.52.93,9.23,9.23,0,0,1-1.24.88,10.56,10.56,0,0,1-1.12.38c-.61.19-1.29.38-2,.58l-2.27.6c-.77.21-1.41.36-1.92.47Z"/></g></g></svg>