<svg xmlns="http://www.w3.org/2000/svg" viewBox="0 0 106.14 105.42"><defs><style>.cls-1{fill:#f2f5fb;}</style></defs><g id="Layer_2" data-name="Layer 2"><g id="Layer_1-2" data-name="Layer 1"><path class="cls-1" d="M0,67.4c0-10.68,0-21.36,0-32,0-2.9,1-4.69,3-5.87Q27.3,15,51.6.49a2.43,2.43,0,0,1,2.89,0Q78.85,15.1,103.27,29.57c2,1.2,2.88,3,2.87,5.93,0,21.12,0,42.25,0,63.37,0,4.88-1.27,6.55-5,6.54-9.94,0-19.89.11-29.82-.18-4.8-.14-9-2.67-12.48-7.06-5.85-7.46-4.62-21.62.87-27.73,7.91-8.79,17.16-12,27.36-8.36,6.15,2.19,10.19,9.48,10.24,16.9,0,8.71-6.71,14.32-12.88,10.66-3.42-2-5.7-5.62-7.7-9.53-1.7-3.35-3.84-6-6.94-6.88-7.44-2.18-13.35,5.44-11.73,15,1,6,4.1,9.72,8.45,11.71a15.53,15.53,0,0,0,6.07,1.55c9.57.16,19.15.05,28.72.12,1.44,0,1.92-.62,1.92-2.46q-.06-31.7,0-63.38a2.9,2.9,0,0,0-1.4-2.91Q77.87,18.66,54,4.43a2,2,0,0,0-1.84,0Q28.28,18.6,4.47,32.81A3.05,3.05,0,0,0,3,35.88Q3,67.46,3,99c0,1.94.47,2.6,2,2.59,9.45-.08,18.9-.07,28.35,0A15.16,15.16,0,0,0,43,97.79C47.11,94.49,49.19,88,48.15,82c-1.37-7.84-8.91-11.84-14.33-7.36-1.69,1.39-3,3.61-4.39,5.55-1.74,2.41-3.2,5.22-5.12,7.34-3.65,4-8.13,4.29-11.52,1.18S8,80,9.53,74.24c2-7.58,6.37-11.9,12.35-13.11,8.44-1.71,16.27.94,23.06,7.49,7.56,7.29,8.44,21.95,2,30.11-3.21,4-7.28,6.36-11.74,6.49-10.37.29-20.74.18-31.11.16-2.51,0-4-2.15-4-5.47Q0,83.67,0,67.4Z" transform="translate(0 0)"/><path class="cls-1" d="M54.42,72.66c.79-2.51,1.52-5.06,2.38-7.53,3.14-9.15,6.84-17.87,12.07-25.4,4.83-6.95,10.65-10.35,18-8.46,5.4,1.38,8.94,6.3,8.91,12.39,0,6.58-4.29,11.58-9.41,10.8-4.16-.64-8.29-1.1-12.43.06-6.32,1.77-11.15,6.58-15.4,12.53-1.32,1.84-2.57,3.76-3.85,5.64Z" transform="translate(0 0)"/><path class="cls-1" d="M53.2,71.35A103.42,103.42,0,0,0,49,51.2C47.56,47,45.8,42.89,44.44,38.62a50.43,50.43,0,0,1-1.87-8.57c-1.45-10.94,5.72-18.78,14.06-15.49C62,16.68,64.83,22.45,63.54,30a76.82,76.82,0,0,1-4,14.77A88.07,88.07,0,0,0,53.4,70.75,2.64,2.64,0,0,1,53.2,71.35Z" transform="translate(0 0)"/><path class="cls-1" d="M51.54,72.47c-2.44-3.25-4.78-6.68-7.37-9.75C37.71,55.06,30,52.35,21.4,54.31c-7.06,1.6-11.75-5-11-12.36A12.22,12.22,0,0,1,19.16,31.3c7.41-2,13.31,1.43,18.17,8.49,6.53,9.51,10.78,20.66,14.23,32.39A.54.54,0,0,1,51.54,72.47Z" transform="translate(0 0)"/></g></g></svg>