<svg xmlns="http://www.w3.org/2000/svg" viewBox="0 0 95.89 74.42"><defs><style>.cls-1{fill:#f2f5fb;}</style></defs><g id="Layer_2" data-name="Layer 2"><g id="Layer_1-2" data-name="Layer 1"><path class="cls-1" d="M0,47.58C0,40,.05,32.5,0,25a4.14,4.14,0,0,1,2.69-4.14Q24.67,10.61,46.62.35a2.67,2.67,0,0,1,2.61,0q22,10.32,44.07,20.54a4.1,4.1,0,0,1,2.59,4.19c0,14.91,0,29.82,0,44.74,0,3.44-1.15,4.62-4.54,4.61-9,0-18,.08-26.93-.12a16.25,16.25,0,0,1-11.28-5C47.84,64,49,54,53.91,49.73c7.14-6.21,15.5-8.48,24.72-5.91a12.7,12.7,0,0,1,9.24,11.93,8.11,8.11,0,0,1-11.63,7.53c-3.09-1.43-5.15-4-6.95-6.73A10.28,10.28,0,0,0,63,51.69C56.29,50.16,51,55.54,52.41,62.29c.93,4.26,3.71,6.86,7.64,8.26a17,17,0,0,0,5.49,1.09c8.64.12,17.29,0,25.94.09,1.3,0,1.74-.44,1.73-1.74q0-22.36,0-44.74A1.94,1.94,0,0,0,92,23.2q-21.6-10-43.2-20.07a2.22,2.22,0,0,0-1.66,0q-21.54,10-43.06,20a2.07,2.07,0,0,0-1.35,2.17q.06,22.29,0,44.57c0,1.37.43,1.84,1.82,1.83q12.81-.08,25.61,0A15.94,15.94,0,0,0,38.88,69,10.63,10.63,0,0,0,43.5,57.91a8.65,8.65,0,0,0-12.95-5.2,23,23,0,0,0-4,3.92A60.09,60.09,0,0,1,22,61.81c-3.3,2.84-7.34,3-10.41.83S7.22,56.49,8.61,52.41a13.27,13.27,0,0,1,11.16-9.26A26.68,26.68,0,0,1,40.6,48.44c6.83,5.15,7.62,15.5,1.76,21.26a15.47,15.47,0,0,1-10.61,4.58c-9.36.2-18.73.12-28.1.11C1.38,74.38,0,72.88,0,70.53Q0,59.06,0,47.58Z"/><path class="cls-1" d="M49.17,51.29c.71-1.77,1.37-3.57,2.14-5.31,2.84-6.46,6.18-12.61,10.91-17.93,4.36-4.91,9.62-7.31,16.27-6,4.88,1,8.08,4.45,8.05,8.75A7.57,7.57,0,0,1,78,38.44a33.28,33.28,0,0,0-11.22.05c-5.72,1.25-10.07,4.64-13.91,8.84-1.19,1.3-2.33,2.65-3.49,4Z"/><path class="cls-1" d="M48.06,50.37a59,59,0,0,0-3.8-14.22c-1.3-3-2.88-5.87-4.11-8.89a28.67,28.67,0,0,1-1.69-6C37.15,13.49,43.62,8,51.16,10.28c4.85,1.5,7.41,5.57,6.25,10.93a45.14,45.14,0,0,1-3.67,10.42A51.48,51.48,0,0,0,48.24,50,1.52,1.52,0,0,1,48.06,50.37Z"/><path class="cls-1" d="M46.56,51.16c-2.2-2.29-4.31-4.71-6.66-6.88a22.94,22.94,0,0,0-20.57-5.94C13,39.47,8.71,34.81,9.4,29.61,9.88,26,13,23,17.31,22.09c6.7-1.39,12,1,16.41,6C39.62,34.8,43.46,42.68,46.58,51A.29.29,0,0,1,46.56,51.16Z"/></g></g></svg>