<svg xmlns="http://www.w3.org/2000/svg" viewBox="0 0 90.03 89.42"><defs><style>.cls-1{fill:#a29051;}</style></defs><g id="Layer_2" data-name="Layer 2"><g id="Layer_1-2" data-name="Layer 1"><path class="cls-1" d="M0,57.17C0,48.11.05,39.05,0,30c0-2.47.83-4,2.52-5Q23.16,12.76,43.77.41a2.07,2.07,0,0,1,2.45,0Q66.89,12.81,87.6,25.08c1.72,1,2.44,2.58,2.43,5Q90,57,90,83.87c0,4.14-1.07,5.55-4.26,5.54-8.43,0-16.86.09-25.29-.15-4.07-.12-7.67-2.27-10.59-6-4.95-6.33-3.91-18.34.75-23.52,6.7-7.46,14.55-10.18,23.2-7.09C79,54.52,82.47,60.7,82.5,67c0,7.39-5.69,12.15-10.92,9.05-2.9-1.72-4.84-4.77-6.53-8.09-1.44-2.84-3.26-5.07-5.88-5.84-6.31-1.84-11.33,4.62-10,12.73.87,5.12,3.48,8.24,7.17,9.94a13.21,13.21,0,0,0,5.15,1.31c8.12.13,16.24,0,24.36.1,1.22,0,1.63-.53,1.63-2.09q0-26.88,0-53.76a2.48,2.48,0,0,0-1.18-2.47Q66,15.83,45.77,3.76a1.66,1.66,0,0,0-1.56,0c-13.48,8-26.94,16-40.42,24a2.59,2.59,0,0,0-1.27,2.61q0,26.78,0,53.55c0,1.64.4,2.21,1.71,2.2,8-.07,16-.06,24,0A12.83,12.83,0,0,0,36.51,83c3.45-2.8,5.22-8.33,4.33-13.37-1.16-6.65-7.56-10-12.15-6.25A25.14,25.14,0,0,0,25,68.05c-1.47,2-2.71,4.42-4.34,6.22-3.1,3.41-6.89,3.64-9.77,1S6.78,67.87,8.08,63c1.71-6.44,5.41-10.1,10.48-11.13,7.16-1.45,13.8.8,19.56,6.35,6.41,6.19,7.15,18.62,1.65,25.55-2.72,3.42-6.17,5.39-10,5.5-8.79.24-17.59.15-26.38.13C1.3,89.38,0,87.57,0,84.75Q0,71,0,57.17Z"/><path class="cls-1" d="M46.16,61.63c.67-2.13,1.29-4.29,2-6.39C50.85,47.49,54,40.09,58.42,33.7c4.1-5.9,9-8.78,15.27-7.18,4.59,1.18,7.59,5.35,7.56,10.51,0,5.58-3.64,9.83-8,9.16-3.53-.54-7-.93-10.54.06-5.37,1.5-9.46,5.58-13.07,10.62-1.11,1.56-2.18,3.19-3.26,4.78Z"/><path class="cls-1" d="M45.13,60.52a87.16,87.16,0,0,0-3.58-17.09c-1.21-3.6-2.7-7-3.85-10.67a42.75,42.75,0,0,1-1.59-7.27C34.88,16.21,41,9.56,48,12.35c4.55,1.8,7,6.69,5.87,13.13A65.09,65.09,0,0,1,50.46,38a75.05,75.05,0,0,0-5.17,22A2.32,2.32,0,0,1,45.13,60.52Z"/><path class="cls-1" d="M43.72,61.47c-2.07-2.75-4-5.66-6.25-8.27-5.48-6.5-12-8.8-19.32-7.14-6,1.37-10-4.24-9.32-10.48a10.36,10.36,0,0,1,7.42-9c6.29-1.68,11.3,1.21,15.41,7.2,5.54,8.07,9.15,17.53,12.08,27.47A.5.5,0,0,1,43.72,61.47Z"/></g></g></svg>