<svg xmlns="http://www.w3.org/2000/svg" viewBox="0 0 94.82 109.54"><defs><style>.cls-1{fill:#f2f5fb;}</style></defs><g id="Layer_2" data-name="Layer 2"><g id="Layer_1-2" data-name="Layer 1"><path class="cls-1" d="M59.48,50.42a7.12,7.12,0,0,1-4.83-3.3,4.08,4.08,0,0,1-.29-.5A10,10,0,0,0,52,43.26c-1.54-1.43-1.42-3.43-1-5.37A20.68,20.68,0,0,0,51.7,34a7.09,7.09,0,0,0-4.9-6.64c-5.13-1.89-9.78,1-10.53,6.49a13.68,13.68,0,0,0,1.83,8.44,42.65,42.65,0,0,0,8.09,10.36C50,56.29,53.88,59.8,57.62,63.49c3.13,3.08,5.64,6.6,6.61,11A18.52,18.52,0,0,1,54.2,95a17.93,17.93,0,0,1-23.52-7.07,17.09,17.09,0,0,1,1.26-18.81c.1-.12.21-.24.15-.18a44.2,44.2,0,0,0-2,4.94,15.32,15.32,0,0,0,15,19.59,14.18,14.18,0,0,0,11.63-22A41.58,41.58,0,0,0,50,64c-3.82-3.62-7.71-7.17-11.43-10.88a30.24,30.24,0,0,1-7.2-10.38,15,15,0,0,1,0-11.2,11.61,11.61,0,0,1,12.45-7.06c7.46.93,12.95,4.72,15.75,11.91,1.28,3.28.64,5.65-2.07,7.91-.48.4-.75.81-.49,1.38.58,1.29,1.21,2.57,1.85,3.84A7.76,7.76,0,0,0,59.48,50.42Z"/><path class="cls-1" d="M24,92.6A20,20,0,0,1,16.81,88,24,24,0,0,1,9.94,73.45,50.36,50.36,0,0,1,10.6,58.7c.75-4.59,1.42-9.22.86-13.88a45.72,45.72,0,0,0-1.22-5.22c1.25.44,2.67.88,4,1.45A68.92,68.92,0,0,1,47.2,69.35a26.36,26.36,0,0,1,3.7,9.07,6.09,6.09,0,0,1-.47,4.27,3.45,3.45,0,0,1-4.25,1.64,3.69,3.69,0,0,1-2.37-4,3.57,3.57,0,0,1,3.31-3c.31,0,.62,0,1.19-.08-.78-1.47-1.43-2.84-2.22-4.12A50.79,50.79,0,0,0,34,59.94a75.87,75.87,0,0,0-13.7-8.69c-.28-.14-.58-.26-1-.43-.16.29-.33.54-.45.82a46.88,46.88,0,0,0-3.84,19A30.28,30.28,0,0,0,23.6,91.9a3.89,3.89,0,0,1,.38.43A.89.89,0,0,1,24,92.6Z"/><path class="cls-1" d="M75.51,50.78A79.2,79.2,0,0,0,59.37,61.09l-3.21-2.9A66.07,66.07,0,0,1,84.88,39.5c-2.46,5-1.75,10.17-1.21,15.29.45,4.28,1.25,8.53,1.46,12.81.32,6.4-.92,12.51-4.82,17.82a20.63,20.63,0,0,1-9.68,7.24,6.18,6.18,0,0,1,.5-.65c6.62-6.85,9.12-15.16,8.58-24.51A48,48,0,0,0,76.11,52C76,51.65,75.76,51.29,75.51,50.78Z"/><path class="cls-1" d="M94.82,95.49c0,7.76-21.22,14.05-47.41,14.05S0,103.25,0,95.49c0-3.45,4.19-6.6,11.15-9-4.36,1.91-6.88,4.19-6.88,6.63,0,6.76,19.31,12.24,43.14,12.24s43.14-5.48,43.14-12.24c0-2.44-2.52-4.72-6.88-6.63C90.63,88.89,94.82,92,94.82,95.49Z"/><path class="cls-1" d="M64.46,15.36c.19-.16.36-.34.65-.62-.44-.07-.66-.12-.9-.14q-6.51-.57-13-1.12a.93.93,0,0,1-.92-.63c-1.68-4-3.41-8.06-5.13-12.08A8.32,8.32,0,0,0,44.72,0c-.19.43-.32.69-.43,1-1.7,4-3.4,8-5.08,11.94a.83.83,0,0,1-.8.59q-6.52.54-13,1.11l-1.05.14,2.73,2.4c2.6,2.28,5.22,4.56,7.81,6.86a11.93,11.93,0,0,1,3.81-1.23c-1.78-1.6-3.59-3.16-5.4-4.72a2.81,2.81,0,0,0-.65-.32l.24-.32,3.38-.31c1.41-.11,2.81-.24,4.22-.32a1.22,1.22,0,0,0,1.18-.87c.89-2.18,1.83-4.35,2.76-6.51.07-.18.16-.34.32-.67.18.34.31.55.41.78.87,2,1.79,4,2.57,6.11a1.71,1.71,0,0,0,1.79,1.2c2.11.12,4.23.32,6.34.49.26,0,.52.08.93.15-.26.26-.42.47-.61.62-1.78,1.56-3.55,3.12-5.35,4.65a1,1,0,0,0-.37,1.12c.12.48.23,1,.34,1.43a38.33,38.33,0,0,1,4,2.3c-.19-.8-.38-1.62-.58-2.42A1.05,1.05,0,0,1,54.61,24Q59.55,19.67,64.46,15.36Z"/></g></g></svg>