<svg xmlns="http://www.w3.org/2000/svg" viewBox="0 0 83.12 99.53"><defs><style>.cls-1{fill:#f2f5fb;}</style></defs><g id="Layer_2" data-name="Layer 2"><g id="Layer_1-2" data-name="Layer 1"><path class="cls-1" d="M62.52,95.19a51.42,51.42,0,0,1-10.79-7.35,29,29,0,0,0-3-2.41,1.71,1.71,0,0,1-.85-1.66V67.83H43.49c0,4.66,0,9.32.07,14a5.07,5.07,0,0,1-2.13,4.61c-4,3.22-7.9,6.53-12.55,8.81a2.22,2.22,0,0,0-1.47,2.64c.24,1.06,1.13,1.66,2.53,1.66H61.5a2.33,2.33,0,0,0,2.57-1.63C64.36,96.79,63.84,95.87,62.52,95.19Zm-24.68,0c0-.09-.05-.2,0-.22,2.31-1.91,4.64-3.79,6.92-5.73a1.25,1.25,0,0,1,1.88,0c2.32,1.94,4.67,3.87,7.16,5.93Z"/><path class="cls-1" d="M82.93,10.51c-.46-1.12-1.45-1.28-2.56-1.28q-27.51,0-55,0A1.33,1.33,0,0,1,23.8,8.21,12,12,0,0,0,10.56.14a11.58,11.58,0,0,0-10,8.53A11.47,11.47,0,0,0,4.26,21.36c3.83,3.36,8.28,3.9,13,2a1.19,1.19,0,0,1,1.62.32c8,8.61,16,17.2,23.94,25.82a2.93,2.93,0,0,1,.69,1.8c0,5.77,0,11.55,0,17.32h4.35V51.3a2.71,2.71,0,0,1,.77-2q16.78-18,33.55-36A2.4,2.4,0,0,0,82.93,10.51ZM18.34,5.41a2.2,2.2,0,0,1,.78,3.05A1.79,1.79,0,0,1,18,9.21c-1.31.1-2.63,0-4.23,0,.61-1.26,1-2.31,1.62-3.26A2.07,2.07,0,0,1,18.34,5.41ZM11,3.43a2.3,2.3,0,0,1,2.68.09A2,2,0,0,1,14.41,6a18.61,18.61,0,0,1-.88,2.33,6.63,6.63,0,0,1-1.28,1.29c-.55-.53-1-.79-1.19-1.18a15.06,15.06,0,0,1-.94-2.56A2.05,2.05,0,0,1,11,3.43ZM5.62,6a2.17,2.17,0,0,1,3.69.17c.53.91.92,1.89,1.34,2.78L8.69,10c-.1.05-.23.19-.28.17A14.83,14.83,0,0,1,5.47,8.45C4.74,7.77,5,6.77,5.62,6Zm-2,7.64a2.28,2.28,0,0,1-.17-2.56A1.9,1.9,0,0,1,5.6,10a12.27,12.27,0,0,1,2.25.72.89.89,0,0,1,.37.49c.21.66.38,1.33.61,2.17-.94.33-1.92.68-2.92,1A2,2,0,0,1,3.6,13.61ZM7,19.31A2.31,2.31,0,0,1,5.14,17.4a1.94,1.94,0,0,1,1-2.2c1-.58,2.16-1,3.21-1.55,1.5,1.26,1.5,1.26.77,2.89a16.2,16.2,0,0,1-.9,1.82A2,2,0,0,1,7,19.31Zm7.18,1.06a2.29,2.29,0,0,1-2.72.81,2.05,2.05,0,0,1-1.4-2.42,5.89,5.89,0,0,1,.31-1.09c.24-.67.51-1.32.84-2.18,1.07,1.14,1.94,2.14,2.89,3.07A1.25,1.25,0,0,1,14.18,20.37ZM53.44,34.8a4.08,4.08,0,0,1-4-4.11,4,4,0,0,1,4-4.06,4.09,4.09,0,1,1,0,8.17ZM72.3,17.53c-1.13,1.22-2.25,2.47-3.44,3.63a2.32,2.32,0,0,1-1.47.62q-21.69,0-43.4,0a2.39,2.39,0,0,1-1.54-.65c-2.32-2.4-4.57-4.86-7-7.44H75.83C74.58,15,73.45,16.29,72.3,17.53Z"/></g></g></svg>