<svg xmlns="http://www.w3.org/2000/svg" viewBox="0 0 43.88 60"><defs><style>.cls-1{fill:#fff;}</style></defs><g id="Layer_2" data-name="Layer 2"><g id="Capa_1" data-name="Capa 1"><g id="Layer_2-2" data-name="Layer 2"><g id="Capa_1-2" data-name="Capa 1"><path class="cls-1" d="M39.22,9.83A28.83,28.83,0,0,0,31.83,9h-.44V9.1c0,.33,0,.65,0,1h.43a28,28,0,0,1,7.1.81c2,.57,2.59,1.22,2.59,1.48s-.54.9-2.59,1.47a28,28,0,0,1-7.1.81h-.38c0,.37,0,.74,0,1.1h.42a28.88,28.88,0,0,0,7.39-.85c2.26-.62,3.41-1.48,3.41-2.54S41.48,10.46,39.22,9.83Z"/><path class="cls-1" d="M40.68,49c-.86-1.44-4.14-2.14-7.1-2.32V32.06a13.54,13.54,0,0,0,6.88-3.35,10,10,0,0,0,3.42-7.3v0a82.28,82.28,0,0,0-1.27-9.1.53.53,0,0,0-.64-.43.56.56,0,0,0-.44.65,79.57,79.57,0,0,1,1.24,9,8.55,8.55,0,0,1-.06,1c-.38.1-.77.18-1.16.25h0a14,14,0,0,1-8.56-1h0c-.73-.3-1.47-.58-2.22-.82-.08.36-.17.71-.28,1.07.7.22,1.38.48,2.06.77a15.18,15.18,0,0,0,9.21,1.05c.24,0,.49-.08.73-.14C41.28,27.71,37,30.55,33,31a.55.55,0,0,0-.49.55V47.19a.56.56,0,0,0,.53.56c3.8.16,6.25,1,6.73,1.8a.56.56,0,0,1,.06.21c0,.23-.46.77-2.12,1.28a20.92,20.92,0,0,1-5.86.75A20.51,20.51,0,0,1,26,51c-1.55-.48-2.11-1-2.11-1.28s.45-.76,1.73-1.2a19,19,0,0,1,5.05-.81.55.55,0,0,0,.53-.55V31.58a.55.55,0,0,0-.48-.55A12.27,12.27,0,0,1,26,29.42l-.23-.15a4,4,0,0,1-1.29.47c.31.22.62.43.95.62a13.15,13.15,0,0,0,4.65,1.69V46.67a19.48,19.48,0,0,0-4.83.84c-1.65.57-2.48,1.32-2.48,2.25,0,2,4.67,3.13,9.06,3.13A22.17,22.17,0,0,0,38,52.1c1.9-.58,2.9-1.39,2.9-2.34v0A1.49,1.49,0,0,0,40.68,49Z"/><path class="cls-1" d="M31.81,32.21c-.32,0-1.16-.08-1.25-.09A.55.55,0,1,1,30.67,31c.24,0,.91.08,1.14.08s.92-.06,1.17-.08a.55.55,0,0,1,.58.51.56.56,0,0,1-.48.59C33,32.13,32.12,32.21,31.81,32.21Z"/><path class="cls-1" d="M16.53,9.26A39.57,39.57,0,0,1,6.43,8.1c-3.08-.85-4.65-2-4.65-3.47S3.34,2,6.43,1.16A39.57,39.57,0,0,1,16.53,0a39.57,39.57,0,0,1,10.1,1.16c3.09.86,4.65,2,4.65,3.47S29.72,7.25,26.63,8.1A39.52,39.52,0,0,1,16.53,9.26Zm0-7.75A37.66,37.66,0,0,0,6.84,2.62c-2.81.77-3.56,1.65-3.56,2s.74,1.24,3.56,2a38.14,38.14,0,0,0,9.69,1.1,38.28,38.28,0,0,0,9.7-1.1c2.8-.78,3.55-1.66,3.55-2s-.74-1.24-3.55-2A37.8,37.8,0,0,0,16.53,1.51Z"/><path class="cls-1" d="M16.52,60c-6,0-12.39-1.5-12.39-4.28,0-1.27,1.14-2.3,3.39-3.07a25.83,25.83,0,0,1,6.6-1.15v-20a18.29,18.29,0,0,1-6.36-2.31A17.54,17.54,0,0,1,2.25,24.1,12.59,12.59,0,0,1,0,17v-.06c0-.5.09-1,.14-1.5v0A105.57,105.57,0,0,1,1.79,4.48.77.77,0,0,1,2.73,4a.75.75,0,0,1,.54.82C2.6,8,2.08,11.35,1.73,14.66a35.61,35.61,0,0,1,16.34,2.75h0a19.17,19.17,0,0,0,11.69,1.33h0c.53-.09,1.06-.2,1.58-.34a12.62,12.62,0,0,0,.1-1.37A114.2,114.2,0,0,0,29.78,4.8a.75.75,0,0,1,1.48-.29A110.9,110.9,0,0,1,33,16.94V17a13.55,13.55,0,0,1-4.67,10,18.35,18.35,0,0,1-9.4,4.57v20c4,.25,8.52,1.2,9.7,3.16a2.12,2.12,0,0,1,.3,1v0c0,1.3-1.37,2.4-4,3.19A30,30,0,0,1,16.52,60Zm-15-43c0,4.19,2.64,8.25,7,10.89A16.74,16.74,0,0,0,15,30.13a.75.75,0,0,1,.66.74V52.22a.76.76,0,0,1-.73.75A25.8,25.8,0,0,0,8,54.08c-1.75.59-2.37,1.25-2.37,1.64s.77,1.08,2.88,1.74a28.47,28.47,0,0,0,8,1,28.57,28.57,0,0,0,8-1c2.26-.69,2.88-1.44,2.89-1.74a.5.5,0,0,0-.09-.29c-.63-1.06-4-2.25-9.19-2.47a.76.76,0,0,1-.72-.75V30.87a.75.75,0,0,1,.67-.74c5.49-.65,11.35-4.54,13-10.09-.33.07-.66.14-1,.19a20.64,20.64,0,0,1-12.59-1.44,34.24,34.24,0,0,0-15.9-2.6C1.56,16.47,1.53,16.75,1.51,17Z"/><path class="cls-1" d="M16.5,31.75c-.43,0-1.57-.11-1.7-.12a.76.76,0,0,1-.72-.79.74.74,0,0,1,.78-.72h.08c.33,0,1.25.12,1.55.12s1.26-.08,1.6-.12a.76.76,0,0,1,.15,1.51C18.11,31.64,16.93,31.75,16.5,31.75Z"/></g></g></g></g></svg>