<svg xmlns="http://www.w3.org/2000/svg" viewBox="0 0 122.94 117"><defs><style>.cls-1{fill:#f2f5fb;}</style></defs><g id="Layer_2" data-name="Layer 2"><g id="Layer_1-2" data-name="Layer 1"><path class="cls-1" d="M59.28,81.75c-3.18.75-6.29.36-9.4.4l-.14-.39a4.46,4.46,0,0,0,.73-.71c.55-.8,1.46-1.61,1.5-2.45.18-3.21.07-6.43.07-9.78-.31.16-.56.26-.79.4-2.66,1.65-5.21,1.18-7.12-1.4-.68-.92-1.15-1.27-2.13-.3-4,4-9.78,3.08-13.43-.83a11,11,0,0,1-.47-14c2-2.48,4.26-4.64,7.61-4.5a12.6,12.6,0,0,1,3.44,1,13.48,13.48,0,0,1,1.69,1A13.7,13.7,0,0,0,41,47.74c-.24-1.92-.56-3.84-.9-5.76a4.74,4.74,0,0,0-3.56-4.18,5.14,5.14,0,0,0-5.65,2,24.49,24.49,0,0,0-1.44,2.29L29,42a4.47,4.47,0,0,1,.11-1.62,7.85,7.85,0,0,1,6-4.51,17.85,17.85,0,0,1,3.27-.06c3.57.2,5.81,2,6.42,5.71.93,5.62,1.53,11.29,2.28,16.94.34,2.5.68,5,1.07,7.48.16,1,.66,1.86,1.79,1.9s1.67-.73,1.95-1.73a6.57,6.57,0,0,0,.27-1.82c0-6.73,0-13.47,0-20.2a3.11,3.11,0,0,0-2.83-3.51,13.61,13.61,0,0,1,1.4-1.19c1.56-1,3.16-1.83,4.72-2.79.87-.53,1.22-.24,1.29.74s.2,2.07.34,3.53a13.21,13.21,0,0,0,1.12-1.28c2.85-4.43,7.25-5.1,11.1-1.6,4.26,3.88,6,9,6.45,14.79a19.47,19.47,0,0,1-2.32,11.38,11.11,11.11,0,0,1-8,5.64,7.28,7.28,0,0,1-5.91-1.63c-.63-.5-1.27-1-1.9-1.46l-.44.1c0,1.57,0,3.14,0,4.71,0,2.13,0,4.25,0,6.38C57.11,79.64,58,80.66,59.28,81.75ZM57,54.26h.41c0,2.61-.2,5.24.06,7.82.24,2.29,1.36,4.26,3.71,4.85s4.3-.42,5.63-2.53a26.33,26.33,0,0,0,3.68-16.73,16.79,16.79,0,0,0-2.7-8c-1.67-2.48-4.15-3-6.6-1.38a8.7,8.7,0,0,0-3.72,6.49C57.07,47.88,57.12,51.08,57,54.26ZM42.58,61.41l-.13,0c-.05-.79-.05-1.6-.16-2.38-.24-1.66-.51-3.31-.82-5-.54-2.8-2.06-4.29-4.64-4.62-1.9-.25-3.71,1-4.69,3.45a14.91,14.91,0,0,0,.68,12.52,5.85,5.85,0,0,0,4.39,3.2c2.36.46,3.95-.47,4.64-2.9A37.86,37.86,0,0,0,42.58,61.41Z"/><path class="cls-1" d="M10.73,70H.24l-.13-.39A2.79,2.79,0,0,1,.87,69c1.4-.46,1.84-1.51,1.84-3q0-11.08,0-22.18c0-7.44,0-14.88,0-22.32,0-1.88-.26-3.38-2.72-3.74,2.37-2.14,4.87-3.11,7.45-4.75A24.44,24.44,0,0,1,7.79,16c0,6.42-.1,12.84-.15,19.26,0,1.61,0,3.23,0,4.85l.45.12c.83-.79,1.66-1.56,2.47-2.36a6.83,6.83,0,0,1,7.69-1.63c2.81,1,4.22,3.34,4.59,6.27.73,5.75,1.27,11.52,1.9,17.27.21,2,.46,3.95.69,5.93a3.78,3.78,0,0,0,2.34,3.46.7.7,0,0,1,.3.24c.05,0,.06.15.09.23-.87.59-9.08.67-10.32,0a5.55,5.55,0,0,1,1-.76,2.45,2.45,0,0,0,1.45-2.67c-.46-5-.9-10-1.42-14.92-.31-3-.74-6-1.12-8.94-.23-1.78-.7-3.53-2.41-4.22s-3.21.35-4.51,1.6a10,10,0,0,0-3.07,7.43C7.67,52.75,7.62,58.38,7.53,64c0,2.34.22,4.46,2.71,5.36C10.33,69.39,10.38,69.54,10.73,70Z"/><path class="cls-1" d="M37.17,116H26.69c.36-.41.47-.64.63-.7,1.94-.75,2.16-2.36,2-4.22-.79-7.17-1.56-14.34-2.35-21.5a14.83,14.83,0,0,0-.48-2.74c-.87-2.8-3.14-3.63-5.46-2a9.26,9.26,0,0,0-4.12,7.53c-.17,6.2-.19,12.4-.26,18.6,0,1.94.42,3.63,2.43,4.31a.94.94,0,0,1,.33.2,2.43,2.43,0,0,1,.24.49A38.75,38.75,0,0,1,9.24,116l-.12-.34c.23-.2.43-.49.68-.56,1.49-.42,1.94-1.52,1.94-3,0-3.36,0-6.73,0-10.1,0-11.43,0-22.86,0-34.29,0-1.83-.2-3.41-2.58-3.85a10.17,10.17,0,0,1,1.35-1.26c1.45-.89,2.93-1.72,4.4-2.56s1.8-.64,1.82,1.06c0,3.27,0,6.55,0,9.83q0,6.51,0,13c0,.73.08,1.46.15,2.57l2.14-2.14c3-3,7.05-3.44,10.18-1A8,8,0,0,1,32,88.94c.49,3.77.88,7.56,1.3,11.34s.8,7.47,1.19,11.21c.17,1.69.71,3.1,2.37,3.72a6.11,6.11,0,0,1,.58.27Z"/><path class="cls-1" d="M82.4,40.74c.15-.3.3-.62.46-.92,2.33-4.46,7.78-6,12.34-.74,4.09,4.71,5.47,10.44,5.13,16.7-.24,4.36-1.38,8.39-4.66,11.37-3.11,2.84-7.91,4.22-12,.49-.37-.34-.79-.63-1.41-1.11-.08.72-.19,1.22-.2,1.71-.05,3.05-.09,6.11-.12,9.16,0,1.47.16,2.85,1.57,3.65.18.1.42.47.37.59a.9.9,0,0,1-.6.52c-1,.09-2.09.1-3.13.11-1.82,0-3.64,0-5.46,0l-.1-.44c.16-.22.27-.52.48-.65,1.47-.86,1.87-2.27,1.87-3.92q0-13.1,0-26.17c0-2.26,0-4.52,0-6.78,0-1.71-.27-3.1-2.11-3.52-.14,0-.26-.19-.53-.41a13.77,13.77,0,0,1,1.33-1.05c1.48-.9,3-1.78,4.5-2.64,1.14-.66,1.39-.5,1.48.93.06.94.11,1.88.16,2.83Zm12.85,9.71a18.33,18.33,0,0,0-2.61-10.61C90.79,37,88,36.51,85.39,38.65a7.9,7.9,0,0,0-3.16,5.7c-.21,6-.25,12,0,18a4.78,4.78,0,0,0,4.9,4.71c2.27,0,3.72-1.43,4.82-3.31A25.82,25.82,0,0,0,95.25,50.45Z"/><path class="cls-1" d="M75,87c2.42-1.28,4.51-2.47,6.68-3.49,1-.48,1.18.39,1.16,1.24-.06,3.9-.13,7.79-.18,11.69,0,4.21-.11,8.42-.11,12.62,0,2.54-.49,5.3,2.68,6.54l-.19.29a6.6,6.6,0,0,1-1.24.23c-1.55,0-3.1-.07-4.65,0-1,0-1.41-.41-1.46-1.45a22.7,22.7,0,0,0-.39-2.45c-.57.53-1.17,1-1.7,1.62-3.37,3.73-7.79,4.13-11.2,1a6.72,6.72,0,0,1-2.14-5.18l0-16.61c0-.14,0-.27,0-.4-.06-2.21.29-4.65-2.82-5.27a44,44,0,0,1,7.29-4.43c.1,1.09.23,1.94.23,2.79,0,6.2,0,12.4,0,18.6,0,1.9.12,3.81.3,5.7.3,3.36,3.29,5.07,6.19,3.6s3.93-4.07,4.09-7c.29-5.39.23-10.8.26-16.2a2.62,2.62,0,0,0-1.73-2.66A7.38,7.38,0,0,1,75,87Z"/><path class="cls-1" d="M61,101.2c0,8.55-3,13.46-8.5,15.27-4.16,1.36-7.83,0-11.24-2.56-8-5.94-8.77-19.31-3.18-26.63,4.06-5.3,11-5.74,16.08-.91A21.9,21.9,0,0,1,61,101.2Zm-4.91,7.14a47.15,47.15,0,0,0-4-17,24.67,24.67,0,0,0-3.3-5.13,6.38,6.38,0,0,0-2.89-2c-2.92-1-5.85,1.3-6.24,5a42.56,42.56,0,0,0,0,8.06,27.74,27.74,0,0,0,6.18,15.93c3,3.56,7.74,2.77,9.49-1.6A17.19,17.19,0,0,0,56.07,108.34Z"/><path class="cls-1" d="M114.3,36.72a59.83,59.83,0,0,1,8.64-.15c-.43.51-.55.79-.74.87a6.27,6.27,0,0,0-3.42,4.19c-1.64,4.83-3.21,9.69-4.81,14.54-2.18,6.6-4.31,13.23-6.54,19.81-.94,2.75-2.36,5.26-5.44,5.63a13.73,13.73,0,0,1-4.41-.6,1.77,1.77,0,0,1-.9-1.27c-.27-1.92-.42-3.86-.58-5.8a6,6,0,0,1,.32-1.32c.4.61.63.94.84,1.27.47.73.9,1.5,1.4,2.2,2,2.78,5.06,2.77,6.88-.16a28.36,28.36,0,0,0,2.25-5,6.71,6.71,0,0,0-.35-4.66q-4.32-12.47-8.61-25a6.21,6.21,0,0,0-2.69-3.7c-.19-.11-.31-.37-.72-.86h10.64l.33.35a5.71,5.71,0,0,0-.89.45c-1.61,1.26-1.86,1.89-1.22,3.93,1.48,4.75,3,9.48,4.56,14.21.38,1.17.73,2.36,1.16,3.51a4.07,4.07,0,0,0,.73,1,4,4,0,0,0,.75-1c1.09-3.2,2.16-6.42,3.18-9.65.81-2.56,1.56-5.15,2.27-7.74.6-2.14.23-3-1.6-4-.38-.22-.74-.48-1.11-.73Z"/><path class="cls-1" d="M95.88,116H86c.26-.36.36-.64.54-.71,1.72-.75,2.17-2.31,2.18-4,0-6.73,0-13.46,0-20.2,0-1.82-.61-3.18-2.62-3.59l.13-.45,6.71-4.14.48.18v8.35l.53.13c.3-.47.62-.93.89-1.42a53.14,53.14,0,0,1,2.65-4.81c2.06-2.91,5.3-3.49,8-1.59.35.24.77.85.7,1.2-.39,2.22-.91,4.41-1.4,6.6a4.53,4.53,0,0,1-.53.8c-.27-1-.51-1.63-.66-2.33-.37-1.62-1.09-2.9-2.72-3.32a3.27,3.27,0,0,0-3.81,1.64A19.69,19.69,0,0,0,95,92.9c-1.4,4.79-1.45,9.78-1.48,14.74,0,2.92-.72,6.17,2.7,8Z"/><path class="cls-1" d="M44.64,21.28a4.4,4.4,0,0,1-4.27-4.52,5.4,5.4,0,0,1,5.24-5.54A6.66,6.66,0,0,1,52.07,18a.4.4,0,1,1-.8,0,5.83,5.83,0,0,0-5.66-6,4.59,4.59,0,0,0-4.45,4.7,3.59,3.59,0,0,0,3.48,3.68,2.8,2.8,0,0,0,2.71-2.86,2.15,2.15,0,0,0-2.09-2.2.42.42,0,0,1,0-.84,3,3,0,0,1,2.88,3A3.61,3.61,0,0,1,44.64,21.28Z"/><path class="cls-1" d="M44.64,21.74a4.85,4.85,0,0,1-4.71-5,5.86,5.86,0,0,1,5.68-6A7.11,7.11,0,0,1,52.51,18a.84.84,0,1,1-1.68,0,5.38,5.38,0,0,0-5.22-5.52,4.13,4.13,0,0,0-4,4.24,3.14,3.14,0,0,0,3,3.21,2.33,2.33,0,0,0,2.27-2.39,1.7,1.7,0,0,0-1.65-1.74.86.86,0,0,1-.84-.88.87.87,0,0,1,.84-.89,3.42,3.42,0,0,1,3.32,3.51A4.06,4.06,0,0,1,44.64,21.74Z"/><path class="cls-1" d="M55.19,17.87a5.11,5.11,0,0,1-3.75-1.64,7.16,7.16,0,0,1,0-9.76A7.77,7.77,0,0,1,57.14,4a.42.42,0,0,1,0,.84A7,7,0,0,0,52,7.07a6.14,6.14,0,0,0-1.68,4.28A6.14,6.14,0,0,0,52,15.63a4.32,4.32,0,0,0,6.37,0,3.85,3.85,0,0,0,0-5.26,2.63,2.63,0,0,0-3.87,0,.4.4,0,0,1-.57,0,.46.46,0,0,1,0-.6,3.41,3.41,0,0,1,5,0,4.74,4.74,0,0,1,0,6.46A5.11,5.11,0,0,1,55.19,17.87Z"/><path class="cls-1" d="M55.19,18.34a5.6,5.6,0,0,1-4.07-1.78,7.67,7.67,0,0,1,0-10.42,8.27,8.27,0,0,1,6-2.63A.87.87,0,0,1,58,4.4a.86.86,0,0,1-.84.88A6.58,6.58,0,0,0,52.31,7.4a5.82,5.82,0,0,0,0,7.91,4,4,0,0,0,5.75,0,3.39,3.39,0,0,0,0-4.62,2.28,2.28,0,0,0-3.25,0,.83.83,0,0,1-1.19,0,.93.93,0,0,1,0-1.26,3.92,3.92,0,0,1,5.63,0,5.25,5.25,0,0,1,0,7.12A5.59,5.59,0,0,1,55.19,18.34Z"/><path class="cls-1" d="M75.3,20.89a3.61,3.61,0,0,1-3.5-3.7,3,3,0,0,1,2.88-3,.42.42,0,0,1,0,.84,2.15,2.15,0,0,0-2.09,2.2,2.79,2.79,0,0,0,2.71,2.86,3.59,3.59,0,0,0,3.48-3.68,4.59,4.59,0,0,0-4.45-4.7,5.83,5.83,0,0,0-5.66,6,.4.4,0,1,1-.8,0,6.66,6.66,0,0,1,6.46-6.82,5.41,5.41,0,0,1,5.24,5.54A4.41,4.41,0,0,1,75.3,20.89Z"/><path class="cls-1" d="M75.3,21.36a4.06,4.06,0,0,1-3.94-4.17,3.43,3.43,0,0,1,3.32-3.51.89.89,0,0,1,0,1.78A1.69,1.69,0,0,0,73,17.19a2.33,2.33,0,0,0,2.27,2.39,3.14,3.14,0,0,0,3-3.21,4.13,4.13,0,0,0-4-4.23,5.37,5.37,0,0,0-5.22,5.51.84.84,0,1,1-1.68,0,7.1,7.1,0,0,1,6.9-7.28,5.85,5.85,0,0,1,5.68,6A4.86,4.86,0,0,1,75.3,21.36Z"/><path class="cls-1" d="M64.42,17.87a5.11,5.11,0,0,1-3.75-1.64,4.75,4.75,0,0,1,0-6.46,3.41,3.41,0,0,1,5,0,.46.46,0,0,1,0,.6.39.39,0,0,1-.56,0,2.64,2.64,0,0,0-3.88,0,3.86,3.86,0,0,0,0,5.26,4.32,4.32,0,0,0,6.37,0,6.14,6.14,0,0,0,1.68-4.28A6.14,6.14,0,0,0,67.6,7.07a7,7,0,0,0-4.81-2.24.41.41,0,0,1-.37-.44.39.39,0,0,1,.41-.4,7.87,7.87,0,0,1,5.34,2.48,7.19,7.19,0,0,1,0,9.76A5.15,5.15,0,0,1,64.42,17.87Z"/><path class="cls-1" d="M64.42,18.34a5.56,5.56,0,0,1-4.06-1.78,5.23,5.23,0,0,1,0-7.12,3.91,3.91,0,0,1,5.62,0,.93.93,0,0,1,0,1.26.81.81,0,0,1-1.18,0,2.27,2.27,0,0,0-3.26,0,3.41,3.41,0,0,0,0,4.62,4,4,0,0,0,5.75,0,5.82,5.82,0,0,0,0-7.91,6.63,6.63,0,0,0-4.51-2.11.86.86,0,0,1-.8-.92.89.89,0,0,1,.29-.64.76.76,0,0,1,.6-.21,8.29,8.29,0,0,1,5.61,2.62,7.51,7.51,0,0,1,2,5.21,7.51,7.51,0,0,1-2,5.21A5.59,5.59,0,0,1,64.42,18.34Z"/><path class="cls-1" d="M44.1,26.85a.39.39,0,0,1-.31-.15.44.44,0,0,1,.05-.59,24.09,24.09,0,0,1,31.92,0,.43.43,0,0,1,.06.59.38.38,0,0,1-.56.06,23.33,23.33,0,0,0-30.91,0A.38.38,0,0,1,44.1,26.85Z"/><path class="cls-1" d="M44.1,27.32a.82.82,0,0,1-.65-.33.92.92,0,0,1,.11-1.24,24.5,24.5,0,0,1,32.48,0A.94.94,0,0,1,76.16,27a.8.8,0,0,1-1.18.12,22.91,22.91,0,0,0-30.35,0A.81.81,0,0,1,44.1,27.32Z"/><path class="cls-1" d="M30.6,26.9c-4.14,0-7.52-3.65-7.52-8.15a6.38,6.38,0,0,1,6.1-6.6,5.18,5.18,0,0,1,5,5.37,4.22,4.22,0,0,1-4,4.37,3.45,3.45,0,0,1-3.31-3.58.4.4,0,0,1,.39-.42.41.41,0,0,1,.4.42,2.64,2.64,0,0,0,2.52,2.74,3.4,3.4,0,0,0,3.25-3.53A4.36,4.36,0,0,0,29.18,13a5.56,5.56,0,0,0-5.3,5.76c0,4,3,7.31,6.72,7.31a.42.42,0,0,1,0,.84Z"/><path class="cls-1" d="M30.6,27.37c-4.39,0-8-3.87-8-8.61a6.83,6.83,0,0,1,6.54-7.07,5.63,5.63,0,0,1,5.4,5.83,4.68,4.68,0,0,1-4.49,4.84,3.91,3.91,0,0,1-3.75-4.05.84.84,0,1,1,1.67,0,2.19,2.19,0,0,0,2.08,2.28,3,3,0,0,0,2.81-3.07,3.91,3.91,0,0,0-3.72-4.06,5.1,5.1,0,0,0-4.86,5.3A6.59,6.59,0,0,0,30.6,25.6a.85.85,0,0,1,.84.88A.86.86,0,0,1,30.6,27.37Z"/><path class="cls-1" d="M89.15,26.9a.42.42,0,0,1,0-.84c3.71,0,6.72-3.28,6.72-7.31A5.55,5.55,0,0,0,90.57,13a4.36,4.36,0,0,0-4.16,4.53,3.4,3.4,0,0,0,3.25,3.53,2.64,2.64,0,0,0,2.52-2.74.4.4,0,1,1,.8,0,3.46,3.46,0,0,1-3.32,3.58,4.22,4.22,0,0,1-4-4.37,5.18,5.18,0,0,1,4.95-5.37,6.38,6.38,0,0,1,6.1,6.6C96.67,23.25,93.29,26.9,89.15,26.9Z"/><path class="cls-1" d="M89.15,27.37a.87.87,0,0,1-.84-.89.86.86,0,0,1,.84-.88,6.59,6.59,0,0,0,6.28-6.84,5.1,5.1,0,0,0-4.86-5.3,3.91,3.91,0,0,0-3.72,4.06,3,3,0,0,0,2.81,3.07,2.19,2.19,0,0,0,2.08-2.28.84.84,0,1,1,1.68,0,3.92,3.92,0,0,1-3.76,4.05,4.68,4.68,0,0,1-4.48-4.84,5.63,5.63,0,0,1,5.39-5.83,6.82,6.82,0,0,1,6.54,7.07C97.11,23.5,93.54,27.37,89.15,27.37Z"/><path class="cls-1" d="M90.18,26.9H29.73c-.09,0-.16-.19-.16-.42s.07-.42.16-.42H90.18c.09,0,.16.19.16.42S90.27,26.9,90.18,26.9Z"/><path class="cls-1" d="M90.18,27.37H29.73c-.36,0-.6-.36-.6-.89s.24-.88.6-.88H90.18c.36,0,.6.35.6.88S90.54,27.37,90.18,27.37Z"/><path class="cls-1" d="M59.8,12.94l-.38-1.17c-.23-.72-2.29-7.13-2.29-8.49a2.67,2.67,0,1,1,5.34,0c0,1.36-2.06,7.77-2.3,8.49Zm0-11.63a1.92,1.92,0,0,0-1.87,2,50.69,50.69,0,0,0,1.87,7,50.69,50.69,0,0,0,1.87-7A1.92,1.92,0,0,0,59.8,1.31Z"/><path class="cls-1" d="M59.8,14.38,59,11.92c-.39-1.19-2.32-7.24-2.32-8.64a3.11,3.11,0,1,1,6.22,0c0,1.41-1.93,7.45-2.32,8.64Zm0-12.61a1.47,1.47,0,0,0-1.43,1.51A38.27,38.27,0,0,0,59.8,8.82a38.27,38.27,0,0,0,1.43-5.54A1.47,1.47,0,0,0,59.8,1.77Z"/></g></g></svg>