<svg xmlns="http://www.w3.org/2000/svg" viewBox="0 0 96.14 84.74"><defs><style>.cls-1{fill:#f2f5fb;}</style></defs><g id="Layer_2" data-name="Layer 2"><g id="Layer_1-2" data-name="Layer 1"><path class="cls-1" d="M45.36,59.21c-2.43.54-4.81.26-7.19.29l-.11-.28a3.49,3.49,0,0,0,.56-.52c.42-.58,1.11-1.16,1.15-1.77.14-2.32.06-4.66.06-7.09-.24.12-.43.19-.61.3a3.87,3.87,0,0,1-5.45-1c-.52-.67-.88-.92-1.63-.22-3.08,2.91-7.48,2.24-10.28-.6a7.62,7.62,0,0,1-.36-10.17c1.53-1.8,3.26-3.37,5.82-3.27a10.37,10.37,0,0,1,2.63.71,9.8,9.8,0,0,1,1.3.7,8.11,8.11,0,0,0,.12-1.69c-.18-1.4-.42-2.79-.69-4.17a3.5,3.5,0,0,0-2.72-3,4.06,4.06,0,0,0-4.33,1.42c-.41.51-.73,1.1-1.1,1.66l-.32,0a3,3,0,0,1,.08-1.17A6,6,0,0,1,26.89,26a13.8,13.8,0,0,1,2.49,0c2.74.14,4.45,1.43,4.92,4.13.71,4.07,1.17,8.18,1.75,12.27.25,1.81.51,3.62.81,5.42.13.75.5,1.35,1.37,1.37a1.46,1.46,0,0,0,1.49-1.25,4.5,4.5,0,0,0,.21-1.32c0-4.87,0-9.75,0-14.63a2.28,2.28,0,0,0-2.16-2.54,10.17,10.17,0,0,1,1.07-.86c1.2-.69,2.42-1.33,3.61-2,.67-.39.93-.17,1,.53s.15,1.5.26,2.56a11.08,11.08,0,0,0,.86-.92c2.18-3.21,5.54-3.7,8.49-1.17,3.26,2.81,4.63,6.55,4.94,10.72a13.45,13.45,0,0,1-1.78,8.24,8.49,8.49,0,0,1-6.12,4.08,5.76,5.76,0,0,1-4.53-1.18c-.48-.36-1-.7-1.45-1l-.33.07V51.8c0,1.54,0,3.08,0,4.62A3.35,3.35,0,0,0,45.36,59.21ZM43.61,39.3h.32A53.4,53.4,0,0,0,44,45a3.71,3.71,0,0,0,2.84,3.51,3.82,3.82,0,0,0,4.3-1.83,18.18,18.18,0,0,0,2.82-12.12,11.65,11.65,0,0,0-2.06-5.82,3.5,3.5,0,0,0-5.06-1A6.24,6.24,0,0,0,44,32.41C43.67,34.68,43.71,37,43.61,39.3Zm-11,5.18-.1,0c0-.58,0-1.16-.12-1.73-.18-1.2-.39-2.4-.63-3.59a3.78,3.78,0,0,0-3.54-3.35c-1.46-.18-2.85.7-3.6,2.5a10.3,10.3,0,0,0,.52,9.07,4.48,4.48,0,0,0,3.37,2.32A2.78,2.78,0,0,0,32,47.58,24.82,24.82,0,0,0,32.58,44.48Z"/><path class="cls-1" d="M8.21,50.7h-8l-.1-.28A2.17,2.17,0,0,1,.67,50a1.94,1.94,0,0,0,1.4-2.14c0-5.35,0-10.71,0-16.06S2,21,2.08,15.62c0-1.36-.2-2.45-2.08-2.71,1.81-1.55,3.73-2.25,5.7-3.43A15.53,15.53,0,0,1,6,11.58c0,4.65-.07,9.3-.11,14,0,1.17,0,2.34,0,3.51l.34.09c.63-.57,1.27-1.13,1.89-1.71A5.42,5.42,0,0,1,14,26.24a5.17,5.17,0,0,1,3.52,4.54c.56,4.16,1,8.34,1.45,12.51.16,1.43.36,2.86.53,4.29a2.74,2.74,0,0,0,1.79,2.51.63.63,0,0,1,.23.17.44.44,0,0,1,.07.17c-.67.43-7,.48-7.9,0a4.69,4.69,0,0,1,.75-.56,1.75,1.75,0,0,0,1.11-1.93c-.35-3.6-.69-7.21-1.08-10.8-.24-2.17-.57-4.32-.86-6.48-.18-1.29-.54-2.55-1.85-3s-2.45.25-3.44,1.15a7.1,7.1,0,0,0-2.36,5.39c0,4.07-.09,8.14-.15,12.21,0,1.7.16,3.23,2.06,3.88C7.91,50.26,8,50.37,8.21,50.7Z"/><path class="cls-1" d="M28.44,84h-8c.27-.29.35-.46.48-.51,1.48-.54,1.65-1.7,1.49-3q-.9-7.78-1.79-15.58a11.14,11.14,0,0,0-.37-2,2.55,2.55,0,0,0-4.18-1.44,6.65,6.65,0,0,0-3.15,5.46c-.13,4.49-.15,9-.2,13.47,0,1.41.32,2.63,1.86,3.12a.79.79,0,0,1,.25.15s.06.1.19.35A31.06,31.06,0,0,1,7.07,84L7,83.78c.17-.14.33-.35.52-.4A1.94,1.94,0,0,0,9,81.2c0-2.44,0-4.88,0-7.31,0-8.28,0-16.56,0-24.84,0-1.33-.15-2.47-2-2.79a7.45,7.45,0,0,1,1-.92c1.11-.64,2.24-1.24,3.37-1.85s1.37-.46,1.39.77c0,2.37,0,4.74,0,7.12,0,3.14,0,6.29,0,9.43,0,.53.07,1.06.12,1.86l1.64-1.55a5.83,5.83,0,0,1,7.78-.69,5.66,5.66,0,0,1,2.08,4c.38,2.73.68,5.47,1,8.21s.61,5.41.91,8.12a2.8,2.8,0,0,0,1.82,2.69,4.28,4.28,0,0,1,.44.2Z"/><path class="cls-1" d="M63.05,29.51l.36-.67c1.78-3.23,6-4.34,9.44-.54C76,31.71,77,35.87,76.78,40.4c-.19,3.16-1.06,6.08-3.57,8.24s-6,3-9.2.35c-.28-.25-.6-.45-1.08-.81-.06.53-.14.89-.15,1.25q-.06,3.32-.09,6.63a2.58,2.58,0,0,0,1.2,2.64c.14.08.32.35.28.43a.69.69,0,0,1-.46.38c-.8.06-1.6.07-2.4.08H57.14l-.08-.32c.12-.16.21-.38.37-.47A2.91,2.91,0,0,0,58.86,56q0-9.48,0-19c0-1.64,0-3.27,0-4.91,0-1.23-.21-2.24-1.61-2.55-.11,0-.2-.14-.41-.29a9.52,9.52,0,0,1,1-.76c1.14-.66,2.29-1.29,3.45-1.92.88-.48,1.07-.36,1.14.68l.12,2Zm9.84,7a12.8,12.8,0,0,0-2-7.69A3.56,3.56,0,0,0,65.34,28a5.72,5.72,0,0,0-2.42,4.13c-.16,4.34-.19,8.71,0,13.05a3.56,3.56,0,0,0,3.75,3.4,4.32,4.32,0,0,0,3.7-2.39A18,18,0,0,0,72.89,36.54Z"/><path class="cls-1" d="M57.4,63c1.85-.93,3.45-1.79,5.11-2.53.78-.35.9.29.89.9,0,2.82-.1,5.65-.14,8.47,0,3-.08,6.09-.09,9.14,0,1.83-.37,3.84,2.06,4.73l-.15.22a6.16,6.16,0,0,1-.94.16c-1.19,0-2.38,0-3.56,0-.8,0-1.08-.3-1.12-1a17.87,17.87,0,0,0-.3-1.78c-.44.39-.9.76-1.3,1.18-2.58,2.7-6,3-8.57.71a4.72,4.72,0,0,1-1.64-3.75q0-6,0-12V67.1c-.05-1.6.22-3.37-2.16-3.82a34.1,34.1,0,0,1,5.58-3.21c.07.79.17,1.41.17,2,0,4.49,0,9,0,13.48,0,1.37.1,2.75.23,4.12a3.18,3.18,0,0,0,4.74,2.61,5.63,5.63,0,0,0,3.13-5.08c.22-3.9.17-7.82.2-11.73a1.91,1.91,0,0,0-1.33-1.93A6.24,6.24,0,0,1,57.4,63Z"/><path class="cls-1" d="M46.66,73.29c0,6.2-2.29,9.76-6.5,11.06-3.19,1-6,0-8.6-1.85-6.14-4.3-6.72-14-2.43-19.28,3.1-3.84,8.4-4.16,12.3-.66A15.51,15.51,0,0,1,46.66,73.29Zm-3.75,5.18a32.91,32.91,0,0,0-3-12.32,17.92,17.92,0,0,0-2.52-3.72A5,5,0,0,0,35.12,61c-2.23-.68-4.47,1-4.77,3.59a28.5,28.5,0,0,0,0,5.84A19.46,19.46,0,0,0,35.08,82a4.18,4.18,0,0,0,7.26-1.16A12.09,12.09,0,0,0,42.91,78.47Z"/><path class="cls-1" d="M87.46,26.6a46.49,46.49,0,0,1,6.62-.11c-.33.37-.42.57-.57.62a4.65,4.65,0,0,0-2.62,3c-1.25,3.5-2.46,7-3.68,10.53-1.66,4.79-3.29,9.58-5,14.35-.71,2-1.8,3.81-4.15,4.08a11,11,0,0,1-3.38-.44,1.27,1.27,0,0,1-.69-.91c-.21-1.4-.32-2.8-.44-4.21a4,4,0,0,1,.24-1l.65.93c.35.53.68,1.08,1.07,1.59,1.54,2,3.87,2,5.26-.12a20.17,20.17,0,0,0,1.73-3.63A4.64,4.64,0,0,0,82.22,48q-3.31-9-6.59-18.08a4.61,4.61,0,0,0-2.06-2.68c-.15-.08-.24-.26-.55-.62h8.14l.26.26a3.34,3.34,0,0,0-.69.32c-1.23.91-1.42,1.37-.93,2.85,1.13,3.44,2.32,6.86,3.49,10.29.28.85.55,1.71.88,2.54a3.31,3.31,0,0,0,.56.7,3.08,3.08,0,0,0,.58-.7c.83-2.33,1.65-4.66,2.43-7,.62-1.85,1.19-3.72,1.74-5.6.46-1.55.17-2.15-1.22-2.89-.3-.16-.57-.35-.86-.53Z"/><path class="cls-1" d="M73.37,84H65.79c.2-.26.28-.46.42-.52a2.81,2.81,0,0,0,1.66-2.9c0-4.87,0-9.75,0-14.63a2.3,2.3,0,0,0-2-2.6L66,63l5.13-3,.37.14v6l.41.09c.22-.34.47-.68.68-1a36.26,36.26,0,0,1,2-3.48,4.35,4.35,0,0,1,6.13-1.16c.26.18.58.62.53.88-.3,1.6-.7,3.19-1.07,4.77,0,.14-.17.25-.41.58-.2-.69-.38-1.18-.5-1.69a2.86,2.86,0,0,0-2.08-2.4,2.57,2.57,0,0,0-2.92,1.19,14,14,0,0,0-1.62,3.35A37.2,37.2,0,0,0,71.52,78c0,2.12-.54,4.47,2.07,5.77Z"/><path class="cls-1" d="M81.83,83.36V76h.42a14.62,14.62,0,0,0,1.83,4.34q2,3,4.69,3a4.31,4.31,0,0,0,2.84-1,3.84,3.84,0,0,0,1.31-3.11A4.59,4.59,0,0,0,92,76.27a5.91,5.91,0,0,0-1.32-1.2A28.18,28.18,0,0,0,88,73.53a18.3,18.3,0,0,1-4.38-2.93A5.49,5.49,0,0,1,82,66.73a5.78,5.78,0,0,1,1.57-4.06,6.23,6.23,0,0,1,4.79-1.93,6.56,6.56,0,0,1,2.48.47l.89.39a2,2,0,0,0,.73.16c.33,0,.65-.26.94-.79H94l.29,5.94H93.7a11.42,11.42,0,0,0-.61-2,6.65,6.65,0,0,0-2.8-3,4.46,4.46,0,0,0-2.11-.57,3.35,3.35,0,0,0-2.49,1.06,3.59,3.59,0,0,0-1,2.6,3.41,3.41,0,0,0,.92,2.32,8.34,8.34,0,0,0,2.86,1.89l2.76,1.26a9.09,9.09,0,0,1,3.71,2.8,6.46,6.46,0,0,1,1.23,3.94,6.26,6.26,0,0,1-1.78,4.56,7,7,0,0,1-5.23,2.09,9.89,9.89,0,0,1-3.51-.68c-.76-.3-1.23-.47-1.38-.51a2.06,2.06,0,0,0-.6-.07,1.51,1.51,0,0,0-1.39.79Z"/><path class="cls-1" d="M34.16,15.41a3.28,3.28,0,0,1-3.27-3.27,4,4,0,0,1,4-4,4.94,4.94,0,0,1,4.94,4.94.3.3,0,0,1-.3.3.31.31,0,0,1-.31-.3A4.34,4.34,0,0,0,34.9,8.73a3.41,3.41,0,0,0-3.4,3.41,2.66,2.66,0,0,0,2.66,2.66,2.07,2.07,0,0,0,2.07-2.07,1.59,1.59,0,0,0-1.59-1.59.31.31,0,1,1,0-.61,2.21,2.21,0,0,1,2.2,2.2A2.68,2.68,0,0,1,34.16,15.41Z"/><path class="cls-1" d="M34.16,15.75a3.61,3.61,0,0,1-3.61-3.61A4.35,4.35,0,0,1,34.9,7.79a5.29,5.29,0,0,1,5.28,5.28.64.64,0,0,1-1.28,0,4,4,0,0,0-4-4,3.08,3.08,0,0,0-3.07,3.07,2.33,2.33,0,0,0,2.33,2.32,1.72,1.72,0,0,0,1.73-1.73,1.26,1.26,0,0,0-1.25-1.26.64.64,0,1,1,0-1.28,2.54,2.54,0,0,1,2.54,2.54A3,3,0,0,1,34.16,15.75Z"/><path class="cls-1" d="M42.23,12.94a4,4,0,0,1-2.87-1.19,5,5,0,0,1,0-7.06,6.09,6.09,0,0,1,4.36-1.81.31.31,0,1,1,0,.61,5.53,5.53,0,0,0-3.93,1.63,4.37,4.37,0,0,0,0,6.2,3.45,3.45,0,0,0,4.88,0,2.69,2.69,0,0,0,0-3.81,2.1,2.1,0,0,0-1.49-.62,2.07,2.07,0,0,0-1.48.62.3.3,0,1,1-.43-.43,2.69,2.69,0,0,1,3.83,0,3.3,3.3,0,0,1,0,4.67A4,4,0,0,1,42.23,12.94Z"/><path class="cls-1" d="M42.23,13.28A4.38,4.38,0,0,1,39.12,12a5.34,5.34,0,0,1,0-7.54,6.46,6.46,0,0,1,4.6-1.91.65.65,0,0,1,0,1.29A5.16,5.16,0,0,0,40,5.36a4,4,0,0,0,0,5.73,3.2,3.2,0,0,0,4.4,0,2.34,2.34,0,0,0,.69-1.67,2.3,2.3,0,0,0-.69-1.67,1.79,1.79,0,0,0-2.49,0,.67.67,0,0,1-.91,0,.65.65,0,0,1,0-.91,3.12,3.12,0,0,1,4.31,0,3.66,3.66,0,0,1,0,5.15A4.38,4.38,0,0,1,42.23,13.28Z"/><path class="cls-1" d="M57.62,15.13a2.68,2.68,0,0,1-2.68-2.68,2.21,2.21,0,0,1,2.2-2.2.31.31,0,1,1,0,.61,1.59,1.59,0,0,0-1.59,1.59,2.07,2.07,0,0,0,2.07,2.07,2.66,2.66,0,0,0,2.66-2.66,3.41,3.41,0,0,0-3.4-3.41,4.35,4.35,0,0,0-4.34,4.34.3.3,0,0,1-.6,0,4.94,4.94,0,0,1,4.94-4.94,4,4,0,0,1,4,4A3.28,3.28,0,0,1,57.62,15.13Z"/><path class="cls-1" d="M57.62,15.47a3,3,0,0,1-3-3,2.54,2.54,0,0,1,2.54-2.54.65.65,0,1,1,0,1.29,1.25,1.25,0,0,0-1.25,1.25,1.72,1.72,0,0,0,1.73,1.73,2.32,2.32,0,0,0,2.32-2.32,3.07,3.07,0,0,0-3.06-3.07,4,4,0,0,0-4,4,.64.64,0,0,1-1.28,0,5.29,5.29,0,0,1,5.28-5.28,4.35,4.35,0,0,1,4.35,4.35A3.61,3.61,0,0,1,57.62,15.47Z"/><path class="cls-1" d="M49.29,12.94a4,4,0,0,1-2.87-1.19,3.3,3.3,0,0,1,0-4.67,2.69,2.69,0,0,1,3.83,0,.3.3,0,0,1-.43.43,2.07,2.07,0,0,0-1.48-.62,2.1,2.1,0,0,0-1.49.62,2.7,2.7,0,0,0,0,3.81,3.45,3.45,0,0,0,4.88,0,4.37,4.37,0,0,0,0-6.2A5.49,5.49,0,0,0,48.05,3.5a.3.3,0,0,1-.29-.32.3.3,0,0,1,.32-.29,6.15,6.15,0,0,1,4.08,1.8,5,5,0,0,1,0,7.06A4,4,0,0,1,49.29,12.94Z"/><path class="cls-1" d="M49.29,13.28A4.36,4.36,0,0,1,46.19,12a3.63,3.63,0,0,1,0-5.15,3.11,3.11,0,0,1,4.3,0,.64.64,0,0,1-.91.91,1.79,1.79,0,0,0-2.49,0,2.37,2.37,0,0,0,0,3.34,3.2,3.2,0,0,0,4.4,0,4,4,0,0,0,0-5.73A5.18,5.18,0,0,0,48,3.83a.64.64,0,1,1,.07-1.28,6.47,6.47,0,0,1,4.29,1.9,5.34,5.34,0,0,1,0,7.54A4.36,4.36,0,0,1,49.29,13.28Z"/><path class="cls-1" d="M33.74,19.45a.31.31,0,0,1-.23-.11.3.3,0,0,1,0-.43,19.21,19.21,0,0,1,24.42,0,.31.31,0,0,1,.05.43.3.3,0,0,1-.43,0,18.61,18.61,0,0,0-23.65,0A.31.31,0,0,1,33.74,19.45Z"/><path class="cls-1" d="M33.74,19.79a.64.64,0,0,1-.4-1.14,19.54,19.54,0,0,1,24.85,0,.66.66,0,0,1,.23.43.63.63,0,0,1-.58.7.63.63,0,0,1-.47-.14,18.28,18.28,0,0,0-23.22,0A.66.66,0,0,1,33.74,19.79Z"/><path class="cls-1" d="M23.42,19.48a5.84,5.84,0,0,1-5.76-5.9A4.74,4.74,0,0,1,22.33,8.8a3.85,3.85,0,0,1,3.79,3.89A3.14,3.14,0,0,1,23,15.86a2.58,2.58,0,0,1-2.54-2.6.31.31,0,0,1,.61,0,2,2,0,0,0,1.93,2,2.52,2.52,0,0,0,2.48-2.56,3.24,3.24,0,0,0-3.18-3.28,4.12,4.12,0,0,0-4.06,4.17,5.23,5.23,0,0,0,5.15,5.3.3.3,0,1,1,0,.6Z"/><path class="cls-1" d="M23.42,19.82a6.17,6.17,0,0,1-6.09-6.24,5.06,5.06,0,0,1,5-5.11,4.18,4.18,0,0,1,4.13,4.22A3.47,3.47,0,0,1,23,16.19a2.9,2.9,0,0,1-2.88-2.93.65.65,0,0,1,1.29,0A1.62,1.62,0,0,0,23,14.91a2.19,2.19,0,0,0,2.14-2.22,2.89,2.89,0,0,0-2.84-2.94,3.78,3.78,0,0,0-3.72,3.83,4.89,4.89,0,0,0,4.81,5,.64.64,0,1,1,0,1.28Z"/><path class="cls-1" d="M68.22,19.48a.3.3,0,1,1,0-.6,5.23,5.23,0,0,0,5.14-5.3,4.12,4.12,0,0,0-4-4.17,3.24,3.24,0,0,0-3.19,3.28,2.53,2.53,0,0,0,2.49,2.56,2,2,0,0,0,1.93-2,.29.29,0,0,1,.3-.3.3.3,0,0,1,.31.3,2.58,2.58,0,0,1-2.54,2.6,3.13,3.13,0,0,1-3.09-3.17A3.85,3.85,0,0,1,69.31,8.8,4.73,4.73,0,0,1,74,13.58,5.83,5.83,0,0,1,68.22,19.48Z"/><path class="cls-1" d="M68.22,19.82a.64.64,0,0,1,0-1.28,4.89,4.89,0,0,0,4.81-5,3.78,3.78,0,0,0-3.72-3.83,2.9,2.9,0,0,0-2.85,2.94,2.19,2.19,0,0,0,2.15,2.22,1.62,1.62,0,0,0,1.59-1.65.64.64,0,0,1,.64-.64.64.64,0,0,1,.64.64,2.9,2.9,0,0,1-2.87,2.93,3.47,3.47,0,0,1-3.43-3.5,4.18,4.18,0,0,1,4.13-4.22,5.06,5.06,0,0,1,5,5.11A6.17,6.17,0,0,1,68.22,19.82Z"/><path class="cls-1" d="M69,19.48H22.75c-.07,0-.12-.13-.12-.3s.05-.3.12-.3H69c.06,0,.12.13.12.3S69.07,19.48,69,19.48Z"/><path class="cls-1" d="M69,19.82H22.75c-.27,0-.46-.26-.46-.64s.19-.64.46-.64H69c.27,0,.46.26.46.64S69.28,19.82,69,19.82Z"/><path class="cls-1" d="M45.76,9.37l-.29-.84a46,46,0,0,1-1.75-6.15,2,2,0,0,1,4.08,0,46,46,0,0,1-1.75,6.15Zm0-8.42a1.43,1.43,0,0,0-1.43,1.43,34.64,34.64,0,0,0,1.43,5.09,34.64,34.64,0,0,0,1.43-5.09A1.43,1.43,0,0,0,45.76,1Z"/><path class="cls-1" d="M45.76,10.42l-.61-1.78a44.54,44.54,0,0,1-1.77-6.26,2.38,2.38,0,0,1,4.76,0,44.54,44.54,0,0,1-1.77,6.26Zm0-9.14a1.1,1.1,0,0,0-1.1,1.1,26.56,26.56,0,0,0,1.1,4,26,26,0,0,0,1.09-4A1.09,1.09,0,0,0,45.76,1.28Z"/></g></g></svg>