<svg xmlns="http://www.w3.org/2000/svg" viewBox="0 0 138 189"><defs><style>.cls-1{fill:#f2f5fb;}</style></defs><g id="Layer_2" data-name="Layer 2"><g id="Layer_1-2" data-name="Layer 1"><path class="cls-1" d="M79.23,93.36c-.15-2.67-.33-6.19-.54-9.7a9.72,9.72,0,0,0-3.48-7.09c-2.62-2.26-5.07-4.74-5.66-8.31-1.22-7.33.14-14.26,4.87-20,4.5-5.45,9.3-5.45,13.82,0,4.7,5.65,6,12.5,5,19.72-.54,3.74-3.11,6.34-5.84,8.7A9.54,9.54,0,0,0,84,83.49c-.2,2.86-.42,5.72-.48,8.58a90.92,90.92,0,0,0,1.82,21.58,24.29,24.29,0,0,1-.22,11.65,9.15,9.15,0,0,0,.17,5.31c.84,2.63,1.6,5.29,2.23,8,.8,3.35-.48,5.71-3.53,6.87s-7.21.11-8.42-2.63a8,8,0,0,1-.36-4.36,60.21,60.21,0,0,1,2.06-7.55,9.76,9.76,0,0,0,.25-5.74,25.35,25.35,0,0,1,0-12.39C78.87,106.66,79.09,100.44,79.23,93.36Z"/><path class="cls-1" d="M48.71,44a21.77,21.77,0,0,1,.23,2.42c0,6-.09,12.07-.12,18.1A6.78,6.78,0,0,0,49,66.61a1.46,1.46,0,0,0,1,.88c.33,0,.83-.5,1-.89A4.57,4.57,0,0,0,51.26,65c.18-6,.35-12,.55-17.94a25.59,25.59,0,0,1,.38-2.73h.45a9,9,0,0,1,.29,1.6c0,5.73.07,11.46.12,17.19a15,15,0,0,0,.19,3.29,2.06,2.06,0,0,0,1.39,1.24c.36.06,1-.69,1.24-1.21A6,6,0,0,0,56,64.32c0-5.68,0-11.36,0-17,0-1,.19-2,.29-2.93l.43-.06a8.53,8.53,0,0,1,.39,1.7c.23,6.17.43,12.35.65,18.53A7.51,7.51,0,0,0,58,66.59c.13.39.64.89,1,.89a1.46,1.46,0,0,0,1-.85,4.92,4.92,0,0,0,.19-1.77q0-9.57-.07-19.15c0-.57.1-1.13.15-1.69l.53,0c.17,1.34.45,2.67.51,4,.34,8.18.59,16.37,1,24.55a6,6,0,0,1-1.91,4.87,12.55,12.55,0,0,0-3.83,9.65c0,6.88.06,13.77.33,20.64.12,3.14,1,6.26,1.19,9.4a38.38,38.38,0,0,1-.46,7.94,13.77,13.77,0,0,0,.28,5.79c.71,2.66,1.37,5.35,1.84,8.07a4.92,4.92,0,0,1-2.85,5.46,5.26,5.26,0,0,1-6.13-.92,4.6,4.6,0,0,1-1.5-4.37c.57-3,1.38-5.86,1.91-8.82a13,13,0,0,0,.19-4.72c-1-5.1-.43-10.09.41-15.12,1.26-7.64,1-15.33.72-23-.12-4-1.23-7.59-4.26-10.43a5.48,5.48,0,0,1-1.54-4.25A223.07,223.07,0,0,1,48.09,44.9c0-.29.13-.57.19-.86Z"/><path class="cls-1" d="M69,189c-22.61,0-41-21.86-41-48.74v-.13C11.44,133.54,0,114.8,0,93.91S11.44,54.26,28,47.68C28.48,21.29,46.69,0,69,0s40.52,21.29,41,47.68c16.57,6.58,28,25.34,28,46.23s-11.44,39.63-28,46.22v.13C110,167.14,91.61,189,69,189ZM69,4.75c-20.4,0-37,19.73-37,44l0,2.46-1.46.51C14.93,57.16,4,74.51,4,93.91s10.94,36.76,26.6,42.2l1.5.52L32,138.49c0,.59,0,1.18,0,1.77,0,24.26,16.6,44,37,44s37-19.73,37-44c0-.59,0-1.18,0-1.77l-.06-1.86,1.5-.52c15.66-5.44,26.6-22.8,26.6-42.2s-10.93-36.75-26.58-42.2L106,51.2l0-2.46C106,24.48,89.4,4.75,69,4.75Z"/></g></g></svg>