<svg xmlns="http://www.w3.org/2000/svg" viewBox="0 0 46.8 101.94"><defs><style>.cls-1{fill:#f2f5fb;}</style></defs><g id="Layer_2" data-name="Layer 2"><g id="Layer_1-2" data-name="Layer 1"><path class="cls-1" d="M32.49,49.36c-.14-2.67-.33-6.19-.53-9.7a9.76,9.76,0,0,0-3.49-7.09c-2.62-2.26-5.07-4.74-5.66-8.31C21.6,16.93,23,10,27.69,4.25,32.18-1.2,37-1.2,41.5,4.24c4.7,5.65,6,12.5,5,19.72-.54,3.74-3.1,6.34-5.83,8.7a9.51,9.51,0,0,0-3.38,6.83c-.2,2.86-.42,5.72-.48,8.58A90.92,90.92,0,0,0,38.6,69.65a24.29,24.29,0,0,1-.22,11.65,9.07,9.07,0,0,0,.18,5.31c.83,2.63,1.59,5.29,2.23,8,.79,3.35-.49,5.71-3.54,6.87s-7.21.11-8.42-2.63a7.86,7.86,0,0,1-.35-4.36,58.51,58.51,0,0,1,2.05-7.55,9.68,9.68,0,0,0,.25-5.74,25.47,25.47,0,0,1-.05-12.39C32.13,62.66,32.35,56.44,32.49,49.36Z"/><path class="cls-1" d="M2,0c.08.8.24,1.61.24,2.42,0,6-.1,12.07-.13,18.1a6.78,6.78,0,0,0,.21,2.07,1.48,1.48,0,0,0,1,.88c.34,0,.83-.5,1-.89A4.81,4.81,0,0,0,4.52,21C4.7,15,4.87,9,5.07,3A25.59,25.59,0,0,1,5.45.31H5.9a9,9,0,0,1,.29,1.6c.06,5.73.07,11.46.12,17.19a14.38,14.38,0,0,0,.2,3.29,2,2,0,0,0,1.38,1.24c.36.06,1-.69,1.24-1.21a5.8,5.8,0,0,0,.17-2.09c0-5.68,0-11.36,0-17,0-1,.19-2,.29-2.93L10,.29A8.53,8.53,0,0,1,10.43,2c.23,6.17.43,12.35.65,18.53a7.52,7.52,0,0,0,.23,2.07c.12.39.64.89,1,.89a1.46,1.46,0,0,0,1-.85,4.92,4.92,0,0,0,.19-1.77q0-9.57-.06-19.15A15.82,15.82,0,0,1,13.6,0l.53,0c.17,1.34.45,2.67.51,4,.34,8.18.59,16.37,1,24.55a6,6,0,0,1-1.91,4.87,12.55,12.55,0,0,0-3.83,9.65c0,6.88.06,13.77.33,20.64.13,3.14,1,6.26,1.19,9.4a38.38,38.38,0,0,1-.46,7.94,13.77,13.77,0,0,0,.28,5.79c.71,2.66,1.37,5.35,1.85,8.07a4.94,4.94,0,0,1-2.86,5.46,5.24,5.24,0,0,1-6.12-.92A4.6,4.6,0,0,1,2.57,95.1c.57-3,1.38-5.86,1.92-8.82a13.19,13.19,0,0,0,.18-4.72c-1-5.1-.43-10.09.41-15.12,1.26-7.64,1-15.33.73-23-.13-4-1.24-7.59-4.27-10.43A5.52,5.52,0,0,1,0,28.74,223.08,223.08,0,0,1,1.36.9,8.77,8.77,0,0,1,1.54,0Z"/></g></g></svg>