<svg xmlns="http://www.w3.org/2000/svg" viewBox="0 0 93.21 107"><defs><style>.cls-1{fill:#f2f5fb;}</style></defs><g id="Layer_2" data-name="Layer 2"><g id="Layer_1-2" data-name="Layer 1"><path class="cls-1" d="M44.87,53.84c-.1,3.78-.11,7.57-.24,11.35q-.26,7.95-.55,15.89A14.53,14.53,0,0,1,48,80.51c.29,0,.58,0,.87,0-.23-8.83-.32-17.67-.5-26.5A5.26,5.26,0,0,1,50,49.86,7.09,7.09,0,0,0,52.18,44c-.24-3.19-.24-6.4-.37-9.6-.09-2.26-.23-4.52-.34-6.76-1.19-.4-1.5,0-1.49,1.11,0,4.23,0,8.46,0,12.69a2.88,2.88,0,0,1,0,.93,2.63,2.63,0,0,1-.58.68c-.19-.23-.48-.44-.56-.71a3.75,3.75,0,0,1,0-1.06c0-4.19,0-8.37,0-12.56,0-1.07-.32-1.51-1.55-1V42.85c-1.08.39-1.31,0-1.3-.9,0-4.09,0-8.19,0-12.29V27.45l-1.52.1v1.58c0,4.19,0,8.37,0,12.56,0,.44-.4.88-.61,1.32a10,10,0,0,1-.55-1.26,3.6,3.6,0,0,1,0-.93q0-6.07,0-12.15c0-.56.16-1.22-.77-1.23s-.76.68-.78,1.23c-.2,5.07-.31,10.14-.62,15.2A7.41,7.41,0,0,0,43.4,50,4.83,4.83,0,0,1,44.87,53.84Z"/><path class="cls-1" d="M46.51,24.41a23.66,23.66,0,0,1-2.89-.22c-3.54-.67-5.68-3-5.53-6.75.24-6,2-11.48,6.37-15.8,2.21-2.21,2-2.17,4.35,0,3.43,3.24,5,7.51,5.92,12a16.84,16.84,0,0,1,.33,4.75,6.17,6.17,0,0,1-6,5.88C48.28,24.35,47.48,24.36,46.51,24.41Z"/><path class="cls-1" d="M0,36c4.36-.49,8.51-.61,12.46,1.16,4.85,2.17,6.54,7,6.13,12.07-.13,1.58-.78,2.07-2.21,2-2.34-.06-4.74.24-7-.17-5.71-1-9-5.28-9.36-11.46C0,38.52,0,37.37,0,36Z"/><path class="cls-1" d="M93,35.91c1,7.61-2,15.3-12.1,15.6a33.08,33.08,0,0,1-4-.23c-2-.19-2.12-.21-2.28-2.2-.35-4.24.59-8,4.18-10.77A11.82,11.82,0,0,1,85.39,36C87.94,35.8,90.5,35.91,93,35.91Z"/><path class="cls-1" d="M33.46,69.9c-4.63.92-8.86,1.94-13.14,2.55-4.69.68-9.11,0-12.22-4.15C5.16,64.43,5.49,63.37,10,61.62,16.77,59,22.9,60.39,28.39,64.89,30.19,66.36,31.72,68.16,33.46,69.9Z"/><path class="cls-1" d="M60.18,70C65.74,61.7,76,57,86.47,63.12c.66.38.63.78.46,1.43a10.56,10.56,0,0,1-10.35,8,29.72,29.72,0,0,1-6-.52C67.11,71.46,63.63,70.67,60.18,70Z"/><path class="cls-1" d="M51.82,75.82c0-6.34-.24-12.35.08-18.34a8.51,8.51,0,0,1,8.54-8.09,6,6,0,0,1,6,7.9c-.66,2.3-2.21,4-3.84,5.67-3,3.05-5.85,6.19-8.68,9.38A24.06,24.06,0,0,0,51.82,75.82Z"/><path class="cls-1" d="M41.51,75.49c-2.7-5-6.69-8.77-10.7-12.51a18.21,18.21,0,0,1-3.12-3.78A6.39,6.39,0,0,1,28,51.49c1.65-2,4.32-2.69,7.3-1.7C39,51,40.87,53.85,41.38,57.52a48.2,48.2,0,0,1,.13,6.25C41.52,67.68,41.51,71.59,41.51,75.49Z"/><path class="cls-1" d="M55.46,45.85a26.06,26.06,0,0,1,.41-14.59c1.57-4.82,7.33-8,12.28-7A4,4,0,0,1,71.23,27,8.64,8.64,0,0,1,67.07,37.6a10.14,10.14,0,0,1-1.73.67A16,16,0,0,0,56,45.17C55.91,45.34,55.76,45.49,55.46,45.85Z"/><path class="cls-1" d="M37.78,45.84c-.73-1-1.29-1.72-1.91-2.45a15,15,0,0,0-7.56-5c-4-1.09-6.35-3.66-6.75-7.78a10,10,0,0,1,.65-4c.68-2,2.52-2.75,5.77-2.5a11.28,11.28,0,0,1,9.72,8.26A26.23,26.23,0,0,1,37.78,45.84Z"/><path class="cls-1" d="M34,22.93c-2.4-1.57-4.89-1.78-7.46-1.79-3.48,0-6.77-.7-9.08-3.6a10.09,10.09,0,0,1-1.86-5.88,1.56,1.56,0,0,1,1.31-1.73,16.63,16.63,0,0,1,7.51-.59,10.1,10.1,0,0,1,7.08,5A20.75,20.75,0,0,1,34,22.93Z"/><path class="cls-1" d="M59.43,22.84c-.34-6.14,3.64-12.09,8.94-13.38a14.84,14.84,0,0,1,8.39.64c1.13.38,1,1.38.9,2.24-.68,5.09-2.79,7.92-9.2,8.73a12.45,12.45,0,0,1-1.73.08A12.25,12.25,0,0,0,59.43,22.84Z"/><path class="cls-1" d="M72.13,37.16c2.79-3.3,3.31-6.84,2.84-10.64a8,8,0,0,1,.14-2.13,4.58,4.58,0,0,1,3.48-4.08,5.67,5.67,0,0,1,5.59,2.59c1.77,2.76,1.48,5.74-1.11,8.34A20.3,20.3,0,0,1,73.34,37C73.08,37.05,72.82,37.06,72.13,37.16Z"/><path class="cls-1" d="M20.9,37.15a17.84,17.84,0,0,1-9-4.39,14.8,14.8,0,0,1-3.09-3.43,6.15,6.15,0,0,1,2.69-8.59c3-1.45,6,.15,6.63,3.62a11.4,11.4,0,0,1,.15,2.26C18.11,32.34,18.1,32.34,20.9,37.15Z"/><path class="cls-1" d="M58.25,13c-1-2.55-2-5-3-7.44-.52-1.29-.84-2.6.23-3.74A3.64,3.64,0,0,1,59.44,1c3.22.94,4.53,3.77,3.09,6.78A15.19,15.19,0,0,1,58.25,13Z"/><path class="cls-1" d="M35.09,13a14.26,14.26,0,0,1-4.64-5.95,4,4,0,0,1,.85-4.55A5,5,0,0,1,36.37.94a2.6,2.6,0,0,1,2,3.38c-.3,1.1-.87,2.12-1.27,3.2C36.4,9.32,35.77,11.14,35.09,13Z"/><path class="cls-1" d="M32.63,46.22c-4.29-.43-7,.42-9.1,7.7a2,2,0,0,1-.31-.4,14.94,14.94,0,0,1-1.32-8.43c.51-2.85,2.06-4.06,4.83-3.72C29.34,41.69,32.21,44.05,32.63,46.22Z"/><path class="cls-1" d="M60.5,46.33c1-3.16,4.88-5.52,7.88-4.94a3.28,3.28,0,0,1,2.5,2.17A11.14,11.14,0,0,1,71,50.75c-.27,1.06-.71,2.08-1.2,3.51C68.4,49.29,66.58,45.24,60.5,46.33Z"/><path class="cls-1" d="M21.55,58c-2.73,0-5.81-.23-8.87,0-1.63.11-3.2,1-4.82,1.4-1.33.35-2.72.66-3.88-.51S2.85,56.72,4,55.94a9,9,0,0,1,4.07-1.66C13.15,54,17.55,56.13,21.55,58Z"/><path class="cls-1" d="M71.37,58.33c4.23-2.15,8.48-4.24,13.33-4.07A10.73,10.73,0,0,1,89,55.74a2.21,2.21,0,0,1,.91,1.95A3.18,3.18,0,0,1,88,59.49a5.49,5.49,0,0,1-3.23-.28C80.41,57.29,75.94,57.37,71.37,58.33Z"/><path class="cls-1" d="M10.82,83.88v-.31h6.33v.31c-.64,0-2.07,0-1.61,1.21l4.69,12.73L25,85.09c.45-1.21-1-1.21-1.62-1.21v-.31h4.48v.31c-.64,0-2.07,0-2.53,1.21L20.2,98.79H18.4l-5-13.7C12.89,83.88,11.46,83.88,10.82,83.88Z"/><path class="cls-1" d="M20.23,99.36l0,0H18l-5.18-14c-.29-.77-1.15-.87-2-.87h-.53V83h7.4v1.37h-.54c-.84,0-1.09.11-1.16.2a.5.5,0,0,0,0,.3l4.19,11.37,4.22-11.37a.45.45,0,0,0,0-.3c-.06-.09-.32-.2-1.16-.2H22.8V83h5.54v1.37h-.53c-.89,0-1.74.1-2,.87l-5.21,14Zm-1.46-1.1h1.05L15,85.28a1.42,1.42,0,0,1,0-1.18H13.33a2.27,2.27,0,0,1,.52.81Z"/><path class="cls-1" d="M33.63,83.27a5.64,5.64,0,0,1,5.84,4.53.81.81,0,0,1-.85,1.07h-.79c-3.2.15-5.33,1.7-7.16,4.23-1.12,1.58-.82,3.75.61,4.48a7.1,7.1,0,0,0,2.95.61c2.56,0,4.54-1.47,5.61-4.12h.3c-.94,2.81-2.71,5-6.51,5a7.92,7.92,0,0,1,0-15.83ZM27.9,91.18a8.39,8.39,0,0,0,1,4.08c2.31-4.14,4.84-6.54,8.79-6.7-.18-2.58-1.67-5-4.1-5C29.82,83.57,27.9,87.38,27.9,91.18Z"/><path class="cls-1" d="M33.63,99.63a8.21,8.21,0,0,1-8.33-8.42c0-4.21,2.86-8.48,8.33-8.48a6.17,6.17,0,0,1,6.36,5,1.33,1.33,0,0,1-1.37,1.7h-.79c-2.73.13-4.82,1.37-6.73,4a3.06,3.06,0,0,0-.51,2.43,1.9,1.9,0,0,0,.93,1.26,6.49,6.49,0,0,0,2.71.55c2.35,0,4.12-1.3,5.11-3.77l.13-.34h1.41l-.23.7C39.42,97.87,37.13,99.63,33.63,99.63ZM29.21,85.19a7.53,7.53,0,0,0-2.85,6A7.1,7.1,0,0,0,32,98.41a7.13,7.13,0,0,1-.91-.35,2.9,2.9,0,0,1-1.5-2,3.1,3.1,0,0,1-.1-.68l-.06.1-.46.83-.47-.83a8.86,8.86,0,0,1-1.1-4.34A9.88,9.88,0,0,1,29.21,85.19Zm4.42-1.09c-3.57,0-5.2,3.67-5.2,7.08A8.25,8.25,0,0,0,29,94.12c2.36-3.89,4.87-5.75,8.17-6.05C36.85,86.07,35.68,84.1,33.63,84.1Zm3.33.68a7.17,7.17,0,0,1,1.29,3.56h.37a.44.44,0,0,0,.29-.09.41.41,0,0,0,0-.34A4.92,4.92,0,0,0,37,84.78Z"/><path class="cls-1" d="M39.68,103.12l2-2.47c.25,3.38,1.56,5.42,5.09,5.48,2.65,0,5.51-1.46,5.51-3.5s-2.83-2.25-5.72-2.25c-3.11,0-6.31-.06-6.31-2,0-1.46,1.46-2.86,2.56-3.44a2.7,2.7,0,0,0-.85,1.76c0,1.71,2.13,1.8,4.63,1.83,3.5,0,7.42.06,7.42,2.62,0,3.53-3.68,5.33-7.24,5.36C43.34,106.47,40.84,105.49,39.68,103.12Zm7.74-19.85c4.44,0,6.82,3.13,6.79,6.24s-2.38,6.21-6.79,6.21-6.76-3.14-6.76-6.21S43,83.27,47.42,83.27Zm0,12.11c3.35,0,4.93-2.89,4.93-5.9s-1.58-5.91-4.93-5.91-5,2.92-5,5.91S44.1,95.38,47.45,95.38Zm6.14-14.79c1.19.25,2,.76,2,1.77,0,1.46-1.46,2.86-2.56,3.44A2.73,2.73,0,0,0,53.89,84a1.55,1.55,0,0,0-1.31-1.52Z"/><path class="cls-1" d="M46.75,107c-3.83,0-6.36-1.23-7.54-3.65l-.15-.3,2.16-2.7a2.09,2.09,0,0,1-1.52-2c0-1.69,1.54-3.17,2.68-3.82a6.64,6.64,0,0,1-2.25-5c0-3.37,2.5-6.78,7.29-6.78a7.4,7.4,0,0,1,5.42,2.09c.06.06.11.12.17.17a1.42,1.42,0,0,0,.35-1c0-.36-.11-.76-.93-1l-.61-.19L53.3,80l.4.08c2,.41,2.43,1.47,2.43,2.29,0,1.54-1.29,2.9-2.37,3.63a6.7,6.7,0,0,1,1,3.52c0,3.35-2.52,6.74-7.32,6.74a7.86,7.86,0,0,1-4.17-1.09h0c-.06.09-.15.2-.25.32a1.64,1.64,0,0,0-.53,1.17c0,1.06,1.32,1.26,4.1,1.3,3.74,0,8,.07,8,3.15C54.53,104.93,50.62,107,46.75,107Zm-4.55-6.36c.25,3.42,1.62,4.91,4.56,5h.07a6.3,6.3,0,0,0,4.2-1.51,2.07,2.07,0,0,0,.7-1.46c0-1.16-1.7-1.72-5.19-1.72A22.65,22.65,0,0,1,42.2,100.64Zm-1.88,2.54a4.88,4.88,0,0,0,2.56,2.14A5.87,5.87,0,0,1,41.29,102Zm1.8-3.66a19.37,19.37,0,0,0,4.42.32c1.87,0,6.25,0,6.25,2.79a2.74,2.74,0,0,1-.15.9,3.86,3.86,0,0,0,.82-2.42c0-1.88-3-2-6.89-2.09-2.39,0-5.09-.06-5.16-2.26a2.63,2.63,0,0,0-.64,1.58c0,.56.44.91,1.16,1.13l.17-.21ZM47.45,84.1c-3,0-4.43,2.79-4.43,5.38s1.37,5.37,4.43,5.37,4.4-2.7,4.4-5.37S50.49,84.1,47.45,84.1Zm-4.22,1.07a5.61,5.61,0,0,0,.07,8.71,7.87,7.87,0,0,1-.07-8.71Zm9.21,1.55a8.09,8.09,0,0,1,.47,2.76,7.58,7.58,0,0,1-1.22,4.29,5.65,5.65,0,0,0,1.14-7.26Zm-.8-1.55a6,6,0,0,1,.57,1l.16-.27c-.09-.11-.19-.21-.29-.31A4.18,4.18,0,0,0,51.64,85.17Zm1.69-2.93a1.92,1.92,0,0,1,1.09,1.7,2.68,2.68,0,0,0,.64-1.58c0-.23,0-.81-1.19-1.15Z"/><path class="cls-1" d="M65,88.32a3.32,3.32,0,0,0,0-.94c-.13-1.92-.76-3.69-3.29-3.69-1.49,0-3.72,1.13-2.86,5.21L56.74,87c0-1.85,2.61-3.62,4.9-3.65C67.12,83.33,67,86.52,67,90.7v6.57c0,1.22,1.7,1.22,1.73,1.22v.3h-2.1A1.58,1.58,0,0,1,65,97.36a6.92,6.92,0,0,1-4.9,1.77c-3.41,0-5-2.16-5-4C55.12,89.69,63.43,90.91,65,88.32Zm-7.83,6.3c0,2.19,1.31,4.14,3.5,4.14,2.87,0,4.33-2.49,4.33-4.9v-5C62.83,91,57.16,90.06,57.16,94.62Z"/><path class="cls-1" d="M60.09,99.66c-3.61,0-5.5-2.27-5.5-4.52,0-3.1,2.38-4.27,4.79-5L56.2,87.28V87c0-2.28,3-4.15,5.43-4.18,2.07,0,3.56.41,4.5,1.34,1.43,1.41,1.43,3.68,1.43,6.29v6.78c0,.68,1.19.69,1.2.69h.53v1.37H66.66a2.12,2.12,0,0,1-1.91-1A8,8,0,0,1,60.09,99.66Zm5.27-3.48.16,1.11a1.05,1.05,0,0,0,1.14,1h.18a1.49,1.49,0,0,1-.35-1V90.49c0-2.38,0-4.43-1.11-5.53a2.63,2.63,0,0,0-.83-.56,5.23,5.23,0,0,1,.94,2.94q0,.16,0,.27h0a3.07,3.07,0,0,1,0,.68v5.56a6.37,6.37,0,0,1-.68,2.89Zm-8-4.05a3.33,3.33,0,0,0-1.72,3A3.45,3.45,0,0,0,58,98.26a5,5,0,0,1-1.41-3.64A4.05,4.05,0,0,1,57.37,92.13Zm7.08-2.22a13.08,13.08,0,0,1-2.59,1c-2.24.66-4.16,1.23-4.16,3.74,0,1.8,1,3.61,3,3.61,2.49,0,3.79-2.2,3.79-4.37Zm-2.78-5.68a2.47,2.47,0,0,0-1.89.86,4.43,4.43,0,0,0-.45,3.7l.27,1.27,1.28-.35c1.56-.42,3-.81,3.58-1.56a2.05,2.05,0,0,0,0-.6l0-.14C64.28,85.18,63.46,84.23,61.67,84.23Zm-4.38,2.59.8.72A4.93,4.93,0,0,1,58.55,85,3,3,0,0,0,57.29,86.82Z"/><path class="cls-1" d="M69.74,97.27V87c0-1.46-.43-1.46-1.74-1.46v-.3a8.3,8.3,0,0,0,3.47-1.62h.31v3.84c.91-2.35,2.65-4.2,5-4.2,4.93,0,4.54,4.68,4.54,7.49v6.57c0,1.22,1.7,1.22,1.73,1.22v.3H77.56v-.3s1.74,0,1.74-1.22v-7c0-2.59.15-6.42-3-6.42-2.46,0-4.56,2.74-4.53,5.72v7.67c0,1.22,1.7,1.22,1.73,1.22v.3H68v-.3S69.74,98.49,69.74,97.27Z"/><path class="cls-1" d="M83.61,99.33H77V98h.53s1.2,0,1.2-.69V90c0-1.78,0-4-1-5-.85-.85-2.64-.68-3.88.57a5.81,5.81,0,0,0-1.59,4.07v7.68c0,.68,1.19.69,1.2.69h.54v1.37H67.47V98H68s1.2,0,1.2-.69V87c0-.93,0-.93-1.2-.93h-.53V84.65H68a8,8,0,0,0,3.11-1.47l.15-.14h1v2.22a5.52,5.52,0,0,1,4.49-2.59,4.82,4.82,0,0,1,3.56,1.27c1.56,1.57,1.53,4.23,1.51,6.18v7.15c0,.68,1.19.69,1.2.69h.54Zm-4.13-1.07h1.67a1.49,1.49,0,0,1-.35-1V90.11c0-1.86,0-4.16-1.21-5.41a3,3,0,0,0-1.4-.8c.12.09.23.19.34.29,1.3,1.31,1.3,3.78,1.29,5.77v7.31A1.49,1.49,0,0,1,79.48,98.26Zm-9.56,0h1.67a1.49,1.49,0,0,1-.35-1V84.42a8.33,8.33,0,0,1-1.57.81c.39.26.6.76.6,1.72V97.27A1.49,1.49,0,0,1,69.92,98.26Z"/></g></g></svg>